<?xml version="1.0" encoding="utf-8"?>
<!-- Generator: Adobe Illustrator 21.1.0, SVG Export Plug-In . SVG Version: 6.00 Build 0)  -->
<svg version="1.1" id="Слой_1" xmlns="http://www.w3.org/2000/svg" xmlns:xlink="http://www.w3.org/1999/xlink" x="0px" y="0px"
	 viewBox="0 0 38.262 65" style="enable-background:new 0 0 38.262 65;" xml:space="preserve">
<style type="text/css">
	.st0{fill:#333333;}
</style>
<g>
	<path class="st0" d="M4.541,17.369c7.745,4.472,15.491,8.944,23.236,13.415c0.136,0.078,0.266,0.061,0.366-0.004
		c0.107-0.053,0.188-0.157,0.189-0.314c0.008-2.698,0.015-5.396,0.023-8.094c0-0.129-0.071-0.254-0.183-0.318
		c-7.745-4.472-15.491-8.944-23.236-13.415c-0.242-0.14-0.554,0.038-0.555,0.318c-0.008,2.698-0.015,5.396-0.023,8.094
		C4.358,17.18,4.429,17.304,4.541,17.369z M27.615,23.14c-0.003,0.901-0.005,1.801-0.008,2.702
		c-0.004,1.329-0.008,2.657-0.011,3.986c-5.375-3.103-10.75-6.206-16.125-9.31c-2.125-1.227-4.25-2.454-6.375-3.681
		c0.001-0.186,0.001-0.371,0.002-0.557C5.1,15.381,5.103,14.48,5.105,13.58c0.004-1.329,0.008-2.657,0.011-3.986
		c5.375,3.103,10.75,6.206,16.125,9.31c2.125,1.227,4.25,2.454,6.375,3.681C27.616,22.769,27.615,22.955,27.615,23.14z"/>
	<path class="st0" d="M11.289,48.542c0.135,0.078,0.266,0.061,0.366-0.004c0.107-0.054,0.188-0.157,0.189-0.314
		c0.002-0.745,0.004-1.489,0.006-2.234c0-0.129-0.071-0.254-0.183-0.318c-2.273-1.312-4.546-2.624-6.819-3.937
		c-0.242-0.14-0.554,0.038-0.555,0.318c-0.002,0.745-0.004,1.489-0.006,2.234c0,0.129,0.071,0.254,0.183,0.318
		C6.743,45.917,9.016,47.229,11.289,48.542z M6.891,45.151c-0.5-0.289-1-0.577-1.5-0.866c0.399-0.232,0.798-0.464,1.196-0.695
		c0.886,0.511,1.772,1.023,2.658,1.534c0.622,0.359,1.244,0.718,1.866,1.077c-0.001,0.259-0.001,0.517-0.002,0.776
		c-0.001,0.203-0.001,0.405-0.002,0.608C9.702,46.774,8.297,45.963,6.891,45.151z M5.027,43.645c0-0.008,0-0.016,0-0.025
		c0-0.107,0.001-0.215,0.001-0.322c0.001-0.203,0.001-0.405,0.002-0.608c0.274,0.158,0.548,0.317,0.823,0.475
		C5.577,43.325,5.302,43.485,5.027,43.645z"/>
	<path class="st0" d="M2.535,28.601c-0.006,2.206,0.004,4.052,1.685,5.76c0.363,0.369,0.799,0.696,1.269,0.996
		c-0.661,0.209-1.285,0.667-1.907,1.053c-0.433,0.09-0.782,0.393-0.946,1.053c-0.429,1.728-0.138,3.776-0.143,5.539
		c-0.006,2.206,0.004,4.052,1.685,5.76c1.237,1.257,3.304,2.031,4.807,2.899c0.996,0.575,2.484,1.763,3.637,1.278
		c0.054-0.004,0.112-0.02,0.172-0.055c0.557-0.323,1.109-0.588,1.577-0.894c0.201-0.046,0.393-0.136,0.574-0.279
		c-0.006,4.212,3.823,5.598,6.952,7.405c0.97,0.56,2.088,1.475,3.256,1c0.001,0,0.002-0.001,0.003-0.002
		c0.03-0.009,0.061-0.022,0.092-0.04c0.019-0.011,0.038-0.021,0.057-0.032c0.001,0,0.001-0.001,0.002-0.001
		c0.594-0.341,1.18-0.619,1.659-0.955c0.578-0.147,0.989-0.647,1.09-1.701c0.006-0.028,0.01-0.057,0.01-0.089
		c0-0.071,0-0.142,0.001-0.214c0.075-1.421,0.028-2.863,0.012-4.292c0.015-5.46,0.031-10.921,0.046-16.381
		c0-0.07-0.004-0.138-0.007-0.207c0-0.083,0-0.166,0.001-0.249c-0.022-1.624-1.003-3.355-2.409-4.175
		c-2.037-1.176-4.043-2.544-6.17-3.548c-1.285-0.606-2.377,0.296-3.461,0.969c-0.148,0.031-0.287,0.086-0.411,0.173
		c-0.001-0.203-0.003-0.407-0.002-0.61c-0.022-1.622-1.003-3.355-2.409-4.175c-2.037-1.176-4.043-2.545-6.17-3.548
		c-1.286-0.606-2.377,0.294-3.463,0.969c-0.433,0.09-0.782,0.393-0.946,1.053C2.25,24.79,2.54,26.837,2.535,28.601z M19.334,28.949
		c1.984,1.028,3.891,2.237,5.825,3.361c0.06,0.035,0.12,0.071,0.18,0.105c0.233,0.136,0.452,0.303,0.655,0.493
		c0.622,0.584,1.085,1.39,1.283,2.222c0.065,0.274,0.103,0.551,0.107,0.823c0,0.072,0,0.143-0.001,0.215
		c-0.014,4.901-0.028,9.802-0.042,14.703c-0.006,2.057-0.012,4.114-0.017,6.171c-0.003,0.924-0.588,1.393-1.3,1.787
		c0.026-0.157,0.041-0.317,0.05-0.474c0.026-0.371,0.012-0.759,0.013-1.147c0.007-2.385,0.014-4.77,0.02-7.155
		c0.009-3.26,0.018-6.52,0.028-9.779c0.001-0.231,0.001-0.463,0.002-0.694c0-0.002,0-0.004,0-0.006
		c0.002-0.824,0.005-1.647,0.007-2.471c-0.003-0.069-0.009-0.137-0.015-0.206c-0.126-1.535-0.963-2.979-2.228-3.856
		c-0.055-0.038-0.11-0.077-0.167-0.113c-1.586-0.916-3.172-1.831-4.758-2.747c-0.044-0.026-0.092-0.053-0.14-0.081
		c-0.02-0.012-0.041-0.024-0.061-0.035c-0.492-0.284-0.985-0.61-1.502-0.779C17.923,28.873,18.604,28.571,19.334,28.949z
		 M18.404,30.7c1.653,0.954,3.306,1.909,4.959,2.863c0.265,0.175,0.492,0.363,0.693,0.56l-0.009-0.015
		c0.596,0.58,1.03,1.33,1.233,2.136l-0.135-0.234c0.228,0.826,0.26,1.729,0.257,2.664c-0.006,1.947-0.011,3.894-0.017,5.841
		c-0.012,4.231-0.024,8.462-0.036,12.693c-0.001,0.355-0.002,0.711-0.003,1.066c-0.006,2.082-1.622,1.044-2.475,0.552
		c-1.697-0.98-3.393-1.959-5.09-2.939c-1.839-1.061-2.102-2.958-2.097-4.83c0.005-1.864,0.011-3.729,0.016-5.593
		c0.013-4.418,0.025-8.835,0.038-13.253c0.001-0.364,0.002-0.728,0.003-1.093C15.748,28.956,17.561,30.214,18.404,30.7z
		 M3.231,43.27c0.005-1.607,0.009-3.215,0.014-4.822c0.007-2.632,3.052-0.313,4.024,0.249c1.2,0.693,2.399,1.385,3.599,2.078
		c1.996,1.321,2.045,3.299,2.039,5.394c-0.005,1.607-0.009,3.215-0.014,4.822c-0.007,2.632-3.05,0.314-4.023-0.248
		c-1.2-0.693-2.399-1.385-3.599-2.078C3.228,47.485,3.225,45.294,3.231,43.27z M13.587,51.628c0.035-0.224,0.043-0.454,0.044-0.68
		c0.01-0.305,0.001-0.619,0.002-0.935c0.003-0.909,0.005-1.819,0.008-2.728c0.002-0.793,0.034-1.556,0.007-2.298
		c0.001-0.225,0.001-0.449,0.002-0.674c-0.003-0.069-0.009-0.137-0.015-0.206c-0.081-0.984-0.452-1.931-1.043-2.715
		c-0.001-0.002-0.003-0.004-0.004-0.006c-0.219-0.317-0.486-0.583-0.776-0.823c-0.047-0.041-0.096-0.08-0.145-0.119
		c-0.026-0.02-0.052-0.041-0.079-0.061c-0.059-0.045-0.12-0.089-0.181-0.132c-0.055-0.038-0.11-0.077-0.167-0.113
		c-1.586-0.916-3.172-1.831-4.758-2.747c-0.043-0.025-0.088-0.051-0.135-0.078c-0.022-0.013-0.044-0.025-0.066-0.038
		c-0.492-0.284-0.986-0.611-1.504-0.779c0.65-0.412,1.331-0.714,2.061-0.335c1.984,1.028,3.891,2.238,5.825,3.361
		c0.06,0.035,0.12,0.071,0.18,0.105c0.233,0.136,0.452,0.303,0.654,0.493c0.622,0.584,1.085,1.391,1.283,2.223
		c0.065,0.274,0.103,0.551,0.107,0.823c0,0.072,0,0.143-0.001,0.215c-0.006,2.154-0.012,4.308-0.018,6.463
		C14.867,50.765,14.293,51.234,13.587,51.628z M12.671,38.535c0.053-0.004,0.109-0.019,0.166-0.053
		c0.557-0.324,1.109-0.588,1.577-0.894c0.2-0.046,0.393-0.136,0.573-0.279c-0.002,0.782-0.004,1.564-0.007,2.345
		c-0.001,0.396-0.002,0.793-0.003,1.189c-0.426-0.767-1.036-1.432-1.761-1.855c-0.229-0.132-0.457-0.267-0.686-0.404
		C12.578,38.571,12.624,38.554,12.671,38.535z M6.879,21.759c1.984,1.028,3.891,2.238,5.825,3.361c0.06,0.035,0.12,0.071,0.18,0.105
		c0.233,0.136,0.452,0.303,0.655,0.494c0.622,0.584,1.084,1.39,1.282,2.221c0.065,0.274,0.103,0.551,0.107,0.824
		c0,0.072,0,0.143-0.001,0.215c-0.006,2.154-0.012,4.308-0.018,6.463c-0.003,0.923-0.576,1.392-1.282,1.786
		c0.027-0.173,0.039-0.351,0.042-0.528c0.018-0.364,0.003-0.736,0.004-1.089c0.001-0.443,0.003-0.887,0.004-1.33
		c0.001-0.465,0.003-0.931,0.004-1.396c0.002-0.793,0.034-1.557,0.006-2.299c0.001-0.224,0.001-0.449,0.002-0.673
		c-0.003-0.069-0.009-0.137-0.015-0.206c-0.081-0.984-0.452-1.931-1.043-2.715c-0.001-0.002-0.003-0.004-0.004-0.006
		c-0.219-0.317-0.486-0.583-0.776-0.823c-0.047-0.041-0.096-0.08-0.144-0.119c-0.027-0.02-0.053-0.042-0.08-0.062
		c-0.059-0.045-0.119-0.089-0.181-0.131c-0.055-0.038-0.11-0.077-0.167-0.113c-1.59-0.918-3.179-1.835-4.769-2.753
		c-0.038-0.022-0.078-0.045-0.119-0.069c-0.024-0.014-0.048-0.027-0.071-0.041c-0.492-0.284-0.986-0.611-1.504-0.779
		C5.468,21.682,6.149,21.38,6.879,21.759z M3.272,28.869c0.005-1.607,0.009-3.215,0.014-4.822c0.007-2.632,3.052-0.313,4.025,0.249
		c1.2,0.693,2.399,1.385,3.599,2.078c0.264,0.175,0.492,0.361,0.692,0.558l-0.008-0.013c0.596,0.58,1.03,1.33,1.233,2.136
		l-0.139-0.241c0.252,0.913,0.264,1.919,0.261,2.954c-0.005,1.607-0.009,3.215-0.014,4.822c-0.007,2.632-3.05,0.314-4.023-0.248
		c-1.2-0.693-2.399-1.385-3.599-2.078C3.269,33.083,3.266,30.893,3.272,28.869z"/>
	<path class="st0" d="M6.764,31.084c0.001,0.025,0.002,0.046,0.002,0.08c-0.001,0.323-0.002,0.646-0.003,0.97
		c-0.001,0.514-0.003,1.027-0.004,1.541c0,0.129,0.071,0.254,0.183,0.318c0.648,0.374,1.296,0.748,1.944,1.122
		c0.242,0.14,0.554-0.038,0.555-0.318c0.002-0.721,0.004-1.443,0.006-2.164c0.628,0.363,1.257,0.726,1.885,1.088
		c0.135,0.078,0.266,0.061,0.366-0.004c0.107-0.053,0.188-0.157,0.189-0.314c0.002-0.744,0.004-1.488,0.006-2.232
		c0-0.129-0.071-0.254-0.183-0.318c-0.751-0.434-1.502-0.867-2.253-1.301c-0.001-0.025-0.002-0.046-0.002-0.08
		c0.001-0.323,0.002-0.646,0.003-0.97c0.001-0.514,0.003-1.027,0.004-1.541c0-0.129-0.071-0.254-0.183-0.318
		c-0.648-0.374-1.296-0.748-1.944-1.122c-0.242-0.14-0.554,0.038-0.555,0.318c-0.002,0.721-0.004,1.443-0.006,2.164
		c-0.628-0.362-1.256-0.725-1.883-1.087c-0.242-0.14-0.554,0.038-0.555,0.318c-0.002,0.744-0.004,1.488-0.006,2.232
		c0,0.129,0.071,0.254,0.183,0.318C5.263,30.218,6.013,30.651,6.764,31.084z M9.814,31.994c0.398-0.231,0.796-0.463,1.195-0.694
		c0.048,0.028,0.097,0.056,0.145,0.084c-0.001,0.209-0.001,0.418-0.002,0.627c-0.001,0.252-0.001,0.503-0.002,0.755
		C10.705,32.508,10.26,32.251,9.814,31.994z M5.434,29.465c0.398-0.231,0.796-0.463,1.195-0.694
		c0.109,0.063,0.218,0.126,0.326,0.188c0.054,0.031,0.111,0.044,0.167,0.046c0.003,0,0.006,0.001,0.009,0.001
		c0.415,0.24,0.83,0.479,1.245,0.719c-0.414,0.24-0.827,0.481-1.241,0.721C6.567,30.119,6.001,29.792,5.434,29.465z M8.74,30.366
		c-0.001,0.501-0.003,1.002-0.004,1.502c-0.015,0.039-0.026,0.081-0.026,0.127c0,0.111-0.001,0.222-0.001,0.333
		c-0.404,0.235-0.808,0.47-1.212,0.704c0.002-0.649,0.004-1.298,0.006-1.947C7.915,30.845,8.328,30.606,8.74,30.366z M8.704,34.159
		c-0.14-0.081-0.279-0.161-0.419-0.242c-0.141-0.081-0.282-0.163-0.423-0.244c0.235-0.137,0.47-0.273,0.705-0.41
		c0.038-0.022,0.087-0.047,0.139-0.072C8.706,33.514,8.705,33.836,8.704,34.159z M9.475,31.338c0.001-0.308,0.002-0.615,0.003-0.923
		c0.265,0.153,0.53,0.306,0.795,0.459C10.007,31.029,9.741,31.184,9.475,31.338z M7.923,28.613c0.266-0.155,0.532-0.309,0.798-0.464
		c-0.001,0.308-0.002,0.615-0.003,0.923C8.453,28.919,8.188,28.766,7.923,28.613z M7.935,26.719
		c0.223,0.129,0.446,0.257,0.668,0.386c0.049,0.029,0.088,0.048,0.121,0.063c0,0.042,0,0.085,0,0.127
		c-0.404,0.235-0.808,0.47-1.212,0.704c0.001-0.507,0.003-1.015,0.004-1.522C7.655,26.557,7.795,26.638,7.935,26.719z M5.069,28.824
		c0-0.066,0-0.132,0.001-0.198c0.001-0.252,0.001-0.503,0.002-0.755c0.274,0.158,0.547,0.316,0.821,0.474
		C5.618,28.505,5.343,28.665,5.069,28.824z"/>
	<path class="st0" d="M16.769,41.959c0,0.129,0.071,0.254,0.183,0.318c2.273,1.312,4.546,2.624,6.819,3.937
		c0.135,0.078,0.266,0.061,0.366-0.004c0.107-0.053,0.188-0.157,0.189-0.314c0.002-0.745,0.004-1.489,0.006-2.234
		c0-0.129-0.071-0.254-0.183-0.318c-2.273-1.312-4.546-2.624-6.819-3.937c-0.242-0.14-0.554,0.038-0.555,0.318
		C16.773,40.47,16.771,41.215,16.769,41.959z M17.873,41.958c0.146-0.085,0.292-0.17,0.438-0.255
		c0.234-0.136,0.537-0.262,0.79-0.422c0.875,0.505,1.75,1.011,2.626,1.516c0.622,0.359,1.244,0.718,1.866,1.077
		c-0.001,0.259-0.001,0.517-0.002,0.776c-0.001,0.203-0.001,0.405-0.002,0.608c-1.406-0.811-2.811-1.623-4.217-2.434
		C18.873,42.535,18.373,42.247,17.873,41.958z M18.333,40.838c-0.275,0.16-0.55,0.32-0.825,0.48c0-0.116,0.001-0.231,0.001-0.347
		c0.001-0.203,0.001-0.405,0.002-0.608C17.785,40.521,18.059,40.679,18.333,40.838z"/>
	<path class="st0" d="M16.94,46.075c2.273,1.312,4.546,2.624,6.819,3.937c0.135,0.078,0.266,0.061,0.366-0.004
		c0.107-0.053,0.188-0.157,0.189-0.314c0.002-0.745,0.004-1.489,0.006-2.234c0-0.129-0.071-0.254-0.183-0.318
		c-2.273-1.312-4.546-2.624-6.819-3.937c-0.242-0.14-0.554,0.038-0.555,0.318c-0.002,0.745-0.004,1.489-0.006,2.234
		C16.757,45.886,16.828,46.01,16.94,46.075z M19.362,46.621c-0.5-0.289-1-0.577-1.5-0.866c0.146-0.085,0.292-0.17,0.439-0.255
		c0.234-0.136,0.537-0.262,0.79-0.422c0.875,0.505,1.75,1.011,2.626,1.516c0.622,0.359,1.244,0.718,1.866,1.077
		c-0.001,0.259-0.001,0.517-0.002,0.776c-0.001,0.203-0.001,0.405-0.002,0.608C22.173,48.244,20.767,47.433,19.362,46.621z
		 M17.497,45.115c0-0.116,0.001-0.231,0.001-0.347c0.001-0.203,0.001-0.405,0.002-0.608c0.274,0.158,0.548,0.317,0.823,0.475
		C18.047,44.795,17.772,44.955,17.497,45.115z"/>
	<path class="st0" d="M38.247,20.462c-0.186-3.988-3.364-5.707-6.411-7.466C24.828,8.95,17.82,4.903,10.812,0.857
		C9.879,0.319,9.028-0.128,7.914,0.034C6.99,0.168,5.966,1.044,5.195,1.492C3.915,2.236,2.634,2.98,1.354,3.724
		C1.247,3.786,1.166,3.86,1.108,3.94c-1.523,1.46-1.006,4.605-1.011,6.515c-0.012,4.241-0.024,8.483-0.036,12.724
		C0.04,30.247,0.02,37.314,0,44.382c-0.009,3.214,2.225,5.258,4.759,6.722c3.065,1.769,6.129,3.539,9.194,5.308
		c3.515,2.029,7.029,4.058,10.544,6.088c1.628,0.94,4.146,3.017,6.152,2.383c0.102-0.01,0.208-0.043,0.318-0.107
		c1.584-0.921,3.169-1.841,4.753-2.762c0.945-0.549,1.881-0.98,2.248-2.087c0.456-1.374,0.179-3.186,0.183-4.59
		c0.025-8.791,0.05-17.581,0.075-26.372C38.234,26.131,38.286,23.295,38.247,20.462z M36.719,40.118
		c-0.013,4.424-0.025,8.847-0.038,13.271c-0.005,1.872,0.162,3.834-0.031,5.7c-0.046,0.446-0.172,0.625-0.245,0.728
		c-0.268,0.373-0.849,0.586-1.229,0.807c-1.065,0.619-2.13,1.238-3.195,1.857c0.01-0.104,0.018-0.21,0.018-0.321
		c0.006-2.227,0.013-4.454,0.019-6.681c0.021-7.449,0.042-14.897,0.063-22.346c0.007-2.591,0.015-5.182,0.022-7.772
		c0.001-0.512-0.023-1.019-0.079-1.514c-0.238-2.084-1.053-3.964-2.943-5.249c-0.056-0.038-0.107-0.078-0.165-0.114
		c-6.297-3.636-12.594-7.271-18.891-10.907c-1.475-0.852-2.95-1.703-4.425-2.555C5.005,4.677,4.414,4.286,3.776,4.022
		c1.025-0.596,2.05-1.191,3.075-1.787c0.692-0.402,1.247-0.932,2.05-0.71c0.476,0.131,0.932,0.47,1.354,0.714
		c1.308,0.755,2.617,1.511,3.925,2.266c6.546,3.78,13.093,7.559,19.639,11.339c0.076,0.044,0.152,0.088,0.228,0.132
		c1.531,0.884,2.644,2.717,2.726,4.487c0.003,0.207,0.004,0.413,0.006,0.62C36.853,27.425,36.737,33.776,36.719,40.118z
		 M4.008,4.952c0.958,0.553,1.917,1.107,2.875,1.66c7.221,4.169,14.442,8.338,21.662,12.507c3.259,2.084,2.824,5.584,2.815,8.861
		c-0.012,4.207-0.024,8.415-0.036,12.622c-0.02,7.154-0.041,14.308-0.061,21.462c-0.001,0.356-0.063,0.669-0.173,0.934
		c-0.232,0.135-0.464,0.269-0.695,0.404c-0.024,0.011-0.048,0.018-0.073,0.031c-0.92,0.495-2.365-0.64-3.148-1.092
		c-1.536-0.887-3.072-1.774-4.608-2.661c-4.064-2.347-8.129-4.693-12.193-7.04C8.836,51.754,7.3,50.867,5.764,49.98
		c-0.834-0.482-1.728-0.917-2.45-1.563c-2.362-2.112-1.835-5.49-1.827-8.313c0.02-6.979,0.04-13.958,0.059-20.937
		c0.009-3.09,0.018-6.181,0.026-9.271c0.003-1-0.465-4.173,0.531-4.902c0.001-0.001,0.001-0.001,0.002-0.002
		c0.236-0.137,0.471-0.274,0.707-0.411C3.187,4.591,3.601,4.717,4.008,4.952z"/>
</g>
</svg>
