<?xml version="1.0" encoding="utf-8"?>
<!-- Generator: Adobe Illustrator 21.1.0, SVG Export Plug-In . SVG Version: 6.00 Build 0)  -->
<svg version="1.1" id="Слой_1" xmlns="http://www.w3.org/2000/svg" xmlns:xlink="http://www.w3.org/1999/xlink" x="0px" y="0px"
	 viewBox="0 0 54.768 58.329" style="enable-background:new 0 0 54.768 58.329;" xml:space="preserve">
<style type="text/css">
	.st0{fill:#263238;}
</style>
<g>
	<g>
		<path class="st0" d="M54.643,39.323c0.077-0.116,0.126-0.26,0.125-0.436c-0.054-9.79-4.425-19.34-10.433-26.895
			c-0.219-0.276-0.681-0.289-0.964-0.124c-1.909,1.109-3.817,2.218-5.726,3.327c0.505-0.711,1.012-1.421,1.516-2.133
			c0.219-0.31,0.088-0.701-0.124-0.964C34.862,6.947,29.201,1.887,22.546,0.404c-3.172-0.707-6.499-0.573-9.364,1.092
			c-2.28,1.325-4.56,2.65-6.841,3.975C6.264,5.517,6.203,5.57,6.15,5.626C0.293,9.248-0.55,17.203,0.262,23.55
			c1.125,8.797,5.441,17.184,11.143,23.884c4.286,5.036,10.416,10.011,17.233,10.794c2.256,0.259,4.503,0.042,6.593-0.88
			c1.695-0.748,3.296-1.859,4.894-2.788c1.406-0.817,2.875-1.573,4.173-2.557c1.793-1.36,2.995-3.29,3.844-5.342
			c0.428-1.034,0.697-2.125,0.917-3.219c0.041-0.184,0.073-0.371,0.096-0.558c0.02-0.133,0.032-0.228,0.038-0.299
			c0.216-0.126,0.433-0.251,0.649-0.377c1.511-0.878,3.021-1.756,4.532-2.634c0.076-0.044,0.136-0.097,0.188-0.152
			c0.023-0.024,0.047-0.047,0.066-0.074C54.634,39.34,54.637,39.331,54.643,39.323z M53.169,38.434
			c-1.562,0.908-3.124,1.816-4.687,2.724c-0.466,0.271-0.651,0.544-0.76,0.902c-0.11,0.064-0.22,0.128-0.33,0.192
			c-0.256-9.171-4.243-17.992-9.748-25.216c1.978-1.15,3.956-2.299,5.934-3.449C49.058,20.64,52.993,29.405,53.169,38.434z
			 M28.205,28.091c-0.658,0.924-1.315,1.848-1.973,2.773c-0.125,0.176-0.032,0.443,0.143,0.544
			c5.774,3.334,11.548,6.667,17.322,10.001c-0.642,0.378-1.283,0.755-1.925,1.133c-6.429-3.712-12.859-7.424-19.288-11.136
			c-0.132-0.076-0.267-0.17-0.405-0.259c1.897-1.102,3.794-2.205,5.69-3.307C27.914,27.923,28.059,28.007,28.205,28.091z
			 M8.097,6.376c0.127-0.06,0.216-0.147,0.279-0.247c0.317-0.184,0.633-0.368,0.95-0.552c4.098-1.037,8.515,0.469,12.117,2.618
			c2.125,1.268,4.056,2.813,5.856,4.506c0.876,0.824,1.701,1.7,2.502,2.596c0.242,0.271,0.71,1.055,1.163,1.496
			c-3.225,4.532-6.451,9.065-9.676,13.597c-4.569-7.913-9.139-15.827-13.708-23.74C7.75,6.557,7.917,6.461,8.097,6.376z
			 M27.151,30.938c0.595-0.836,1.19-1.673,1.785-2.509c0.295,0.025,0.578-0.129,0.762-0.388c2.469-3.47,4.938-6.94,7.407-10.41
			c5.341,7.027,9.212,15.629,9.489,24.533C40.114,38.421,33.632,34.679,27.151,30.938z M27.366,27.154
			c-0.009,0.005-0.015,0.009-0.024,0.014c-1.585,0.921-3.17,1.842-4.754,2.763c3.062-4.302,6.123-8.604,9.185-12.906
			c1.495-0.87,2.99-1.739,4.484-2.609c-2.92,4.115-5.853,8.221-8.779,12.332C27.392,26.869,27.36,27.011,27.366,27.154z
			 M37.372,12.845c-0.017,0.011-0.032,0.02-0.045,0.028c-0.803,0.467-1.606,0.934-2.408,1.401c-1.135,0.66-2.271,1.321-3.406,1.981
			c-0.104-0.247-0.897-1.232-0.958-1.302c-0.419-0.485-0.858-0.953-1.298-1.42c-0.956-1.014-1.98-1.96-3.036-2.868
			c-1.829-1.572-3.843-2.936-5.984-4.044c-2.784-1.442-5.952-2.352-9.036-2.135c0.813-0.473,1.627-0.945,2.44-1.418
			c2.656-1.543,5.505-1.793,8.481-1.131c6.177,1.375,11.393,5.99,15.355,10.758C37.443,12.745,37.408,12.795,37.372,12.845z
			 M6.897,7.059c4.612,7.987,9.224,15.974,13.836,23.962c-1.453,0.828-2.905,1.656-4.358,2.484
			c-3.051,1.739-6.103,3.478-9.154,5.217c-0.779-1.388-1.491-2.799-2.133-4.214C2.813,29.502,1.39,23.913,1.585,18.394
			C1.74,14.024,3.185,9.489,6.897,7.059z M7.614,39.412c2.878-1.64,5.756-3.28,8.635-4.921c1.604-0.914,3.207-1.828,4.811-2.742
			c0.072-0.041,0.144-0.082,0.215-0.123c0.358,0.207,0.717,0.414,1.075,0.621c6.345,3.663,12.689,7.326,19.034,10.989
			c-0.073,3.823-0.881,7.765-3.473,10.708c-0.068,0.077-0.14,0.148-0.21,0.222c-0.564,0.307-1.122,0.614-1.663,0.928
			c-4.456,2.589-9.227,1.706-13.645-0.608C16.126,51.202,11.194,45.575,7.614,39.412z M42.18,43.223
			c0.769-0.453,1.538-0.905,2.308-1.358c0.723,0.417,1.445,0.834,2.168,1.252c0.036,0.068,0.09,0.119,0.154,0.153
			c0.106,0.072,0.244,0.092,0.389,0.013c0.059-0.018,0.114-0.049,0.159-0.091c0.049-0.029,0.099-0.057,0.148-0.086
			c-0.262,1.281-0.616,2.522-1.152,3.718c-1.335,2.98-4.017,4.769-6.807,6.333C41.49,50.293,42.118,46.624,42.18,43.223z"/>
	</g>
</g>
</svg>
