<?xml version="1.0" encoding="utf-8"?>
<!-- Generator: Adobe Illustrator 21.1.0, SVG Export Plug-In . SVG Version: 6.00 Build 0)  -->
<svg version="1.1" id="Слой_1" xmlns="http://www.w3.org/2000/svg" xmlns:xlink="http://www.w3.org/1999/xlink" x="0px" y="0px"
	 viewBox="0 0 52.399 64" style="enable-background:new 0 0 52.399 64;" xml:space="preserve">
<style type="text/css">
	.st0{fill:#FFFFFF;}
</style>
<g>
	<path class="st0" d="M5.208,34.053c8.567,4.946,17.135,9.893,25.702,14.839c0.125,0.072,0.249,0.144,0.374,0.216
		c-0.319-0.182,0.007,0.031,0.267,0.48c0.969,1.674,1.938,3.348,2.908,5.022c1.724,2.978,3.449,5.956,5.173,8.934c0,0,0,0,0,0.001
		c0.097,0.193,0.268,0.323,0.462,0.394c0.006,0.002,0.013,0.004,0.019,0.007c0.261,0.089,0.564,0.072,0.8-0.065
		c3.495-2.031,6.989-4.062,10.484-6.093c1.134-0.659,0.883-1.768,0.886-2.945c0.007-2.435,0.014-4.87,0.021-7.305
		c0.02-7.187,0.157-14.382,0.059-21.568c-0.256-5.499-5.834-7.553-9.903-9.901C35.6,12.106,28.739,8.145,21.879,4.184c0,0,0,0,0,0
		c-2.02-1.166-4.04-2.333-6.06-3.499c-0.798-0.461-1.796-0.863-2.734-0.604C11.31,0.572,9.6,1.97,8.033,2.881
		C5.844,4.153,3.655,5.425,1.467,6.697C1.334,6.774,1.232,6.865,1.158,6.964C0.187,7.884,0.044,9.016,0.04,10.389l0,0
		C0.027,15.026,0.014,19.664,0,24.301c-0.007,2.468,0.042,4.529,1.466,6.725C2.397,32.46,3.786,33.232,5.208,34.053z M50.408,56.195
		c-3.165,1.839-6.33,3.679-9.495,5.518c0.002-0.558,0.003-1.116,0.005-1.675c3.048-1.76,6.096-3.519,9.143-5.279
		c0.109-0.063,0.229-0.123,0.354-0.184C50.412,55.115,50.409,55.655,50.408,56.195z M49.46,22.096
		c-3.372,1.947-6.744,3.894-10.116,5.84c-1.778-2.242-4.847-3.537-7.365-4.896c1.531-0.884,3.062-1.768,4.593-2.652
		c1.287-0.743,2.573-1.486,3.86-2.228c0.403-0.232,0.805-0.465,1.208-0.697c0.166-0.096,0.277-0.147,0.346-0.176
		c1.947,1.124,3.894,2.248,5.84,3.372C48.455,21.021,49.018,21.518,49.46,22.096z M1.886,20.028
		c0.009-3.213,0.018-6.426,0.027-9.639l0,0l0,0l0,0c0.002-0.658-0.09-1.622,0.504-2.077C2.419,8.311,2.419,8.311,2.42,8.31
		c0.289-0.168,0.577-0.342,0.865-0.514c0.682,0.18,1.43,0.602,2.014,0.939c0.024,0.014,0.048,0.028,0.072,0.041
		C5.396,8.79,5.42,8.804,5.443,8.818c8.45,4.879,16.9,9.757,25.35,14.636l0,0c1.598,0.922,3.195,1.845,4.793,2.767
		c1.209,0.698,2.326,1.321,3.16,2.467c1.668,2.356,1.322,5.532,1.301,8.459c0,0.013-0.001,0.027-0.001,0.041
		c0,0.001,0.001,0.003,0.001,0.004c0,0.041-0.001,0.081-0.001,0.122c-0.01,3.506-0.02,7.012-0.03,10.517
		c-0.012,4.192-0.024,8.383-0.036,12.575c-1.916-3.309-3.832-6.618-5.748-9.927c-0.491-0.847-1.025-2.423-1.927-2.944
		c-1.227-0.709-2.454-1.417-3.682-2.126c-4.991-2.881-9.981-5.763-14.972-8.644c-2.148-1.24-4.296-2.48-6.444-3.72
		c-1.108-0.64-2.327-1.215-3.312-2.045C0.969,28.532,1.877,23.402,1.886,20.028z M40.996,32.358
		c0.001-0.213-0.014-0.395-0.036-0.588c0.501-0.289,1.002-0.578,1.503-0.868c2.832-1.635,5.665-3.271,8.497-4.906
		c-0.004,1.533-0.009,3.066-0.013,4.598c0,0.01,0,0.017,0,0.027c-0.11,0.063-0.219,0.127-0.329,0.19
		c-0.662,0.382-1.324,0.764-1.986,1.147c-2.549,1.472-5.099,2.944-7.648,4.416C40.988,35.035,40.992,33.697,40.996,32.358z
		 M50.884,52.781c0,0.14-0.001,0.28-0.001,0.419c-0.021,0.013-0.036,0.023-0.063,0.038c-0.573,0.331-1.146,0.662-1.72,0.993
		c-2.727,1.574-5.454,3.149-8.181,4.723c0.004-1.542,0.009-3.084,0.013-4.625c3.321-1.917,6.642-3.835,9.963-5.752
		C50.892,49.979,50.888,51.38,50.884,52.781z M50.461,47.747c-3.175,1.833-6.35,3.666-9.524,5.499
		c0.006-1.991,0.011-3.983,0.017-5.974c0.009-3.271,0.019-6.542,0.028-9.814c2.886-1.666,5.771-3.332,8.657-4.998
		c0.172-0.099,0.523-0.248,0.897-0.431C50.548,37.266,50.503,42.507,50.461,47.747z M31.029,22.508
		c-5.795-3.346-11.59-6.692-17.385-10.037c-0.746-0.431-1.492-0.861-2.238-1.292c3.14-1.813,6.28-3.626,9.42-5.439
		c0.036,0.021,0.072,0.041,0.107,0.062c0,0,0,0,0,0c6.505,3.756,13.011,7.512,19.516,11.268
		C37.309,18.882,34.169,20.695,31.029,22.508z M16.47,2.555c1.333,0.77,2.666,1.539,3.999,2.309
		c-2.652,1.531-5.303,3.062-7.955,4.593c-0.621,0.359-1.242,0.717-1.863,1.076c-0.084,0.049-0.143,0.09-0.185,0.126
		c-0.033-0.033-0.083-0.071-0.157-0.113C9.03,9.806,7.75,9.067,6.47,8.328C9.803,6.404,13.137,4.479,16.47,2.555z M40.652,30.866
		c-0.167-0.753-0.416-1.473-0.791-2.146c3.226-1.862,6.452-3.725,9.677-5.587c0.421,0.626,0.724,1.321,0.866,2.102
		C47.154,27.112,43.903,28.989,40.652,30.866z M5.533,7.787C5.207,7.599,4.881,7.411,4.555,7.223
		C4.497,7.189,4.439,7.164,4.382,7.134c3.009-1.84,6.021-3.809,9.185-5.272c0.269-0.124,0.985,0.258,1.386,0.487
		C11.812,4.162,8.673,5.975,5.533,7.787z"/>
	<path class="st0" d="M29.757,38.18c0.029,0.025,0.061,0.048,0.1,0.068c0.04,0.025,0.079,0.042,0.118,0.054
		c1.634,0.768,3.548,0.293,3.664-1.822c0.133-2.432-1.256-4.849-3.289-6.141c-1.622-1.031-3.673-0.258-3.784,1.77
		C26.435,34.502,27.779,36.873,29.757,38.18z M30.33,37.44c-1.297-0.824-2.143-2.09-2.627-3.532
		c-0.572-1.705,0.054-3.843,2.174-2.76c1.314,0.671,2.175,2.193,2.624,3.533C33.072,36.384,32.45,38.523,30.33,37.44z"/>
	<path class="st0" d="M7.823,21.287c-0.131,2.391,1.211,4.763,3.188,6.07c0.029,0.025,0.061,0.048,0.1,0.068
		c0.04,0.025,0.079,0.042,0.118,0.054c1.634,0.768,3.55,0.295,3.666-1.821c0.133-2.433-1.258-4.851-3.291-6.143
		C9.982,18.485,7.933,19.261,7.823,21.287z M13.758,23.859c0.572,1.705-0.054,3.841-2.174,2.758
		c-1.296-0.823-2.142-2.09-2.624-3.531c-0.571-1.702,0.052-3.844,2.172-2.761C12.445,20.996,13.308,22.519,13.758,23.859z"/>
	<path class="st0" d="M20.383,32.768c0.029,0.025,0.061,0.048,0.1,0.068c0.04,0.025,0.079,0.042,0.118,0.054
		c1.635,0.768,3.55,0.296,3.666-1.821c0.133-2.434-1.257-4.85-3.291-6.143c-1.622-1.031-3.671-0.255-3.781,1.771
		C17.064,29.089,18.406,31.461,20.383,32.768z M20.956,32.028c-1.296-0.823-2.141-2.09-2.624-3.531
		c-0.571-1.702,0.052-3.844,2.172-2.761c1.314,0.672,2.178,2.193,2.627,3.534C23.702,30.976,23.076,33.111,20.956,32.028z"/>
</g>
</svg>
