<?xml version="1.0" encoding="utf-8"?>
<!-- Generator: Adobe Illustrator 21.1.0, SVG Export Plug-In . SVG Version: 6.00 Build 0)  -->
<svg version="1.1" id="Слой_1" xmlns="http://www.w3.org/2000/svg" xmlns:xlink="http://www.w3.org/1999/xlink" x="0px" y="0px"
	 viewBox="0 0 66.556 62.504" style="enable-background:new 0 0 66.556 62.504;" xml:space="preserve">
<style type="text/css">
	.st0{fill:#263238;}
</style>
<g>
	<g>
		<path class="st0" d="M40.763,38.722c0.142-0.158,0.263-0.345,0.37-0.548L40.763,38.722z"/>
		<path class="st0" d="M41.376,34.369c-0.046-0.199-0.099-0.398-0.159-0.597L41.376,34.369z"/>
		<path class="st0" d="M34.969,27.241c-0.429-0.039-0.826,0.01-1.181,0.141L34.969,27.241z"/>
		<path class="st0" d="M39.838,39.356c0.355-0.131,0.666-0.345,0.925-0.634L39.838,39.356z"/>
		<path class="st0" d="M39.203,29.982c0.1,0.124,0.197,0.25,0.292,0.379L39.203,29.982z"/>
		<path class="st0" d="M36.461,27.686c-0.364-0.178-0.716-0.303-1.053-0.377L36.461,27.686z"/>
		<path class="st0" d="M40.034,31.161c-0.169-0.275-0.349-0.543-0.539-0.8L40.034,31.161z"/>
		<path class="st0" d="M40.715,32.441c-0.066-0.146-0.136-0.291-0.208-0.435L40.715,32.441z"/>
		<path class="st0" d="M41.217,33.773c-0.045-0.149-0.094-0.298-0.146-0.447L41.217,33.773z"/>
		<path class="st0" d="M39.422,39.466c0.144-0.026,0.284-0.06,0.416-0.11L39.422,39.466z"/>
		<path class="st0" d="M58.951,40.976C57.028,27.888,48.565,14.394,37.085,7.659c-3.549-2.011-7.768-3.455-11.786-2.966
			c-0.642,0.397-1.273,0.8-1.893,1.192c4.474-1.473,9.374,0.248,13.278,2.461c6.851,4.019,12.131,10.326,15.976,17.195
			c3.871,6.916,6.412,15.006,5.813,22.993c-0.26,3.468-1.391,7.029-3.748,9.607c0.601-0.349,1.201-0.698,1.802-1.047
			c0.052-0.03,0.106-0.06,0.158-0.09C59.686,52.465,59.706,46.118,58.951,40.976z"/>
		<path class="st0" d="M30.952,51.469c4.897,4.605,12.796,9.166,19.462,5.547c6.936-4.221,6.446-13.901,4.691-20.754
			c-2.187-8.543-7.327-16.662-14.119-22.274c-5.118-4.229-13.19-7.85-19.135-3.138c-5.759,4.565-4.899,13.862-3.257,20.09
			c0.757,2.871,1.849,5.676,3.218,8.35c-0.303,0.176-0.606,0.352-0.909,0.528c0.045,0.087,0.09,0.177,0.136,0.264
			c0.2,0.383,0.102,0.863-0.285,1.088c-0.109,0.063-0.219,0.104-0.329,0.136c0.172,0.024,0.345,0.047,0.517,0.071
			c-3.169,1.815-6.337,3.63-9.506,5.445c-0.24,0.137-0.48,0.275-0.719,0.412c-0.036,0.02-0.061,0.037-0.082,0.052
			c-0.881-0.12-1.762-0.241-2.643-0.361c-0.459-0.063-0.918-0.125-1.377-0.188c-0.002,0.287-0.131,0.58-0.377,0.722
			c-0.01,0.006-0.021,0.012-0.031,0.018c0.621,0.085,1.242,0.17,1.863,0.255c0.09,0.012,0.178,0.026,0.266,0.04
			c-0.049,0.437,0.033,0.929,0.173,1.343c0.289,0.008,0.578,0.017,0.867,0.025c-0.104-0.206-0.184-0.425-0.246-0.641
			c-0.046-0.164-0.074-0.392-0.044-0.594c0.453,0.08,0.886,0.141,1.314,0.113c0.273,0.309,0.471,0.677,0.603,1.07
			c0.059,0.176,0.105,0.405,0.096,0.592c-0.005,0.103-0.006,0.144-0.012,0.181c0.209,0.238,0.274,0.566,0.094,0.899
			c-0.055,0.101-0.11,0.203-0.164,0.304c0.126-0.037,0.249-0.097,0.364-0.193c3.112-1.809,6.224-3.617,9.337-5.426
			c0.241-0.447,0.482-0.893,0.723-1.34c-3.177,1.846-6.353,3.692-9.53,5.538c0.008-0.479-0.143-0.998-0.397-1.467
			c-0.065-0.13-0.138-0.254-0.218-0.374c0.084-0.037,0.167-0.078,0.251-0.126c3.601-2.063,7.201-4.125,10.802-6.188
			c0.152-0.087,0.204-0.225,0.19-0.358c0.021-0.171-0.061-0.338-0.285-0.368c-0.008-0.001-0.015-0.002-0.023-0.003
			c-0.025-0.006-0.051-0.01-0.077-0.011c-0.342-0.047-0.683-0.093-1.025-0.14c2.052-1.193,4.105-2.386,6.157-3.578
			c1.671-0.971,3.343-1.943,5.014-2.914c0.905-0.526,1.809-1.051,2.714-1.577c0.262-0.152,0.586-0.442,0.907-0.431
			c0.848,0.028,1.444,1.285,1.564,1.992c0.01,0.057,0.01,0.116,0.013,0.174c0.006,0.461-0.125,0.572-0.528,0.806
			c-1.564,0.909-3.128,1.818-4.692,2.727c-1.682,0.978-3.365,1.955-5.047,2.933c-1.484,0.863-2.969,1.725-4.453,2.588
			c0.12,0.065,0.226,0.16,0.302,0.281c0.071,0.112,0.146,0.224,0.218,0.336c0.303-0.176,0.606-0.352,0.91-0.529
			C26.144,46.366,28.42,49.088,30.952,51.469z M38.285,34.382c0.007-0.034,0.012-0.07,0.01-0.11
			c-0.05-1.065-0.674-2.175-1.603-2.716c-0.45-0.262-0.927-0.318-1.403-0.098c-0.847,0.392-1.671,0.874-2.486,1.374
			c-0.096-0.313-0.183-0.629-0.252-0.953c-0.263-1.23-0.173-2.679,0.671-3.667c1.016-1.19,2.796-0.368,3.823,0.276
			c2.323,1.457,3.8,4.415,4.119,7.06c0.147,1.215-0.126,2.577-1.189,3.306c-1.391,0.953-3.335-0.488-4.318-1.346
			c-0.141-0.138-0.273-0.282-0.405-0.426C36.626,36.414,38.209,35.601,38.285,34.382z M39.838,39.356
			c0.355-0.131,0.666-0.345,0.925-0.634c0.142-0.158,0.263-0.345,0.37-0.548c-0.108,0.203-0.229,0.39-0.37,0.548
			C40.504,39.012,40.192,39.225,39.838,39.356c-0.132,0.049-0.272,0.084-0.416,0.11C39.565,39.44,39.705,39.406,39.838,39.356z
			 M41.071,33.326c-0.105-0.297-0.224-0.593-0.356-0.885c-0.066-0.146-0.136-0.291-0.208-0.435c-0.145-0.287-0.303-0.57-0.472-0.845
			c-0.169-0.275-0.349-0.543-0.539-0.8c-0.095-0.129-0.193-0.255-0.292-0.379c-0.698-0.866-1.509-1.599-2.375-2.099
			c-0.124-0.071-0.246-0.137-0.367-0.196c-0.364-0.178-0.716-0.303-1.053-0.377c0.337,0.074,0.689,0.199,1.053,0.377
			c0.121,0.059,0.244,0.125,0.367,0.196c0.866,0.5,1.676,1.233,2.375,2.099c0.1,0.124,0.197,0.25,0.292,0.379
			c0.19,0.258,0.37,0.525,0.539,0.8c0.169,0.275,0.327,0.557,0.472,0.845c0.073,0.144,0.142,0.289,0.208,0.435
			C40.847,32.733,40.967,33.028,41.071,33.326c0.052,0.149,0.101,0.298,0.146,0.447c0.06,0.199,0.113,0.398,0.159,0.597
			c0.046,0.199,0.085,0.397,0.116,0.593c0.063,0.394,0.095,0.783,0.094,1.161c-0.002,0.683-0.117,1.269-0.317,1.758
			c0.2-0.489,0.315-1.075,0.317-1.758c0.001-0.379-0.031-0.767-0.094-1.161c-0.031-0.197-0.07-0.395-0.116-0.593
			c-0.046-0.199-0.099-0.398-0.159-0.597C41.172,33.624,41.124,33.475,41.071,33.326z M33.788,27.382
			c0.355-0.131,0.752-0.18,1.181-0.141C34.54,27.202,34.143,27.251,33.788,27.382z M28.345,41.011
			c3.241,4.895,7.957,9.138,13.576,9.73c5.642,0.594,8.367-4.724,8.44-9.679c0.143-5.61-2.434-11.297-5.602-15.787
			c-2.893-4.099-7.58-8.612-12.861-9.071c-2.812-0.245-5.411,0.793-6.982,3.196C22.054,23.777,23.285,29.96,25,34.503
			c0.291,0.772,0.628,1.56,1.003,2.352c-0.512,0.298-1.024,0.595-1.536,0.893c-1.709-3.506-2.861-7.243-3.332-10.876
			c-0.504-3.884-0.13-8.368,2.526-11.451c2.497-2.898,6.441-2.932,9.823-1.85c4.499,1.439,8.254,4.975,11.181,8.552
			c3.001,3.666,5.245,7.977,6.679,12.482c0.461,1.448,0.793,2.937,1.035,4.436c0.624,4.348,0.515,10.279-3.392,13.195
			c-3.855,2.878-8.706,1.428-12.484-0.812c-3.823-2.268-7.114-5.637-9.676-9.531c0.459-0.266,0.917-0.533,1.376-0.799
			C28.25,41.067,28.297,41.039,28.345,41.011z M35.097,38.071c1.775,1.551,5.444,3.115,6.555-0.083
			c1.222-3.518-1.048-7.612-3.715-9.826c-2.097-1.741-5.109-1.917-6.103,0.97c-0.455,1.321-0.301,2.784,0.19,4.184
			c-0.375,0.233-0.749,0.464-1.123,0.688c-0.363-0.917-0.65-1.859-0.848-2.811c-0.413-1.987-0.334-4.403,1.119-5.962
			c1.466-1.572,3.857-0.849,5.463,0.029c3.664,2.001,6.113,6.314,6.938,10.284c0.413,1.988,0.334,4.404-1.119,5.963
			c-1.466,1.573-3.859,0.848-5.466-0.029c-1.432-0.867-2.677-2.013-3.715-3.331c0.251-0.146,0.502-0.291,0.752-0.437
			c0.146-0.085,0.31-0.171,0.482-0.259C34.704,37.672,34.901,37.879,35.097,38.071z M36.588,42.165
			c1.566,0.856,3.618,1.55,5.337,0.668c1.827-0.938,2.481-2.816,2.63-4.76c0.396-5.173-3.209-10.89-7.518-13.499
			c-1.505-0.911-3.667-1.523-5.335-0.667c-1.827,0.937-2.481,2.815-2.63,4.758c-0.147,1.92,0.258,3.916,1.045,5.8
			c-0.471,0.274-0.943,0.548-1.414,0.822c-0.752-1.709-1.304-3.477-1.63-5.199c-0.579-3.056-0.36-7.004,2.433-8.926
			c2.727-1.876,6.371-0.03,8.683,1.652c4.269,3.322,7.249,8.301,8.319,13.59c0.491,2.427,0.447,5.096-0.7,7.333
			c-1.805,3.519-5.975,2.777-8.829,1.212c-2.337-1.281-4.339-3.23-5.939-5.504c0.507-0.295,1.015-0.59,1.522-0.884
			C33.736,40.026,35.121,41.276,36.588,42.165z M35.721,45.1c1.258,0.875,2.695,1.55,4.175,1.83c1.435,0.271,2.912,0.171,4.31-0.487
			c2.596-1.221,3.327-4.506,3.382-7.084c0.136-6.468-3.879-13.275-8.88-17.145c-0.012-0.009-0.024-0.015-0.037-0.023
			c-0.014-0.013-0.027-0.027-0.044-0.039c-2.489-1.819-5.68-3.266-8.747-2.076c-2.698,1.047-3.636,4.072-3.825,6.696
			c-0.215,2.991,0.525,6.093,1.877,8.962c-0.383,0.223-0.767,0.446-1.15,0.669c-0.035,0.02-0.07,0.04-0.104,0.061
			c-0.049-0.1-0.097-0.2-0.145-0.301c-2.023-4.258-3.121-9.125-2.077-13.657c0.724-3.145,3.019-5.349,6.267-5.56
			c5.391-0.351,10.491,4.733,13.351,8.73c3.112,4.35,5.633,9.932,5.494,15.385c-0.054,3.682-1.466,7.71-5.187,8.701
			c-0.293,0.078-0.598,0.139-0.92,0.178c-5.888,0.707-11.287-4.881-14.371-9.361c0.432-0.251,0.863-0.502,1.295-0.753
			C31.926,41.919,33.767,43.741,35.721,45.1z M24.912,43.007c0.428-0.249,0.856-0.498,1.284-0.746
			C29.795,47.79,34.96,52.669,41.2,54.306c2.986,0.783,6.1,0.277,8.453-1.623c0.308-0.249,0.605-0.519,0.884-0.816
			c3.181-3.375,3.222-8.752,2.607-13.037c-1.355-8.413-6.018-16.479-12.514-21.969c-4.69-3.964-12.553-7.327-17.532-2.002
			c-2.142,2.291-2.808,5.6-2.923,8.628c-0.088,2.301,0.215,4.601,0.771,6.845c0.542,2.188,1.324,4.323,2.224,6.353
			c0.211,0.475,0.433,0.952,0.668,1.428c-0.449,0.261-0.898,0.522-1.347,0.783c-1.853-3.556-3.277-7.438-3.932-11.373
			c-0.534-3.208-0.557-6.45,0.121-9.578c0.71-3.274,2.564-6.233,5.636-7.714c3.997-1.926,8.761-0.294,12.357,1.724
			c8.414,4.721,14.38,13.962,17.225,22.978c1.815,5.75,2.822,14.187-1.327,19.185c-0.7,0.844-1.543,1.593-2.559,2.211
			c-4.41,2.394-9.473,0.756-13.504-1.624c-4.093-2.417-7.48-5.981-10.27-9.787C25.786,44.301,25.344,43.662,24.912,43.007z"/>
		<path class="st0" d="M54.789,12.536c-5.76-7.121-17.65-16.42-27.285-10.821c-2.195,1.276-4.391,2.552-6.586,3.827
			c-0.015,0.008-0.025,0.019-0.038,0.028c-5.414,3.333-6.97,9.909-6.799,15.894c0.181,6.344,2.162,12.543,4.968,18.204
			c-0.192-0.026-0.383-0.052-0.575-0.079c-1.181-0.161-2.363-0.323-3.544-0.484c-1.421-0.194-1.895,0.053-3.129,0.76
			c-3.331,1.908-6.662,3.816-9.992,5.724c-0.543,0.311-0.522,1.356,0.19,1.453c0.48,0.066,0.96,0.131,1.44,0.197
			c-1.017,0.587-2.034,1.174-3.051,1.761c-0.701,0.405-0.377,1.459,0.401,1.482c1.778,0.051,3.557,0.102,5.335,0.153
			c1.037,0.03,2.075,0.06,3.112,0.089c0.052,0.001,0.104,0.003,0.156,0.004c-1.362,2.523-2.724,5.047-4.086,7.571
			c-0.375,0.694,0.382,1.496,1.088,1.088c3.711-2.142,7.421-4.285,11.132-6.427c1.351-0.78,1.677-1.361,2.437-2.77
			c0.833-1.543,1.665-3.086,2.498-4.628c3.744,5.613,8.543,10.685,14.443,14.023c4.843,2.74,11.035,4.24,16.153,1.358
			c0.016-0.008,0.031-0.012,0.047-0.022c3.03-1.761,6.635-3.311,9.126-5.828c3.55-3.587,4.423-9.074,4.317-13.905
			C66.053,30.602,61.383,20.689,54.789,12.536z M60.825,54.253c-1.156,1.168-2.721,1.937-4.141,2.751
			c-0.052,0.03-0.106,0.06-0.158,0.09c-0.601,0.349-1.201,0.698-1.802,1.047c-0.787,0.458-1.575,0.915-2.362,1.373
			c-0.006,0.003-0.012,0.005-0.019,0.008c-4.832,2.776-10.491,0.997-15.006-1.517c-5.787-3.222-10.489-8.543-14.037-14.062
			c-0.072-0.112-0.147-0.224-0.218-0.336c-0.077-0.121-0.183-0.216-0.302-0.281c-0.361-0.196-0.85-0.128-1.071,0.281
			c-0.089,0.166-0.179,0.331-0.268,0.497c-0.241,0.447-0.482,0.893-0.723,1.34c-0.666,1.233-1.331,2.467-1.997,3.7
			c-0.333,0.616-0.665,1.232-0.998,1.848c-0.043,0.035-0.102,0.077-0.188,0.126c-0.329,0.19-0.657,0.38-0.986,0.569
			c-2.842,1.641-5.684,3.282-8.526,4.923c0.998-1.849,1.996-3.698,2.994-5.547c0.055-0.101,0.109-0.203,0.164-0.304
			c0.18-0.333,0.115-0.661-0.094-0.899c-0.099-0.113-0.227-0.207-0.381-0.269c-0.501-0.201-0.716-0.434-1.309-0.451
			c-0.007,0-0.014,0-0.021-0.001c-0.289-0.008-0.578-0.017-0.867-0.025c-0.692-0.02-1.384-0.04-2.076-0.06
			c-0.94-0.027-1.879-0.054-2.819-0.081c0.864-0.499,1.729-0.998,2.593-1.497c0.01-0.006,0.021-0.012,0.031-0.018
			c0.246-0.142,0.375-0.435,0.377-0.722c0.003-0.344-0.178-0.678-0.567-0.731c-0.476-0.065-0.951-0.13-1.427-0.195
			c2.66-1.524,5.321-3.048,7.981-4.572c0.404-0.231,0.807-0.463,1.211-0.694c0.023,0.003,0.045,0.005,0.071,0.009
			c0.473,0.065,0.946,0.129,1.419,0.194c1.181,0.161,2.363,0.323,3.544,0.484c0.55,0.075,1.071,0.219,1.578,0.074
			c0.11-0.032,0.22-0.072,0.329-0.136c0.387-0.225,0.486-0.705,0.285-1.088c-0.045-0.087-0.09-0.176-0.136-0.264
			c-2.717-5.242-5.197-11.546-5.197-17.528c0-5.746,0.607-12.096,6.047-15.393c0.004-0.002,0.006-0.005,0.01-0.008
			c0.538-0.314,1.086-0.654,1.642-1.005c0.62-0.392,1.252-0.795,1.893-1.192c2.202-1.361,4.524-2.623,6.952-2.911
			c5.135-0.607,10.052,1.952,14.09,4.85c9.083,6.519,15.299,17.409,17.802,28.146c0.491,2.104,0.714,4.257,0.815,6.412
			C65.059,45.852,64.229,50.813,60.825,54.253z M17.764,50.958C17.813,50.897,17.82,50.907,17.764,50.958L17.764,50.958z
			 M13.695,40.532C13.517,40.552,13.437,40.509,13.695,40.532L13.695,40.532z"/>
	</g>
</g>
</svg>
