<?xml version="1.0" encoding="utf-8"?>
<!-- Generator: Adobe Illustrator 21.1.0, SVG Export Plug-In . SVG Version: 6.00 Build 0)  -->
<svg version="1.1" id="Слой_1" xmlns="http://www.w3.org/2000/svg" xmlns:xlink="http://www.w3.org/1999/xlink" x="0px" y="0px"
	 viewBox="0 0 55.365 63.776" style="enable-background:new 0 0 55.365 63.776;" xml:space="preserve">
<style type="text/css">
	.st0{fill:#333333;}
</style>
<g>
	<path class="st0" d="M7.072,45.079c3.842,6.408,9.149,12.216,15.702,15.899c4.768,2.68,10.837,4.04,15.844,1.291
		c0.049-0.02,0.098-0.039,0.148-0.068c3.492-2.029,7.403-3.8,10.624-6.242c4.752-3.601,6.092-9.565,5.968-15.263
		C54.762,27.955,48.091,15.365,38.537,7.03c-4.416-3.853-9.809-6.828-15.765-7.024C17.83-0.158,13.225,3.57,9.177,5.923
		C8.399,6.375,7.621,6.827,6.843,7.279c-0.023,0.014-0.04,0.03-0.062,0.044C1.221,10.791-0.221,17.562,0.026,23.7
		C0.33,31.255,3.221,38.657,7.072,45.079z M4.267,10.143c2.282-2.574,5.129-3.687,8.115-3.829c0.328-0.19,0.655-0.381,0.983-0.571
		c1.859-1.08,3.728-2.398,5.748-3.168c0.725-0.276,1.466-0.459,2.215-0.564c1.949-0.274,3.957-0.012,5.904,0.583
		c0.41,0.126,0.818,0.266,1.222,0.419c2.529,0.958,4.909,2.418,6.865,3.91c1.518,1.158,2.968,2.433,4.343,3.804
		c0.237,0.236,0.471,0.476,0.704,0.718c1.618,1.686,3.121,3.506,4.489,5.434c0.188,0.266,0.376,0.532,0.56,0.802
		c0.352,0.519,0.693,1.046,1.025,1.579c0.172,0.275,0.342,0.552,0.508,0.831c0.589,0.985,1.145,1.99,1.662,3.014
		c0.147,0.291,0.29,0.583,0.431,0.876c2.54,5.29,4.102,11.015,4.368,16.716c0.016,0.735,0.004,1.484-0.036,2.236
		c-0.021,0.392-0.051,0.784-0.09,1.177c-0.152,1.545-0.45,3.081-0.954,4.525c-0.176,0.504-0.377,0.997-0.605,1.474
		c-0.836,1.747-2.041,3.29-3.736,4.451c-0.044,0.03-0.082,0.064-0.127,0.093c-1.603,1.063-3.277,2.039-4.965,2.99
		c-1.177,2.001-2.881,3.639-5.268,4.668c-7.137,3.077-15.081-1.156-20.442-5.84C10.19,50.359,4.85,41.983,2.226,33.067
		C0.142,25.989-1.085,16.181,4.267,10.143z"/>
	<path class="st0" d="M17.875,55.782c5.736,4.872,16.295,10.374,22.599,3.261c0.026-0.03,0.05-0.061,0.076-0.091
		c-0.81,0.451-1.617,0.905-2.416,1.365c-0.045,0.019-0.09,0.037-0.136,0.064c-4.876,2.904-10.697,1.016-15.224-1.651
		c-5.865-3.455-10.493-8.898-14.02-14.636c-3.581-5.825-6.099-12.5-6.711-19.336c-0.351-3.925,0.026-8.402,2.022-11.87
		c0.906-1.573,2.144-2.939,3.8-3.95C7.87,8.938,7.873,8.934,7.878,8.931c0.818-0.475,1.635-0.95,2.453-1.426
		c-1.886,0.428-3.644,1.374-5.109,3.026C0.511,15.846,0.939,24.18,2.567,30.624C4.974,40.146,10.35,49.392,17.875,55.782z"/>
	<path class="st0" d="M23.419,17.949c-0.02,0.137,0.012,0.282,0.121,0.4c0.003,0.003,0.006,0.007,0.009,0.01
		c0.312,0.338,0.617,0.683,0.919,1.032c0.115,0.133,0.227,0.27,0.34,0.405c0.183,0.217,0.364,0.434,0.543,0.655
		c0.145,0.18,0.287,0.362,0.43,0.545c0.135,0.173,0.269,0.346,0.401,0.521c0.166,0.22,0.33,0.442,0.492,0.666
		c0.092,0.127,0.182,0.255,0.273,0.383c0.19,0.27,0.38,0.541,0.563,0.815c0.033,0.049,0.065,0.099,0.098,0.148
		c1.887,2.844,3.411,5.927,4.45,9.172c0.73,2.311,1.207,4.699,1.367,7.132c0,0.001,0,0.001,0,0.002
		c0.018,0.269,0.232,0.5,0.499,0.489c0.038-0.002,0.078-0.008,0.117-0.02c0.643-0.193,1.245-0.425,1.822-0.709
		c0.144-0.071,0.287-0.145,0.428-0.223c0.283-0.155,0.56-0.324,0.835-0.507c0.137-0.092,0.274-0.187,0.41-0.287
		c0.034-0.025,0.062-0.051,0.087-0.08c0.02-0.02,0.038-0.041,0.054-0.063c0.02-0.026,0.038-0.053,0.052-0.083
		c0.003-0.006,0.007-0.011,0.009-0.016c0.017-0.039,0.027-0.083,0.032-0.128c0.001-0.01,0.002-0.021,0.002-0.032
		c0.002-0.047,0-0.095-0.013-0.147c-0.365-1.5-0.831-2.992-1.391-4.458c-0.374-0.977-0.79-1.943-1.246-2.891
		c-0.357-0.741-0.746-1.467-1.152-2.184c-1.035-1.827-2.227-3.564-3.564-5.171c-0.459-0.551-0.93-1.091-1.423-1.609
		c-0.031-0.033-0.06-0.068-0.092-0.101c-1.448-1.51-3.039-2.869-4.76-4.032c-0.293-0.198-0.586-0.01-0.683,0.255
		c-0.006,0.017-0.011,0.034-0.015,0.051C23.427,17.909,23.422,17.929,23.419,17.949z M34.348,39.201
		c-0.086-1.005-0.214-2-0.384-2.998c-1.037-5.321-3.395-10.321-6.584-14.699c1.958,1.927,3.642,4.128,5.109,6.469
		c1.221,1.948,2.221,4.032,3.057,6.17c0.378,0.968,0.686,1.961,0.972,2.959C36.886,38.384,35.487,38.871,34.348,39.201z"/>
	<path class="st0" d="M22.566,38.356c-0.433-0.433-1.142-0.757-1.648-1.109c-1.024-0.713-1.981-1.515-2.919-2.336
		c-1.536-1.345-2.926-2.848-4.239-4.41c0.22,0.23,0.441,0.455,0.638,0.684c1.809,2.101,3.874,3.984,6.143,5.577
		c0.05,0.035,0.1,0.071,0.15,0.107c0.423,0.294,0.851,0.58,1.288,0.853c0.202,0.126,0.397,0.084,0.533-0.035
		c0.116-0.077,0.199-0.204,0.2-0.386c0.018-6.296,0.036-12.592,0.054-18.887c0-0.07-0.014-0.135-0.039-0.192
		c-0.075-0.172-0.25-0.28-0.448-0.295c-0.001,0-0.002,0-0.003,0c-0.267-0.021-0.527-0.027-0.783-0.027c-0.039,0-0.078,0-0.117,0.001
		c-1.675,0.019-3.109,0.47-4.306,1.235c-0.03,0.019-0.06,0.039-0.09,0.059c-0.109,0.072-0.216,0.146-0.322,0.223
		c-1.688,1.201-2.937,3.04-3.627,5.267c-0.337,1.088-0.465,2.236-0.549,3.367c-0.006,0.076-0.006,0.15-0.003,0.223
		c-0.008,0.123-0.016,0.245-0.021,0.368c-0.007,0.173,0.063,0.296,0.166,0.374c0.02,0.026,0.042,0.051,0.062,0.077
		c0.128,0.274,0.304,0.53,0.505,0.776c-0.135-0.08-0.282-0.065-0.406,0.009c-0.176,0.054-0.314,0.201-0.297,0.445
		c0.032,0.466,0.076,0.934,0.132,1.403c0.01,0.085,0.025,0.169,0.036,0.254c0.224,1.752,0.607,3.515,1.139,5.251
		c-0.059-0.173-0.121-0.344-0.178-0.519c-0.846-2.59-1.332-5.295-1.414-8.017c-0.01-0.343-0.293-0.791-0.628-1.23
		c0.029,0.008,0.06,0.013,0.091,0.016c0.136,0.025,0.273-0.008,0.382-0.093c0.15-0.098,0.245-0.263,0.204-0.447
		c0.059-0.666,0.156-1.317,0.295-1.946c1.009-4.574,4.134-8,9.361-7.645c0.177,0.012,0.317-0.084,0.4-0.219
		c0.138-0.225,0.118-0.56-0.155-0.689c-0.855-0.403-1.714-0.75-2.615-1.037c-0.934-0.251-1.872-0.403-2.795-0.445
		c-0.09-0.005-0.18-0.01-0.27-0.013c-0.012,0-0.023,0-0.035,0c-1.847-0.05-3.67,0.386-5.318,1.549
		c-0.396,0.279-0.749,0.601-1.07,0.95c-0.786,0.812-1.349,1.817-1.775,2.866c-0.062,0.146-0.125,0.292-0.182,0.439
		c-0.029,0.075-0.045,0.142-0.064,0.211c-0.037,0.105-0.076,0.209-0.111,0.314c-0.102,0.308,0.105,0.764,0.371,1.205
		c-0.261-0.152-0.672-0.065-0.727,0.275c-1.152,7.102,1.477,14.398,5.319,20.29c2.306,3.386,5.066,6.386,8.434,8.738
		c0.361,0.252,0.702-0.082,0.708-0.431c0.002-0.116-0.034-0.235-0.118-0.334c-0.333-0.39-0.656-0.783-0.975-1.177
		c0.298,0.324,0.602,0.64,0.913,0.947c0,0,0.001,0,0.001,0.001c0.006,0.006,0.013,0.011,0.02,0.017
		c0.157,0.147,0.342,0.156,0.495,0.085c0.019-0.007,0.035-0.017,0.053-0.027c0.027-0.012,0.052-0.027,0.075-0.044
		c0.001-0.001,0.003-0.002,0.004-0.003c0.072-0.053,0.128-0.127,0.158-0.223c0-0.001,0.001-0.002,0.001-0.004
		c0.014-0.045,0.023-0.093,0.023-0.148c0.006-2.189,0.012-4.379,0.019-6.568c0-0.012,0-0.025,0-0.037
		c0.003-1.224,0.007-2.447,0.01-3.671c0.001-0.231,0.062-0.588,0.075-0.936C22.793,38.886,22.758,38.548,22.566,38.356z
		 M8.331,24.406c0-0.002,0-0.004,0.001-0.006c0.336,0.579,0.678,1.155,1.034,1.724c0.203,0.325,0.526,0.719,0.848,1.139
		c0.55,0.977,0.975,1.988,1.097,3.06c0.031,0.377,0.072,0.752,0.121,1.128c0.003,0.027,0.007,0.054,0.01,0.081
		c0.021,0.157,0.045,0.314,0.069,0.471c0.172,1.167,0.422,2.323,0.732,3.463c0.018,0.07,0.035,0.14,0.053,0.209
		c1.161,4.402,3.254,8.517,5.867,12.228c-1.653-1.619-3.126-3.419-4.44-5.348C10.29,37.289,7.761,30.795,8.331,24.406z
		 M19.558,16.465c-4.607,0.701-7.344,4.521-8.119,9.201c-0.817-1.254-1.581-2.537-2.293-3.858c-0.699-1.295,1.359-3.484,2.206-4.257
		C13.605,15.492,16.778,15.6,19.558,16.465z M9.009,23.58c0.024,0.043,0.05,0.085,0.075,0.128c0.111,0.194,0.223,0.389,0.338,0.581
		c0.136,0.231,0.276,0.459,0.417,0.687c0.052,0.084,0.103,0.168,0.156,0.251c0.184,0.292,0.371,0.583,0.561,0.872
		c0.033,0.05,0.065,0.1,0.098,0.15c0.098,0.148,0.198,0.295,0.297,0.443c-0.149-0.181-0.281-0.346-0.371-0.482
		c-0.646-0.972-1.238-1.98-1.807-2.999C8.869,23.355,8.954,23.482,9.009,23.58z M13.61,31.82c2.043,2.332,4.295,4.44,6.816,6.269
		c0.921,0.668,1.308,0.853,1.304,2.081c-0.003,1.224-0.007,2.447-0.01,3.671c-0.005,1.801-0.01,3.602-0.015,5.402
		C17.386,44.588,14.396,38.116,13.61,31.82z M21.791,18.877c-0.017,5.84-0.033,11.68-0.05,17.52
		c-3.21-2.143-5.917-4.877-8.301-7.909C13.697,23.477,16.335,18.732,21.791,18.877z"/>
	<path class="st0" d="M23.416,51.648C23.416,51.648,23.416,51.648,23.416,51.648c0.376,0.028,0.742,0.036,1.097,0.024
		c0.355-0.012,0.699-0.044,1.033-0.095c1.835-0.277,3.347-1.115,4.532-2.321c0.108-0.11,0.213-0.222,0.315-0.338
		c0.579-0.655,1.07-1.404,1.475-2.218c0.046-0.093,0.092-0.187,0.136-0.282c0.095-0.205,0.185-0.413,0.269-0.625
		c0.033-0.084,0.066-0.169,0.098-0.254c0.099-0.266,0.192-0.537,0.274-0.813c0.191-0.636,0.337-1.296,0.439-1.97
		c0.051-0.337,0.091-0.677,0.12-1.02v0l0,0c0.015-0.179-0.055-0.304-0.162-0.38c-0.077-0.071-0.185-0.115-0.325-0.107
		c-0.403,0.025-0.802,0.031-1.197,0.021c-0.198-0.005-0.394-0.014-0.59-0.027c-0.392-0.026-0.78-0.069-1.164-0.126
		c-0.192-0.029-0.384-0.061-0.574-0.097c-0.762-0.144-1.511-0.346-2.249-0.597c-0.184-0.063-0.368-0.128-0.551-0.197
		c-0.366-0.137-0.729-0.285-1.089-0.444c-0.18-0.079-0.36-0.161-0.539-0.246c-0.358-0.169-0.713-0.348-1.066-0.535
		c-0.045-0.024-0.091-0.039-0.138-0.048c-0.291-0.06-0.594,0.141-0.595,0.469c-0.011,3.902-0.022,7.804-0.033,11.706
		c0,0.011,0,0.022,0,0.033l0,0l0,0v0c-0.001,0.223,0.123,0.365,0.281,0.43c0.017,0.008,0.035,0.014,0.053,0.02
		C23.31,51.629,23.359,51.644,23.416,51.648z M32.177,42.245c-0.035,0.294-0.079,0.586-0.132,0.874
		c-0.083,0.453-0.189,0.897-0.317,1.328c-0.17,0.576-0.38,1.129-0.629,1.653c-0.249,0.524-0.537,1.018-0.865,1.474
		c-1.229,1.709-3.011,2.883-5.349,3.093c-0.156,0.014-0.314,0.024-0.475,0.029c-0.166,0.005-0.335,0.006-0.506,0.002
		c0.01-3.494,0.02-6.989,0.03-10.483C26.527,41.493,29.268,42.312,32.177,42.245z"/>
	<path class="st0" d="M17.186,56.471c5.36,4.683,13.305,8.917,20.442,5.84c2.388-1.029,4.091-2.667,5.268-4.668
		c0.588-0.999,1.044-2.089,1.388-3.239c0.609-0.351,1.217-0.703,1.826-1.054c1.128-0.651,2.255-1.302,3.383-1.953
		c0.744-0.43,1.488-0.859,2.232-1.288c0.229-0.478,0.429-0.97,0.605-1.474c-0.215,0.124-0.429,0.248-0.644,0.372
		c-1.116,0.644-2.231,1.288-3.347,1.932c-1.239,0.716-2.479,1.431-3.718,2.147c0.302-1.372,0.468-2.806,0.522-4.261
		c0.001-0.005,0.002-0.011,0.002-0.015c0.796-0.46,1.593-0.92,2.389-1.379c1.917-1.107,3.833-2.213,5.75-3.32
		c0.039-0.392,0.069-0.785,0.09-1.177c-2.208,1.275-4.417,2.55-6.625,3.825c-0.46,0.265-1.056,0.517-1.588,0.817
		c-0.018-3.958-0.774-7.954-1.691-11.067c-0.757-2.571-1.746-5.128-2.942-7.611c2.838-1.638,5.676-3.277,8.514-4.915
		c-0.141-0.293-0.284-0.585-0.431-0.876c-2.838,1.639-5.676,3.277-8.514,4.916c-0.516-1.022-1.068-2.029-1.654-3.019
		c2.835-1.637,5.671-3.274,8.506-4.911c-0.167-0.279-0.336-0.556-0.508-0.831c-2.834,1.636-5.668,3.272-8.502,4.909
		c-0.33-0.534-0.669-1.062-1.018-1.583c2.832-1.635,5.664-3.27,8.495-4.905c-0.183-0.27-0.371-0.536-0.56-0.802
		c-2.829,1.633-5.658,3.267-8.487,4.9c-1.35-1.93-2.837-3.76-4.446-5.459c2.469-1.425,4.938-2.851,7.406-4.276
		c0.346-0.2,0.692-0.4,1.038-0.6c-0.232-0.242-0.467-0.482-0.704-0.718c-2.813,1.624-5.627,3.248-8.44,4.873
		c-2.433-2.455-5.131-4.607-8.058-6.33c-0.928-0.524-1.901-1.001-2.902-1.413c0.424-0.275,0.831-0.594,1.116-0.758
		c2.358-1.362,4.717-2.723,7.075-4.085c-0.404-0.153-0.811-0.294-1.222-0.419c-1.922,1.11-3.844,2.219-5.766,3.329
		c-0.595,0.344-1.19,0.687-1.785,1.031c-0.551,0.318-0.579,0.406-0.975,0.258c-1.437-0.536-3.058-0.893-4.648-0.985
		c2.053-1.186,4.107-2.371,6.16-3.557c0.428-0.247,0.783-0.474,1.111-0.659c-0.749,0.105-1.49,0.288-2.215,0.564
		c-2.021,0.769-3.889,2.087-5.748,3.168c-0.328,0.19-0.655,0.381-0.983,0.571c-2.986,0.142-5.833,1.256-8.115,3.829
		c-5.353,6.038-4.125,15.846-2.041,22.925C4.85,41.983,10.19,50.359,17.186,56.471z M5.222,10.532
		c1.465-1.652,3.223-2.598,5.109-3.026c1.98-0.45,4.101-0.327,6.175,0.153c0.766,0.259,1.566,0.595,2.283,0.672
		c1.37,0.487,2.685,1.102,3.885,1.779c2.942,1.733,5.604,3.895,7.99,6.347c0.022,0.044,0.048,0.087,0.084,0.124
		c1.834,1.892,3.485,3.963,4.974,6.136c0.036,0.053,0.08,0.098,0.128,0.134c0.483,0.714,0.945,1.442,1.392,2.179
		c0.01,0.029,0.014,0.06,0.03,0.087c0.571,0.939,1.125,1.893,1.637,2.867c0.85,1.628,1.616,3.292,2.293,4.972
		c1.765,4.38,3.259,9.961,3.108,15.232c-0.311,0.325-0.185,1.15-0.216,1.538c-0.055,0.694-0.149,1.395-0.28,2.089
		c-0.142,0.756-0.329,1.503-0.568,2.223c-0.029,0.087-0.025,0.168-0.005,0.244c-0.601,1.694-1.476,3.273-2.692,4.669
		c-0.026,0.03-0.049,0.061-0.076,0.091c-6.305,7.113-16.863,1.611-22.599-3.261c-7.524-6.391-12.9-15.636-15.307-25.158
		C0.939,24.18,0.511,15.846,5.222,10.532z"/>
	<path class="st0" d="M6.131,23.173c-0.075,0.805-0.105,1.613-0.102,2.421c0,0.066,0,0.132,0.001,0.198
		c0.002,0.205,0.008,0.411,0.015,0.616c0.001,0.023,0.001,0.047,0.002,0.07c0.001,0.021,0.003,0.042,0.004,0.062
		c0.252,6.153,2.663,12.304,6.243,17.486c4.369,6.545,11.987,13.638,19.963,12.036c4.093-0.822,6.093-3.891,6.876-7.561
		c0.168-0.788,0.279-1.604,0.344-2.432c0.172-1.382,0.192-2.802,0.067-4.189c-0.835-9.233-6.174-18.616-13.557-24.331
		c-4.842-3.863-10.839-6.278-15.896-2.414c-0.987,0.754-1.749,1.69-2.339,2.73c-0.341,0.603-0.624,1.241-0.853,1.903
		C6.497,20.859,6.24,22.012,6.131,23.173z M28.612,55.202c-0.36-0.067-0.715-0.148-1.067-0.236
		c-4.627-1.331-9.418-5.334-11.955-8.242c-1.033-1.184-1.973-2.443-2.827-3.76c-1.356-2.143-2.492-4.393-3.391-6.605
		c-0.007-0.018-0.014-0.035-0.021-0.053c-0.052-0.128-0.1-0.255-0.15-0.382c-0.326-0.844-0.626-1.698-0.897-2.559
		c-0.367-1.164-0.681-2.382-0.914-3.623c-0.01-0.052-0.02-0.105-0.029-0.157c-0.034-0.186-0.063-0.374-0.093-0.561
		c-0.029-0.185-0.058-0.37-0.083-0.556c-0.006-0.044-0.011-0.089-0.017-0.133c-0.292-2.293-0.257-4.615,0.26-6.843
		C7.69,20.42,8.068,19.377,8.6,18.388c0.11-0.205,0.23-0.394,0.351-0.581c1.403-2.031,3.53-3.19,5.948-3.424
		c1.523-0.114,3.126,0.126,4.666,0.634c1.189,0.393,2.328,0.929,3.418,1.568c2.74,1.64,5.152,3.955,7.16,6.294
		c0.646,0.775,1.254,1.566,1.821,2.358c1.193,1.732,2.385,3.716,3.433,5.844c0.924,1.975,1.685,4.022,2.272,6.09
		c1.151,4.059,1.509,8.478,0.083,12.506c-0.23,0.584-0.498,1.158-0.813,1.718c-0.048,0.086-0.098,0.167-0.148,0.25
		C35.035,54.341,31.979,55.667,28.612,55.202z"/>
	<path class="st0" d="M38.126,39.897c0-0.002-0.001-0.005-0.001-0.008v0c-0.033-0.221-0.174-0.328-0.337-0.348
		c-0.113-0.038-0.244-0.028-0.378,0.057c-0.989,0.629-2.005,1.073-3.117,1.377c-0.159,0.043-0.32,0.084-0.483,0.122
		c-0.216,0.05-0.35,0.259-0.358,0.47c-0.006,0.165-0.014,0.329-0.023,0.493c-0.037,0.655-0.102,1.304-0.201,1.942
		c-0.149,0.957-0.378,1.893-0.716,2.795c-0.113,0.301-0.237,0.598-0.375,0.892c-0.207,0.44-0.443,0.871-0.713,1.293
		c-0.496,0.774-1.116,1.39-1.819,1.874c-1.54,1.059-3.48,1.482-5.39,1.543c-0.008,0-0.017,0.001-0.025,0.001
		c-0.391,0.012-0.644,0.536-0.388,0.808c0.011,0.012,0.03,0.019,0.043,0.03c0.03,0.025,0.058,0.051,0.099,0.069
		c0.001,0,0.001,0,0.002,0.001c1.787,0.809,3.575,1.352,5.545,1.405c1.114-0.037,2.101-0.239,2.979-0.569
		c0.982-0.352,1.922-0.899,2.789-1.692C38.618,49.382,38.734,44.035,38.126,39.897z M31.773,50.086
		c0.271-0.32,0.527-0.667,0.766-1.041c0.691-1.08,1.117-2.322,1.406-3.578c0.097-0.418,0.178-0.838,0.25-1.254
		c0.045-0.262,0.032-0.811,0.082-1.311c0.006-0.063,0.014-0.124,0.022-0.185c0.059-0.423,0.179-0.777,0.439-0.837
		c0.851-0.197,1.657-0.561,2.418-0.992c0.04-0.023,0.08-0.047,0.12-0.07c0.433,3.557,0.168,7.425-2.132,10.327
		c-2.217,2.798-5.732,2.953-8.872,2.009c1.357-0.25,2.604-0.716,3.701-1.453C30.629,51.262,31.231,50.727,31.773,50.086z"/>
	<path class="st0" d="M22.967,37.998c0,0.164,0.091,0.344,0.241,0.42c1.305,0.666,2.648,1.233,4.028,1.627
		c0.591,0.169,1.19,0.306,1.795,0.406c0.807,0.133,1.627,0.2,2.459,0.187c0.208-0.003,0.417-0.012,0.626-0.025
		c0.21-0.013,0.42-0.032,0.631-0.056c0.257-0.029,0.496-0.199,0.487-0.487c0,0,0-0.001,0-0.001c-0.004-0.133-0.008-0.267-0.012-0.4
		c-0.009-0.154-0.027-0.306-0.038-0.46c-0.452-7.094-3.79-13.957-8.37-19.336c-0.244-0.287-0.496-0.567-0.748-0.846
		c-0.052-0.058-0.102-0.117-0.154-0.175c-0.017-0.024-0.036-0.045-0.057-0.065c-0.001-0.001-0.001-0.002-0.002-0.002
		c0,0-0.001,0-0.001-0.001c-0.005-0.004-0.01-0.009-0.015-0.013c-0.175-0.178-0.39-0.168-0.555-0.062
		c-0.148,0.069-0.261,0.207-0.261,0.42l0,0C23.002,25.419,22.985,31.708,22.967,37.998z M32.244,39.625
		c-1.838,0.135-3.598-0.137-5.377-0.683c-0.657-0.201-2.927-0.703-2.924-1.699c0.004-1.258,0.007-2.516,0.011-3.773
		c0.012-4.354,0.025-8.707,0.037-13.061C28.579,25.756,31.825,32.55,32.244,39.625z"/>
</g>
</svg>
