<?xml version="1.0" encoding="utf-8"?>
<!-- Generator: Adobe Illustrator 21.1.0, SVG Export Plug-In . SVG Version: 6.00 Build 0)  -->
<svg version="1.1" id="Слой_1" xmlns="http://www.w3.org/2000/svg" xmlns:xlink="http://www.w3.org/1999/xlink" x="0px" y="0px"
	 viewBox="0 0 52.445 65" style="enable-background:new 0 0 52.445 65;" xml:space="preserve">
<style type="text/css">
	.st0{fill:#333333;}
</style>
<g>
	<path class="st0" d="M40.862,9.801C36.99,7.43,32.992,5.247,29.06,2.976c-2.64-1.524-5.572-3.361-8.766-2.906
		c-2.71,0.386-5.207,2.373-7.514,3.714C9.75,5.545,6.721,7.306,3.691,9.066C3.624,9.105,3.566,9.149,3.515,9.195
		c-4.38,2.99-3.341,9.722-3.354,14.372c-0.013,4.735-0.493,9.761,0.271,14.458c1.158,7.122,6.122,13.447,12.266,16.994
		c4.509,2.603,9.019,5.207,13.528,7.81c1.342,0.775,3.502,2.552,5.176,2.099c0.124-0.015,0.256-0.058,0.393-0.137
		c3.23-1.877,6.459-3.754,9.689-5.631c1.429-0.83,2.857-1.66,4.286-2.491c0.599-0.348,1.001-0.883,1.137-1.564
		c0.414-2.069-0.211-4.092-1.637-5.489c3.074-1.624,6.529-3.162,6.92-6.959c0.465-4.512,0.164-9.241,0.102-13.773
		C51.938,21.29,47.327,13.76,40.862,9.801z M50.413,41.862c-0.032,1.372-0.274,2.754-1.524,3.481
		c-1.921,1.117-3.843,2.233-5.764,3.35c-0.434,0.252-0.549,0.795-0.351,1.207l-5.947,3.456c0.85-1.445,0.811-3.48,0.815-5.066
		c0.015-5.19,0.651-10.849-0.729-15.909c-0.022-0.082-0.05-0.164-0.074-0.246c4.311-2.489,8.622-4.978,12.933-7.467
		c0.377,1.384,0.613,2.799,0.679,4.215C50.508,33.203,50.514,37.543,50.413,41.862z M23.486,59.642
		c-3.912-2.259-7.932-4.394-11.746-6.816C5.127,48.626,1.446,40.914,1.468,33.249c0.015-5.162,0.029-10.324,0.044-15.486
		c0.009-3.058,0.37-6.653,3.638-7.908c2.902-1.114,5.95,0.697,8.407,2.116c4.003,2.311,8.005,4.622,12.008,6.933
		c0.003,0.002,0.007,0.004,0.01,0.006c6.651,3.967,11.195,11.543,11.173,19.318c-0.007,2.446-0.014,4.892-0.021,7.338
		c-0.006,2.289,0.357,5.177-0.716,7.259c-1.268,2.461-4.446,1.236-6.24,0.255c-1.922-1.051-3.481-2.746-4.952-4.339
		c-0.426-0.461-1.976-0.562-2.588-0.719c-1.387-0.357-2.705-0.946-3.973-1.601c-2.315-1.195-4.179-3.034-5.589-5.204
		c-2.13-3.278-3.615-11.867,2.915-9.831c2.214,0.691,4.351,2.335,6.345,3.486c0.373,0.216,0.747-0.136,0.677-0.52
		c-0.472-2.572-3.558-3.68-5.585-4.85c-0.766-0.442-1.531-0.884-2.297-1.326c-1.22-0.704-1.949-2.123-1.945-3.508
		c0.002-0.83,0.545-2.176,1.684-1.519c1.883,1.087,3.766,2.174,5.649,3.262c3.943,2.276,7.176,6.915,7.162,11.568
		c-0.006,2.26-0.013,4.519-0.019,6.779c-0.003,1.223-0.024,1.416,0.903,2.312c0.597,0.577,2.515,2.07,3.358,1.092
		c1.035-1.202,0.56-4.011,0.564-5.464c0.007-2.618,0.015-5.235,0.022-7.853c0.009-3.295-1.26-6.235-3.443-8.681
		c-1.435-1.607-3.431-2.577-5.269-3.638c-2.494-1.44-4.988-2.88-7.482-4.32c-1.628-0.94-3.29-2.112-5.108-2.645
		c-5.401-1.583-4.644,5.935-4.654,9.167c-0.013,4.709-0.373,9.553,0.02,14.249c0.311,3.718,2.829,7.421,6.031,9.27
		c1.37,0.791,2.739,1.581,4.109,2.372c4.308,2.488,8.617,4.975,12.925,7.462c1.334,0.77,2.211,2.087,2.206,3.662
		c-0.004,1.286-1.047,1.887-2.073,1.294C27.405,61.904,25.446,60.773,23.486,59.642z M36.562,31.23
		c-0.344-1.035-0.766-2.049-1.257-3.033c4.319-2.494,8.638-4.987,12.957-7.481c0.486,0.983,0.904,2.002,1.239,3.044
		c-0.448,0.259-0.896,0.517-1.343,0.776c-1.625,0.938-3.251,1.877-4.876,2.815C41.042,28.643,38.802,29.936,36.562,31.23z
		 M45.178,16.025c0.431,0.504,0.839,1.034,1.228,1.58c-4.318,2.493-8.635,4.986-12.953,7.478c-0.665-0.953-1.398-1.86-2.187-2.711
		c-0.736-0.808-1.529-1.563-2.369-2.252c3.517-2.03,7.034-4.061,10.55-6.091c0.745-0.43,1.489-0.86,2.234-1.29
		C42.927,13.694,44.096,14.758,45.178,16.025z M24.877,2.771c0.973,0.458,1.931,0.956,2.881,1.475
		c-2.984,1.723-5.967,3.445-8.951,5.168c-1.306,0.754-2.612,1.508-3.918,2.262c-0.222-0.128-0.444-0.256-0.666-0.384
		c-0.002-0.001-0.005-0.003-0.007-0.004c-0.362-0.209-0.725-0.418-1.087-0.628c-0.508-0.293-1.023-0.577-1.552-0.831
		c2.471-1.427,4.943-2.854,7.414-4.281c1.653-0.955,3.307-1.909,4.96-2.864c0.102-0.059,0.204-0.118,0.306-0.177
		C24.468,2.589,24.676,2.676,24.877,2.771z M43.28,50.381c0.992,0.627,1.652,1.576,1.855,2.688
		c-0.464,0.268-0.928,0.536-1.392,0.804c-1.624,0.938-3.248,1.875-4.873,2.813c-2.221,1.282-4.442,2.565-6.664,3.847
		c-0.275-1.084-0.887-2.045-1.76-2.743C34.724,55.32,39.002,52.85,43.28,50.381z M9.857,16.336c1.871,0.009,4.302,1.922,5.864,2.825
		c2.486,1.435,4.972,2.871,7.458,4.306c1.585,0.915,3.055,1.781,4.338,2.954c-1.159,0.669-2.319,1.339-3.478,2.008
		c-0.632-0.671-1.305-1.288-2.002-1.835c-1.926-1.511-4.271-2.602-6.384-3.822c-0.768-0.444-1.468-0.918-2.391-0.899
		c-1.244,0.026-1.401,1.571-1.404,2.477c-0.008,2.941,1.813,4.283,4.102,5.604c1.442,0.832,3.942,1.824,5.131,3.338
		c-1.516-0.937-3.059-1.93-4.683-2.567c-1.036-0.406-2.094-0.577-3.052-0.482c-0.108-0.127-0.215-0.255-0.323-0.382
		c-0.416,0.242-0.832,0.483-1.248,0.725c-0.109,0.063-0.172,0.149-0.201,0.242c-0.908,0.579-1.551,1.581-1.701,3.09
		c-0.226,2.269,0.291,4.461,1.276,6.447c-1.045,0.603-2.09,1.207-3.135,1.81c-0.657-1.548-0.997-3.235-0.992-4.893
		c0.014-4.951,0.028-9.902,0.042-14.853c0-0.015,0-0.03,0-0.045C7.076,20.094,6.65,16.321,9.857,16.336z M31.175,37.038
		c-0.008,2.756-0.016,5.512-0.023,8.267c-0.002,0.835,0.07,1.905-0.574,2.012c-0.253,0.042-0.614-0.061-1.139-0.393
		c-0.477-0.302-0.797-0.55-0.997-0.859c0.133-0.077,0.266-0.155,0.4-0.232c-0.218-0.189-0.435-0.378-0.652-0.568
		c-0.008-0.094-0.014-0.191-0.014-0.298c0.001-0.295,0.002-0.591,0.003-0.886c0.007-2.378,0.149-4.797-0.031-7.17
		c-0.113-1.478-0.542-2.922-1.19-4.279c1.151-0.665,2.302-1.329,3.453-1.994C31.148,32.667,31.182,34.796,31.175,37.038z
		 M26.537,31.81c-0.441-0.792-0.957-1.546-1.522-2.256c-0.031-0.04-0.064-0.08-0.096-0.12c-0.083-0.102-0.166-0.204-0.251-0.304
		c1.176-0.679,2.353-1.358,3.529-2.037c0.391,0.419,0.763,0.874,1.109,1.382c0.293,0.431,0.537,0.866,0.746,1.306
		C28.88,30.457,27.708,31.134,26.537,31.81z M10.372,45.644c-0.029-0.035-0.088-0.092-0.192-0.2
		c-0.262-0.275-0.508-0.574-0.738-0.875c-0.377-0.494-0.71-1.019-1.012-1.563c1.054-0.609,2.108-1.217,3.162-1.826
		c0.545,0.944,1.195,1.832,1.917,2.652C12.464,44.436,11.418,45.04,10.372,45.644z M29.586,57.223
		c-0.029-0.017-0.057-0.036-0.086-0.053c-4.421-2.553-8.843-5.105-13.264-7.658c-1.348-0.778-2.711-1.534-4.038-2.348
		c-0.41-0.252-0.797-0.534-1.16-0.839c1.039-0.6,2.078-1.2,3.117-1.8c0.091,0.093,0.179,0.187,0.272,0.278
		c1.465,1.436,3.318,2.525,5.21,3.288c1.156,0.466,2.325,0.806,3.528,1.13c1.338,0.36,2.012,1.266,2.959,2.191
		c1.701,1.661,4.375,3.684,6.969,3.788C31.923,55.874,30.754,56.548,29.586,57.223z M34.875,27.381
		c-0.284-0.52-0.588-1.029-0.91-1.528c4.32-2.494,8.64-4.989,12.961-7.483c0.323,0.496,0.627,1.005,0.912,1.527
		C43.517,22.391,39.196,24.886,34.875,27.381z M28.107,19.513c-0.667-0.504-1.355-0.975-2.067-1.399
		c-3.41-1.969-6.82-3.937-10.23-5.906c4.295-2.479,8.589-4.959,12.884-7.438c2.674,1.512,5.285,3.176,7.92,4.697
		c1.493,0.862,2.916,1.72,4.257,2.677C36.617,14.6,32.362,17.057,28.107,19.513z M19.457,4.215
		c-2.993,1.728-5.985,3.456-8.978,5.183c-0.805-0.311-1.638-0.551-2.52-0.68c2.839-1.65,5.678-3.3,8.516-4.949
		c1.112-0.646,2.397-1.649,3.709-1.836c0.878-0.125,1.887-0.044,2.881,0.199C21.862,2.827,20.659,3.521,19.457,4.215z
		 M45.114,54.695c-0.016,0.079-0.077,0.196-0.07,0.21c-0.177,0.176-0.387,0.278-0.615,0.411c-0.625,0.363-1.25,0.726-1.875,1.09
		c-0.969,0.563-1.937,1.126-2.906,1.689c-2.426,1.41-4.853,2.82-7.279,4.23c0.015-0.278,0.012-0.55-0.01-0.815
		c3.192-1.843,6.385-3.686,9.577-5.529c1.085-0.627,2.17-1.253,3.256-1.88C45.178,54.296,45.154,54.494,45.114,54.695z"/>
	<path class="st0" d="M22.385,40.011c-1.062-0.613-2.125-1.227-3.187-1.84c-0.737-0.425-2.385-1.743-3.259-1.226
		c-0.898,0.531-0.59,1.961-0.171,2.704c0.548,0.97,1.762,1.501,2.707,1.962c1.131,0.552,2.328,0.947,3.55,1.238
		c0.133,0.032,0.248,0.007,0.34-0.049c0.138-0.066,0.243-0.196,0.243-0.396c0.002-0.665,0.004-1.33,0.006-1.995
		C22.613,40.247,22.525,40.092,22.385,40.011z M16.443,38.97c-0.13-0.231-0.139-0.515-0.14-0.773
		c-0.003-0.623,0.599-0.271,0.954-0.083c0.305,0.161,0.6,0.346,0.899,0.519c1.111,0.641,2.222,1.283,3.333,1.924
		c0.067,0.039,0.135,0.078,0.202,0.117c0,0.015-0.001,0.028-0.001,0.046c-0.001,0.366-0.002,0.731-0.003,1.097
		C19.833,41.354,17.352,40.58,16.443,38.97z"/>
</g>
</svg>
