<?xml version="1.0" encoding="utf-8"?>
<!-- Generator: Adobe Illustrator 21.1.0, SVG Export Plug-In . SVG Version: 6.00 Build 0)  -->
<svg version="1.1" id="Слой_1" xmlns="http://www.w3.org/2000/svg" xmlns:xlink="http://www.w3.org/1999/xlink" x="0px" y="0px"
	 viewBox="0 0 50.223 59.589" style="enable-background:new 0 0 50.223 59.589;" xml:space="preserve">
<style type="text/css">
	.st0{fill:#333333;}
</style>
<g>
	<path class="st0" d="M47.552,23.799c-1.491-1.745-3.526-2.752-5.481-3.88c-3.136-1.81-6.271-3.621-9.407-5.431
		c-7.603-4.39-15.206-8.779-22.809-13.169C8.244,0.389,6.368-0.597,4.567,0.45C2.35,1.738,0.342,2.586,0.109,5.478
		C0.006,6.753,0.05,8.044,0.046,9.323c-0.014,4.889-0.028,9.779-0.042,14.668c-0.013,4.472-0.174,8.724,3.126,12.282
		c1.792,1.932,4.689,3.176,6.937,4.474c4.16,2.402,8.32,4.803,12.479,7.205c4.287,2.475,8.575,4.951,12.862,7.426
		c2.168,1.252,4.313,2.694,6.599,3.729c0.586,0.265,1.192,0.398,1.822,0.443c0.125,0.048,0.266,0.055,0.417,0.008
		c0.124-0.018,0.231-0.059,0.319-0.121c0.389-0.158,0.719-0.295,1.008-0.455c1.337-0.562,2.887-1.178,3.652-2.252
		c0.752-1.056,0.931-2.415,0.935-3.682c0.01-3.626,0.021-7.252,0.031-10.877c0.01-3.626,0.021-7.252,0.031-10.877
		C50.23,28.576,49.324,25.873,47.552,23.799z M48.604,33.674c-0.011,3.987-0.023,7.975-0.034,11.962
		c-0.007,2.472-0.014,4.945-0.021,7.417c-0.003,1.039-0.105,2.178-0.84,2.97c-0.211,0.227-0.54,0.401-0.882,0.551
		c-0.029-0.026-0.059-0.05-0.093-0.072c0.515-2.13,0.17-4.967,0.175-6.56c0.014-4.785,0.027-9.571,0.041-14.356
		c0.004-1.331,0.058-2.673-0.073-3.999c-0.335-3.39-2.325-6.329-5.203-8.08c-6.342-3.661-12.683-7.323-19.025-10.984
		c-4.102-2.368-8.203-4.736-12.305-7.104c-1.612-0.931-3.824-2.615-5.882-3.15c0.697-0.426,1.439-0.761,2.175-0.639
		c1.844,0.305,3.824,1.902,5.389,2.805c8.326,4.807,16.653,9.615,24.979,14.422c4.137,2.388,9.575,4.41,11.15,9.329
		C48.726,29.965,48.609,31.832,48.604,33.674z M1.32,5.199c0.441-3.121,3.097-2.272,5.031-1.156c1.133,0.654,2.267,1.309,3.4,1.963
		c8.423,4.863,16.845,9.726,25.268,14.588c2.083,1.203,4.166,2.405,6.248,3.608c3.179,1.934,4.894,5.237,4.884,8.934
		c-0.004,1.463-0.008,2.926-0.012,4.389c-0.014,4.875-0.028,9.75-0.041,14.625c-0.004,1.418,0.095,2.91-0.177,4.308
		c-0.559,2.873-3.188,1.852-4.966,0.825c-2.974-1.717-5.949-3.435-8.923-5.152c-8.066-4.657-16.131-9.313-24.197-13.97
		c-0.598-0.345-1.196-0.69-1.793-1.035c-3.176-1.834-4.897-5.269-4.887-8.882c0.011-3.915,0.022-7.83,0.033-11.745
		C1.198,12.812,0.802,8.865,1.32,5.199z"/>
	<path class="st0" d="M24.592,32.685c0.999,0.67,2.068,0.481,2.589-0.384c0.233,1.141,0.756,2.225,1.726,2.875
		c0.957,0.642,2.07,0.498,2.593-0.355c0.235,1.13,0.758,2.2,1.72,2.845c0.999,0.67,2.068,0.482,2.589-0.384
		c0.233,1.141,0.756,2.224,1.726,2.875c1.21,0.812,2.672,0.372,2.873-1.175c0.237-1.825-0.356-3.771-1.762-4.989
		c-0.962-0.833-2.099-0.561-2.652,0.32c-0.262-1.083-0.832-2.092-1.662-2.811c-0.967-0.837-2.111-0.558-2.661,0.334
		c-0.251-1.083-0.803-2.088-1.654-2.826c-0.962-0.833-2.099-0.561-2.652,0.32c-0.262-1.083-0.832-2.092-1.662-2.811
		c-1.225-1.06-2.737-0.334-2.96,1.165c-0.001,0.008,0,0.015-0.001,0.022c-0.007,0.027-0.012,0.055-0.013,0.085
		C22.632,29.511,23.046,31.648,24.592,32.685z M34.886,33.544c0.421,0.783,0.545,1.959,0.416,2.84
		c-0.32,2.185-2.271-0.001-2.703-0.799c-0.459-0.848-0.487-1.836-0.436-2.773C32.528,30.675,34.364,32.574,34.886,33.544z
		 M23.534,27.83c0.365-2.137,2.201-0.238,2.723,0.732c0.421,0.783,0.546,1.959,0.416,2.84c-0.321,2.185-2.271-0.001-2.703-0.799
		C23.512,29.756,23.483,28.767,23.534,27.83z M27.848,30.32c0.365-2.137,2.201-0.236,2.724,0.733
		c0.458,0.85,0.428,1.854,0.424,2.788c-0.003,0.822-0.734,1.137-1.428,0.808c-0.606-0.287-0.978-0.993-1.281-1.555
		C27.827,32.247,27.798,31.258,27.848,30.32z M39.2,36.035c0.458,0.85,0.428,1.854,0.424,2.788
		c-0.003,0.822-0.734,1.137-1.428,0.809c-0.606-0.287-0.978-0.993-1.281-1.555c-0.459-0.848-0.488-1.837-0.438-2.775
		C36.842,33.165,38.678,35.066,39.2,36.035z"/>
	<path class="st0" d="M4.056,26.756c0.564,1.077,2.213,1.702,3.199,2.272c4.023,2.323,8.047,4.646,12.07,6.968
		c0.989,0.571,1.978,1.142,2.966,1.713c1.903,1.099,2.182-1.035,1.55-2.364c-0.012-0.04-0.031-0.082-0.062-0.123
		c-0.028-0.052-0.062-0.091-0.1-0.122c-1.148-1.412-3.269-2.203-4.798-3.085c-1.065-0.615-2.13-1.229-3.194-1.844
		c-3.419-1.974-6.838-3.948-10.257-5.922C3.599,23.192,3.477,25.65,4.056,26.756z M22.456,35.009
		c0.209,0.207,0.418,0.413,0.627,0.62c1.358,2.511-0.887,1.094-1.794,0.57c-0.35-0.202-0.699-0.404-1.049-0.606
		c-1.702-0.982-3.403-1.965-5.105-2.947c-2.204-1.272-4.408-2.545-6.612-3.817c-1.179-0.681-2.945-1.325-3.772-2.48
		c-0.877-1.226-0.23-1.694,0.673-1.172c0.795,0.459,1.589,0.918,2.384,1.376c2.163,1.249,4.325,2.497,6.488,3.746
		C17.017,31.869,19.736,33.439,22.456,35.009z"/>
	<path class="st0" d="M7.586,17.946c-0.25-1.089-0.802-2.1-1.658-2.841c-1.224-1.06-2.738-0.334-2.961,1.165
		c-0.001,0.007,0,0.014-0.001,0.021c-0.007,0.027-0.012,0.056-0.013,0.086c-0.095,1.717,0.318,3.854,1.865,4.892
		c0.953,0.639,2.06,0.499,2.586-0.344c0.283,1.2,0.939,2.305,1.98,3.004c0.953,0.639,1.86,0.201,2.329-0.592
		c0.229,1.155,0.752,2.256,1.734,2.914c0.958,0.642,2.071,0.498,2.594-0.357c0.235,1.131,0.758,2.202,1.72,2.848
		c1.21,0.811,2.673,0.372,2.874-1.174c0.237-1.825-0.356-3.771-1.762-4.988c-0.967-0.837-2.112-0.558-2.661,0.334
		c-0.251-1.083-0.803-2.088-1.654-2.826c-0.959-0.831-2.094-0.562-2.648,0.314c-0.278-1.162-0.915-2.242-1.86-2.935
		c-0.033-0.04-0.079-0.075-0.139-0.102c-0.056-0.038-0.112-0.058-0.166-0.066C8.756,16.917,7.996,17.226,7.586,17.946z M9.503,18.06
		c1.368,0.918,2.242,3.323,1.564,4.905c-0.528,1.231-1.518,0.196-2.171-0.773c0.251,0.301,0.58,0.531,0.988,0.63
		c1.261,0.306,1.117-1.596,1.09-2.28c-0.002-0.04-0.009-0.076-0.019-0.11c-0.138-0.884-0.657-1.73-1.562-1.984
		c-1.196-0.336-1.083,1.39-1.082,2.043c0.001,0.396,0.087,0.804,0.255,1.17c-0.152-0.264-0.258-0.481-0.294-0.58
		c-0.141-0.395-0.185-0.817-0.215-1.232C8.008,19.172,7.962,17.361,9.503,18.06z M9.846,21.961c-0.433-0.203-0.67-0.772-0.721-1.212
		c-0.05-0.432-0.051-0.97,0.011-1.401c0.042-0.289,0.555,0.189,0.588,0.222c0.258,0.252,0.401,0.621,0.443,0.972
		C10.177,20.768,10.325,22.186,9.846,21.961z M14.106,25.723c-0.606-0.287-0.978-0.993-1.281-1.555
		c-0.459-0.848-0.488-1.837-0.439-2.775c0.365-2.137,2.201-0.236,2.724,0.733c0.458,0.85,0.428,1.854,0.424,2.788
		C15.531,25.737,14.8,26.052,14.106,25.723z M19.426,24.619c0.458,0.85,0.428,1.854,0.424,2.788
		c-0.003,0.822-0.736,1.136-1.429,0.808c-0.606-0.287-0.977-0.994-1.281-1.555c-0.459-0.848-0.487-1.837-0.438-2.774
		C17.067,21.749,18.903,23.649,19.426,24.619z M3.758,16.412c0.365-2.137,2.201-0.236,2.724,0.733
		c0.458,0.85,0.428,1.854,0.424,2.788c-0.003,0.822-0.734,1.137-1.428,0.809c-0.606-0.287-0.978-0.993-1.281-1.555
		C3.737,18.338,3.708,17.349,3.758,16.412z"/>
	<path class="st0" d="M5.661,33.112c3.945,2.278,7.89,4.555,11.835,6.833c1.646,0.95,3.291,1.9,4.937,2.85
		c0.032,0.019,0.065,0.031,0.096,0.041l0,0c2.474,0.971,1.715-2.72,0.266-3.556c-1.222-0.706-2.444-1.411-3.667-2.117
		c-4.124-2.381-8.247-4.761-12.371-7.142c-0.638-0.368-2.261-1.627-2.876-0.625C2.934,30.944,4.396,32.382,5.661,33.112z
		 M5.061,29.972c0.051,0.029,0.101,0.058,0.152,0.088c0.192,0.111,0.384,0.222,0.576,0.332c0.683,0.394,1.366,0.789,2.049,1.183
		c2.055,1.187,4.11,2.373,6.166,3.56c2.007,1.159,4.014,2.317,6.02,3.476c0.623,0.359,1.245,0.719,1.868,1.078
		c0.153,0.088,0.305,0.176,0.458,0.264c0.029,0.017,0.057,0.033,0.086,0.05c0.002,0.001,0.004,0.002,0.006,0.003
		c0.886,0.503,0.989,1.184,0.31,2.043c-2.876-1.66-5.752-3.321-8.628-4.981c-2.032-1.173-4.064-2.346-6.096-3.52
		c-1.081-0.624-2.599-1.195-3.332-2.272C3.097,28.931,4.688,29.756,5.061,29.972z"/>
	<path class="st0" d="M32.59,39.014c-2.035-0.186-3.097,1.233-3.341,3.111c-0.343,2.643,1.291,5.463,3.024,7.303
		c1.202,1.133,2.625,1.865,4.046,2.685c1.216,0.702,2.722,1.885,4.165,2.017c2.035,0.186,3.095-1.233,3.339-3.11
		c0.332-2.564-1.208-5.295-2.844-7.127c-1.134-1.269-2.772-2.025-4.223-2.863C35.539,40.328,34.032,39.145,32.59,39.014z
		 M34.14,40.452c1.969,1.137,4.246,2.137,5.937,3.677c1.754,1.598,2.883,4.069,2.958,6.429c0.084,2.656-2.081,3.301-4.102,2.134
		c-2.037-1.176-4.367-2.211-6.09-3.834c-1.616-1.716-2.729-3.886-2.808-6.271C29.948,39.93,32.12,39.286,34.14,40.452z"/>
	<path class="st0" d="M14.13,21.105c-0.779-0.509-1.435,0.058-1.491,0.863c-0.082,1.18,0.001,2.365,1.006,3.1
		c0.029,0.03,0.064,0.057,0.109,0.079c0.043,0.028,0.085,0.044,0.127,0.055c0.865,0.348,1.398-0.231,1.409-1.148
		C15.304,22.862,15.211,21.812,14.13,21.105z M14.16,24.452c-0.421-0.276-0.662-0.713-0.719-1.21
		c-0.029-0.252-0.011-0.515-0.006-0.768c0.004-0.229-0.096-0.864,0.287-0.672c0.44,0.221,0.706,0.769,0.761,1.233
		c0.03,0.251,0.009,0.517,0.005,0.768C14.484,24.091,14.606,24.67,14.16,24.452z"/>
	<path class="st0" d="M17.959,27.56c0.029,0.029,0.064,0.057,0.109,0.079c0.043,0.028,0.085,0.044,0.127,0.055
		c0.866,0.349,1.395-0.232,1.407-1.149c0.016-1.192-0.079-2.243-1.16-2.95c-0.779-0.509-1.435,0.058-1.491,0.863
		C16.869,25.64,16.955,26.824,17.959,27.56z M18.036,24.291c0.44,0.221,0.706,0.769,0.761,1.233c0.03,0.251,0.011,0.517,0.006,0.769
		c-0.005,0.288,0.117,0.868-0.327,0.65c-0.421-0.276-0.663-0.714-0.721-1.212c-0.029-0.251-0.009-0.515-0.005-0.767
		C17.753,24.736,17.652,24.099,18.036,24.291z"/>
	<path class="st0" d="M24.768,31.497c0.725,0.475,1.651,0.231,1.663-0.756c0.015-1.233,0.012-2.362-1.055-3.128
		c-0.028-0.027-0.06-0.052-0.101-0.073c-0.039-0.025-0.077-0.04-0.115-0.051c-0.749-0.313-1.317,0.07-1.376,0.915
		C23.708,29.498,23.74,30.823,24.768,31.497z M24.868,28.236c0.429,0.281,0.7,0.722,0.761,1.233c0.03,0.251,0.009,0.517,0.005,0.768
		c-0.005,0.288,0.117,0.868-0.328,0.65c-0.432-0.212-0.668-0.765-0.72-1.211c-0.029-0.251-0.009-0.515-0.005-0.767
		C24.585,28.68,24.484,28.044,24.868,28.236z"/>
	<path class="st0" d="M29.083,33.988c0.726,0.476,1.649,0.23,1.662-0.757c0.017-1.231,0.013-2.362-1.054-3.128
		c-0.028-0.027-0.06-0.052-0.101-0.073c-0.039-0.025-0.077-0.04-0.115-0.051c-0.749-0.313-1.316,0.071-1.375,0.915
		C28.023,31.989,28.054,33.314,29.083,33.988z M29.183,30.727c0.429,0.28,0.699,0.721,0.76,1.232
		c0.03,0.251,0.011,0.516,0.006,0.769c-0.005,0.287,0.117,0.868-0.327,0.65c-0.432-0.212-0.668-0.764-0.719-1.21
		c-0.029-0.252-0.011-0.515-0.006-0.768C28.901,31.172,28.8,30.535,29.183,30.727z"/>
	<path class="st0" d="M33.419,36.486c0.029,0.029,0.064,0.057,0.109,0.079c0.043,0.028,0.085,0.044,0.127,0.055
		c0.865,0.348,1.397-0.232,1.408-1.148c0.015-1.193-0.078-2.242-1.16-2.949c-0.779-0.509-1.435,0.058-1.491,0.863
		C32.331,34.566,32.416,35.75,33.419,36.486z M33.497,33.218c0.44,0.221,0.706,0.769,0.761,1.233
		c0.03,0.251,0.009,0.517,0.005,0.768c-0.005,0.288,0.118,0.868-0.328,0.65c-0.421-0.276-0.662-0.714-0.72-1.211
		c-0.029-0.251-0.009-0.515-0.005-0.767C33.214,33.662,33.113,33.025,33.497,33.218z"/>
	<path class="st0" d="M36.729,35.877c-0.082,1.18,0.001,2.365,1.005,3.1c0.029,0.03,0.064,0.057,0.109,0.079
		c0.043,0.028,0.085,0.044,0.127,0.055c0.865,0.349,1.395-0.233,1.407-1.149c0.016-1.191-0.078-2.242-1.159-2.949
		C37.439,34.503,36.785,35.073,36.729,35.877z M37.811,35.709c0.44,0.22,0.705,0.769,0.76,1.232c0.03,0.251,0.011,0.516,0.006,0.769
		c-0.005,0.287,0.117,0.868-0.327,0.65c-0.421-0.276-0.662-0.713-0.719-1.21c-0.029-0.251-0.011-0.515-0.006-0.768
		C37.53,36.154,37.429,35.517,37.811,35.709z"/>
	<path class="st0" d="M36.305,49.542c0.696,1.149,1.69,2.123,2.767,2.529c1.901,0.716,3.158-0.435,3.262-2.349
		c0.119-2.187-1.439-4.484-3.203-5.648c-0.026-0.023-0.055-0.044-0.091-0.062c-0.037-0.023-0.073-0.038-0.109-0.048
		c-0.832-0.387-1.59-0.452-2.194-0.222c-0.575-0.927-1.27-1.706-2.189-2.313c-0.025-0.022-0.053-0.043-0.087-0.06
		c-0.031-0.02-0.062-0.034-0.093-0.044c-2.62-1.272-3.97,0.911-3.479,3.418C31.313,46.913,33.762,50.362,36.305,49.542z
		 M38.633,44.708c1.2,0.763,2.013,1.896,2.539,3.204c0.457,1.135,0.775,3.49-0.989,3.609c-1.444,0.097-2.685-1.64-3.306-2.705
		C35.952,47.229,35.552,43.181,38.633,44.708z M35.316,46.233c-0.028,0.818,0.198,1.729,0.603,2.592
		c-1.824,0.469-3.476-2.173-4.02-3.523c-0.705-1.749-0.285-4.485,2.155-3.239c0.841,0.537,1.458,1.237,1.977,2.065
		C35.479,44.713,35.291,45.456,35.316,46.233z"/>
	<path class="st0" d="M5.015,20.087c0.029,0.029,0.064,0.057,0.109,0.079c0.043,0.028,0.085,0.044,0.127,0.055
		c0.865,0.348,1.398-0.231,1.409-1.148c0.015-1.193-0.078-2.242-1.16-2.949c-0.779-0.509-1.435,0.058-1.491,0.863
		C3.927,18.167,4.011,19.351,5.015,20.087z M5.094,16.819c0.44,0.221,0.706,0.769,0.761,1.233c0.03,0.251,0.009,0.517,0.005,0.768
		c-0.005,0.288,0.117,0.868-0.329,0.649c-0.421-0.276-0.662-0.713-0.719-1.21c-0.029-0.251-0.011-0.515-0.006-0.768
		C4.811,17.263,4.71,16.627,5.094,16.819z"/>
</g>
</svg>
