<?xml version="1.0" encoding="utf-8"?>
<!-- Generator: Adobe Illustrator 21.1.0, SVG Export Plug-In . SVG Version: 6.00 Build 0)  -->
<svg version="1.1" id="Слой_1" xmlns="http://www.w3.org/2000/svg" xmlns:xlink="http://www.w3.org/1999/xlink" x="0px" y="0px"
	 viewBox="0 0 58.175 63.519" style="enable-background:new 0 0 58.175 63.519;" xml:space="preserve">
<style type="text/css">
	.st0{fill:#333333;}
</style>
<g>
	<path class="st0" d="M34.629,11.638C32.276,7.794,29.181,4.4,25.32,2.036c-3.147-1.927-7.354-2.935-10.722-0.977
		C12.565,2.24,10.533,3.421,8.5,4.602C6.85,5.561,4.86,6.416,3.411,7.688c-4.974,4.364-3.606,12.349-1.548,17.807
		c1.019,2.704,2.525,5.168,3.963,7.66c2.189,3.792,4.378,7.583,6.567,11.375c3.567,6.179,7.135,12.358,10.703,18.537
		c0.253,0.438,0.826,0.578,1.261,0.331c6.379-3.635,12.814-7.186,19.142-10.909l0,0c3.375-1.962,6.751-3.923,10.126-5.885
		c3.315-1.927,4.597-5.858,4.548-9.523c-0.089-7.027-3.309-13.721-7.813-18.988C46.715,13.829,40.398,9.389,34.629,11.638z
		 M38.589,55.091c-0.517,0.295-0.981-0.502-0.465-0.796c1.815-1.034,4.074-1.92,5.642-3.319c0.514-0.458,0.939-0.976,1.301-1.529
		c-0.832,0.484-1.665,0.967-2.497,1.451l0,0c-6.062,3.566-12.221,6.976-18.337,10.452c-4.36-7.551-8.719-15.103-13.079-22.654
		c-1.809-3.133-3.618-6.266-5.426-9.399C2.733,24.11,0.08,16.494,3.19,10.779C3.717,9.81,4.598,8.997,5.62,8.285
		c-0.666,0.322-1.303,0.772-1.896,1.38c-0.415,0.426-1.066-0.226-0.652-0.652c1.483-1.522,3.294-2.199,5.176-2.277
		c0.982-0.515,1.944-0.987,2.74-1.449c2.599-1.51,5.204-3.543,8.173-3.443c6.134,0.207,11.355,6.42,14.207,11.277
		c-3.034,1.763-6.069,3.527-9.103,5.29c-0.131,0.076-0.261,0.152-0.392,0.228c-0.344,0.2-0.249,0.621,0.006,0.789
		c0.126,0.083,0.289,0.105,0.459,0.006c0.977-0.568,1.954-1.135,2.93-1.703c2.304-1.339,4.608-2.678,6.912-4.017
		c0.18,0.011,0.366-0.026,0.536-0.113c5.216-2.667,11.251,2.181,14.561,6.053c4.09,4.784,6.971,11.065,7.052,17.426
		c0.046,3.403-0.815,6.292-3.948,8.113c-1.901,1.105-3.801,2.209-5.702,3.314c-0.353,0.825-0.82,1.597-1.431,2.284
		C43.527,52.73,40.806,53.827,38.589,55.091z"/>
	<path class="st0" d="M15.639,10.203c3.385,2.265,6.02,5.595,8.07,9.067c0.043,0.073,0.104,0.122,0.171,0.159
		c-0.254-0.168-0.349-0.59-0.006-0.789c0.131-0.076,0.261-0.152,0.392-0.228c-2.385-3.933-5.474-7.451-9.455-9.822
		c-2.005-1.194-4.334-1.944-6.562-1.853C6.366,6.814,4.556,7.491,3.073,9.014c-0.415,0.426,0.236,1.078,0.652,0.652
		c0.593-0.608,1.23-1.059,1.896-1.38C8.814,6.743,12.685,8.226,15.639,10.203z"/>
	<path class="st0" d="M46.681,48.508c1.422-3.328,0.941-7.552,0.137-10.864c-1.39-5.725-4.718-11.096-8.994-15.11
		c-2.766-2.597-6.687-4.989-10.554-4.802c-0.977,0.568-1.954,1.135-2.93,1.703c5.042-2.608,10.639,1.453,14.068,4.961
		c3.888,3.978,6.604,9.231,7.789,14.645c0.729,3.331,0.805,7.451-1.129,10.405c-0.363,0.554-0.788,1.071-1.301,1.529
		c-1.568,1.4-3.828,2.285-5.642,3.319c-0.516,0.294-0.052,1.09,0.465,0.796c2.217-1.264,4.939-2.361,6.661-4.299
		C45.861,50.105,46.329,49.333,46.681,48.508z"/>
</g>
</svg>
