<?xml version="1.0" encoding="utf-8"?>
<!-- Generator: Adobe Illustrator 21.1.0, SVG Export Plug-In . SVG Version: 6.00 Build 0)  -->
<svg version="1.1" id="Слой_1" xmlns="http://www.w3.org/2000/svg" xmlns:xlink="http://www.w3.org/1999/xlink" x="0px" y="0px"
	 viewBox="0 0 49.327 64" style="enable-background:new 0 0 49.327 64;" xml:space="preserve">
<style type="text/css">
	.st0{fill:#FFFFFF;}
</style>
<g>
	<g>
		<g>
			<path class="st0" d="M19.824,44.007c0.672-0.331,1.369-0.602,2.084-0.72C20.973,42.961,20.201,43.247,19.824,44.007z"/>
			<path class="st0" d="M24.453,58.47c0.487-0.239,0.915,0.489,0.426,0.729c1.859-1.073,3.718-2.147,5.577-3.22l-0.845-0.488
				C27.892,56.484,26.172,57.477,24.453,58.47z"/>
			<path class="st0" d="M24.453,58.47c-2.612,1.283-4.796-0.471-6.956-1.718c-2.183-1.26-4.366-2.521-6.549-3.781
				c-0.487-0.281-2.737-1.325-0.933-2.366c0.578-0.334,1.157-0.668,1.735-1.002c1.277-0.737,2.554-1.475,3.831-2.212l-0.845-0.488
				c-0.9,0.519-1.8,1.039-2.699,1.558c-1.071,0.618-3.581,1.543-3.581,3.056c0,1.217,1.355,1.771,2.248,2.287
				c1.659,0.958,3.318,1.916,4.977,2.873c2.804,1.619,5.829,4.175,9.198,2.52C24.406,59.472,23.981,58.742,24.453,58.47z"/>
			<path class="st0" d="M24.453,58.47c-0.471,0.272-0.046,1.002,0.426,0.729C25.368,58.959,24.939,58.23,24.453,58.47z"/>
		</g>
		<g>
			<g>
				<path class="st0" d="M42.389,60.655c-0.067,0-0.156,0.02-0.213,0.058c-0.449,0.3-0.051,1.002,0.426,0.729l0,0
					c0.473-0.27,0.047-1-0.426-0.729l0,0c0.142,0.243,0.284,0.486,0.426,0.729l0,0c-0.071,0.019-0.142,0.038-0.213,0.058l0,0
					C42.934,61.5,42.934,60.655,42.389,60.655z"/>
				<path class="st0" d="M47.662,24.606c-0.898-1.739-1.995-3.185-3.735-4.422c-0.942-0.67-1.275-0.828-2.247-0.267
					c-1.264,0.73-2.529,1.46-3.793,2.19c-0.274,0.158-0.274,0.571,0,0.729c1.982,1.145,3.587,2.724,4.575,4.821
					c0.099,0.209,0.392,0.259,0.578,0.151c1.496-0.864,2.992-1.728,4.489-2.591c0.207-0.119,0.257-0.374,0.151-0.578
					C47.674,24.628,47.668,24.617,47.662,24.606c-0.25-0.484-0.979-0.057-0.729,0.426c0.006,0.011,0.012,0.022,0.017,0.033
					c0.051-0.193,0.101-0.385,0.151-0.578c-1.496,0.864-2.992,1.728-4.489,2.591c0.193,0.051,0.385,0.101,0.578,0.151
					c-1.046-2.219-2.78-3.913-4.878-5.124c0,0.243,0,0.486,0,0.729c1.024-0.591,2.049-1.183,3.073-1.774
					c0.445-0.257,0.889-0.513,1.334-0.77c-0.121,0.07-0.322-0.042,0.184,0.25c0.203,0.117,0.401,0.242,0.597,0.372
					c1.503,0.993,2.619,2.544,3.432,4.119C47.183,25.516,47.912,25.089,47.662,24.606z"/>
				<path class="st0" d="M48.908,29.361c-0.013-0.982-0.178-1.953-0.478-2.888c-0.083-0.259-0.376-0.393-0.62-0.252
					c-1.496,0.864-2.992,1.728-4.489,2.591c-0.157,0.091-0.254,0.299-0.194,0.477c0.382,1.14,0.457,2.276,0.453,3.468
					c-0.001,0.322,0.359,0.524,0.635,0.365c1.021-0.589,2.042-1.179,3.063-1.769c0.456-0.263,0.912-0.526,1.368-0.79
					C49.046,30.332,48.906,29.75,48.908,29.361c0.002-0.545-0.843-0.544-0.844,0c-0.001,0.241-0.001,0.483-0.002,0.724
					c0.001-0.262,0.339-0.355-0.085-0.111c-0.51,0.294-1.019,0.588-1.529,0.883c-0.886,0.512-1.772,1.023-2.658,1.535
					c0.212,0.122,0.424,0.243,0.635,0.365c0.004-1.265-0.078-2.483-0.483-3.692c-0.065,0.159-0.129,0.318-0.194,0.477
					c1.496-0.864,2.992-1.728,4.489-2.591c-0.207-0.084-0.413-0.168-0.62-0.252c0.278,0.867,0.435,1.753,0.448,2.664
					C48.071,29.905,48.915,29.906,48.908,29.361z"/>
				<path class="st0" d="M11.043,1.172C10.292,0.751,10.069,0.79,9.32,1.223C8.037,1.963,6.754,2.704,5.472,3.444
					C5.127,3.643,5.25,4.087,5.572,4.216c1.146,0.459,2.214,1.241,3.279,1.856c0.132,0.076,0.295,0.076,0.426,0
					c1.499-0.865,2.997-1.73,4.496-2.596c0.274-0.158,0.274-0.571,0-0.729C12.863,2.222,11.953,1.697,11.043,1.172
					c-0.472-0.273-0.897,0.457-0.426,0.729c0.91,0.525,1.82,1.051,2.73,1.576c0-0.243,0-0.486,0-0.729
					C11.908,3.579,10.469,4.41,9.03,5.24C8.69,5.437,9.501,5.472,8.995,5.18C8.503,4.896,8.011,4.612,7.518,4.328
					C6.956,4.003,6.401,3.644,5.797,3.402c0.034,0.257,0.067,0.514,0.101,0.772c1.057-0.61,2.114-1.221,3.172-1.831
					c0.436-0.252,0.873-0.504,1.309-0.756c-0.239,0.138-0.526-0.071-0.146,0.108c0.131,0.062,0.259,0.136,0.385,0.206
					C11.093,2.167,11.519,1.438,11.043,1.172z"/>
				<path class="st0" d="M48.224,46.162c-1.476,0.852-2.952,1.704-4.427,2.556c-0.44,0.254-0.265,1.055-0.266,1.471
					c-0.003,0.927-0.005,1.854-0.008,2.782c-0.001,0.322,0.359,0.524,0.635,0.365c1.476-0.852,2.952-1.704,4.427-2.556
					c0.44-0.254,0.265-1.055,0.266-1.471c0.003-0.927,0.005-1.854,0.008-2.782c0.002-0.545-0.843-0.544-0.844,0
					c-0.002,0.768-0.004,1.536-0.007,2.304c-0.001,0.415-0.002,0.829-0.004,1.244c-0.002,0.582,0.408-0.17,0.004,0.063
					c-1.425,0.823-2.851,1.646-4.276,2.469c0.212,0.122,0.424,0.243,0.635,0.365c0.002-0.768,0.004-1.536,0.007-2.304
					c0.001-0.415,0.002-0.829,0.004-1.244c0.002-0.581-0.408,0.17-0.004-0.063c1.425-0.823,2.851-1.646,4.276-2.469
					C49.121,46.619,48.696,45.889,48.224,46.162z"/>
				<path class="st0" d="M14.529,3.43c-1.499,0.865-2.997,1.73-4.496,2.596c-0.274,0.158-0.274,0.571,0,0.729
					c0.556,0.321,1.112,0.642,1.667,0.963c0.132,0.076,0.295,0.076,0.426,0c1.499-0.865,2.997-1.73,4.496-2.596
					c0.274-0.158,0.274-0.571,0-0.729c-0.556-0.321-1.112-0.642-1.667-0.963c-0.472-0.273-0.898,0.457-0.426,0.729
					c0.556,0.321,1.112,0.642,1.667,0.963c0-0.243,0-0.486,0-0.729c-1.089,0.629-2.178,1.258-3.267,1.886
					c-0.271,0.157-0.542,0.313-0.814,0.47c-0.518,0.299-0.327,0.044-0.021,0.221c-0.545-0.315-1.09-0.629-1.634-0.944
					c0,0.243,0,0.486,0,0.729c1.499-0.865,2.997-1.73,4.496-2.596C15.427,3.887,15.002,3.158,14.529,3.43z"/>
			</g>
		</g>
		<path class="st0" d="M49.265,52.178c0.001-0.505,0.003-1.009,0.004-1.514c0.002-0.723-0.493,0.791-0.114,0.146
			c0.085-0.144,0.115-0.295,0.115-0.461c0.003-1.112,0.006-2.224,0.009-3.336c0.004-1.256,0.007-2.513,0.011-3.769
			c0.012-4.346,0.025-8.692,0.037-13.039c0.013-4.648-2.324-8.761-6.356-11.088c-8.712-5.03-17.424-10.06-26.136-15.089
			c-0.142,0.525-0.284,1.049-0.426,1.574l0,0c0.838,0,1.156-1.152,0.426-1.574c-1.677-0.968-3.354-1.936-5.031-2.905
			c-0.378-0.218-0.752-0.438-1.148-0.624c-0.158-0.074-0.292-0.134-0.471-0.134c0.551,0,0.043-0.046-0.156-0.121
			C9.868,0.183,9.696,0.136,9.526,0.098c-2.694-0.6-5.196,1.684-7.364,2.944c-0.946,0.55-0.11,1.959,0.852,1.458
			c0.31-0.161,0.14-0.089,0.276-0.127C3.14,3.831,2.991,3.289,2.841,2.746C0.019,3.918,0.218,6.849,0.21,9.419
			C0.196,14.435,0.182,19.45,0.168,24.466c-0.01,3.488-0.533,7.485,0.321,10.913c0.692,2.777,2.501,5.348,4.802,7.015
			c1.632,1.182,3.54,2.076,5.281,3.08c1.387,0.801,2.774,1.601,4.16,2.402c0-0.486,0-0.972,0-1.458
			c-1.178,0.68-2.356,1.36-3.533,2.04c-1.189,0.686-2.884,1.321-3.135,2.836c0.271-0.207,0.543-0.413,0.814-0.62l0,0
			c-0.46,0-0.844,0.384-0.844,0.844c0,1.326,0,2.653,0,3.979c0,0.46,0.384,0.844,0.844,0.844c0.005,0,0.009,0,0.014,0
			c-0.271-0.207-0.543-0.413-0.814-0.62c0.59,1.648,2.607,2.374,4.042,3.203c0.554,0.32,1.271-0.087,1.271-0.729v0
			c-0.424,0.243-0.847,0.486-1.271,0.729c2.016,1.164,4.032,2.328,6.047,3.492c1.687,0.974,3.173,1.814,5.217,1.527
			c1.627-0.229,3.1-1.369,4.485-2.168c1.965-1.134,3.929-2.269,5.894-3.403c-0.284,0-0.568,0-0.852,0
			c2.094,1.209,4.163,2.644,6.399,3.575c2.5,1.041,4.721-0.846,6.769-2.037c1.706-0.991,2.63-1.857,3.01-3.317
			c0.126-0.483,0.166-1.012,0.168-1.51c0.002-0.506,0.11-1.126-0.026-1.62c-0.281-1.022,0.029,0.653,0.031-0.075
			C49.263,52.985,49.264,52.582,49.265,52.178c0.001-0.46-0.385-0.844-0.844-0.844h0c-1.089,0-1.089,1.689,0,1.689h0
			c-0.281-0.281-0.563-0.563-0.844-0.844c-0.001,0.475-0.003,0.951-0.004,1.426c-0.001,0.182,0.021,0.35,0.115,0.51
			c0.378,0.645-0.114-0.862-0.116-0.15c-0.002,0.614,0.017,1.231-0.046,1.842c-0.066,0.642-0.246,1.38-1.081,1.938
			c-1.416,0.945-2.982,1.671-4.425,2.574c-1.568,0.981-3.744-0.801-5.039-1.548c-1.116-0.644-3.051-2.445-4.366-1.685
			c-2.042,1.179-4.084,2.358-6.126,3.537c-1.122,0.648-2.303,1.583-3.639,1.694c-1.839,0.153-3.366-1.09-4.878-1.964
			c-1.666-0.962-3.332-1.924-4.998-2.886c-0.554-0.32-1.271,0.087-1.271,0.729v0c0.424-0.243,0.847-0.486,1.271-0.729
			c-0.828-0.478-2.929-1.251-3.266-2.193c-0.128-0.358-0.417-0.62-0.814-0.62c-0.005,0-0.009,0-0.014,0
			c0.281,0.282,0.563,0.563,0.844,0.844c0-1.326,0-2.653,0-3.979C9.441,51.8,9.16,52.081,8.878,52.363l0,0
			c0.346,0,0.754-0.255,0.814-0.62c0.167-1.007,2.202-1.736,2.921-2.151c0.99-0.572,1.981-1.144,2.971-1.715
			c0.548-0.316,0.548-1.142,0-1.458c-1.676-0.968-3.353-1.936-5.029-2.904c-1.835-1.059-3.966-2.011-5.495-3.506
			c-2.118-2.072-3.236-4.478-3.228-7.269c0.004-1.399,0.008-2.798,0.012-4.196c0.015-5.229,0.03-10.458,0.044-15.686
			c0.005-1.716,0.01-3.432,0.015-5.148C1.907,6.76,1.877,5.597,2.587,4.864c0.196-0.203,0.132-0.253,0.703-0.49
			C4.264,3.97,3.922,2.448,2.841,2.746C2.605,2.811,2.377,2.93,2.161,3.042c0.284,0.486,0.568,0.972,0.852,1.458
			C4.5,3.637,5.986,2.774,7.472,1.91c0.711-0.413,1.081-0.3,1.68-0.166c0.355,0.079,1.418,0.574,0.685,0.229
			c0.458,0.216,0.891,0.479,1.329,0.732c1.606,0.927,3.212,1.854,4.818,2.782c0.142-0.525,0.284-1.049,0.426-1.574l0,0
			c-0.838,0-1.156,1.152-0.426,1.574c7.275,4.2,14.551,8.401,21.826,12.601c2.068,1.194,4.577,2.25,6.35,3.898
			c1.782,1.657,2.994,3.922,3.407,6.317c0.192,1.11,0.07,2.319,0.067,3.441c-0.008,2.922-0.017,5.844-0.025,8.766
			c-0.006,2.003-0.011,4.005-0.017,6.008c-0.003,1.126-0.006,2.253-0.01,3.379c0,0.151-0.001,0.302-0.001,0.452
			c0.319-0.603,0.357-0.734,0.115-0.392c-0.076,0.132-0.115,0.274-0.115,0.426c-0.002,0.598-0.003,1.196-0.005,1.795
			C47.573,53.267,49.262,53.267,49.265,52.178z"/>
		<g>
			<path class="st0" d="M38.962,22.469c-6.976-4.028-13.952-8.055-20.929-12.083c-3.506-2.024-7.011-4.048-10.517-6.072
				C6.294,3.608,5.09,2.919,3.612,3.013C1.39,3.155,0.644,5.522,0.638,7.387c-0.021,7.53-0.043,15.059-0.064,22.589
				c0,0.148,0.081,0.29,0.209,0.365c13.956,8.058,27.913,16.115,41.869,24.173c0.363,0.21,0.727,0.42,1.09,0.629
				c0.278,0.16,0.634-0.044,0.635-0.365c0.014-4.912,0.028-9.824,0.042-14.736c0.007-2.602,0.015-5.203,0.022-7.805
				C44.453,28.38,42.235,24.491,38.962,22.469c-0.465-0.287-0.888,0.444-0.426,0.729c3.337,2.061,5.07,5.825,5.06,9.652
				c-0.008,2.842-0.016,5.685-0.024,8.527c-0.013,4.467-0.025,8.934-0.038,13.401c0.212-0.122,0.424-0.243,0.635-0.365
				C30.212,46.356,16.256,38.298,2.3,30.241c-0.294-0.17-0.588-0.339-0.882-0.509c-0.453-0.262,0.001,0.412,0.002,0.085
				c0.004-1.534,0.009-3.067,0.013-4.601c0.014-5.11,0.029-10.22,0.043-15.33c0.004-1.43-0.144-3.007,0.272-4.39
				C2.559,2.794,5.405,4.07,7.091,5.043c3.505,2.024,7.011,4.048,10.517,6.072c6.976,4.028,13.952,8.055,20.929,12.083
				C39.008,23.471,39.433,22.741,38.962,22.469z"/>
			<path class="st0" d="M42.834,52.218c-13.4-7.736-26.8-15.473-40.2-23.209c-0.412-0.238,0.035,0.487,0.035,0.088
				c0-0.628,0-1.255,0-1.883c0-2.414,0-4.829,0-7.243c0-3.931-0.101-7.876,0.014-11.805C2.716,7.069,3.09,5.77,4.37,5.691
				c0.664-0.041,1.397,0.346,1.948,0.662c0.252,0.145,0.505,0.29,0.757,0.435c1.368,0.787,2.736,1.574,4.105,2.361
				c4.546,2.615,9.092,5.229,13.638,7.844c3.496,2.011,6.993,4.022,10.489,6.032c0.716,0.412,1.431,0.823,2.147,1.235
				c2.75,1.581,4.811,5.071,4.802,8.256c-0.019,6.689-0.038,13.378-0.057,20.067c-0.002,0.545,0.843,0.544,0.844,0
				c0.01-3.648,0.021-7.297,0.031-10.945c0.007-2.471,0.014-4.942,0.021-7.413c0.006-1.974-0.05-3.821-0.918-5.671
				c-1.759-3.748-4.716-5.264-8.067-7.191c-4.413-2.538-8.825-5.076-13.238-7.614c-3.926-2.258-7.851-4.515-11.777-6.773
				c-2.159-1.242-5.804-3.83-7.045-0.173C1.635,8.03,1.825,9.646,1.825,10.929c0,2.342,0,4.685,0,7.027c0,3.772,0,7.544,0,11.316
				c0,0.148,0.08,0.29,0.209,0.365c13.4,7.736,26.8,15.473,40.2,23.209c0.058,0.034,0.116,0.067,0.175,0.101
				C42.88,53.22,43.305,52.49,42.834,52.218z"/>
		</g>
		<g>
			<path class="st0" d="M0.566,32.881c0.119,3.756,2.274,7.517,5.479,9.492c0.641,0.395,1.308,0.755,1.96,1.132
				c3.923,2.265,7.845,4.53,11.768,6.794c4.514,2.606,9.027,5.212,13.541,7.818c2.223,1.284,5.568,4.007,8.288,3.68
				c3.247-0.391,2.77-4.711,2.776-7.019c0-0.148-0.081-0.29-0.209-0.365C30.212,46.356,16.256,38.298,2.3,30.241
				c-0.363-0.21-0.727-0.42-1.09-0.629c-0.278-0.16-0.634,0.044-0.635,0.365C0.572,30.944,0.569,31.913,0.566,32.881
				c-0.002,0.545,0.843,0.544,0.844,0c0.003-0.968,0.006-1.937,0.008-2.905c-0.212,0.122-0.424,0.243-0.635,0.365
				c13.956,8.058,27.913,16.115,41.869,24.173c0.294,0.17,0.588,0.34,0.882,0.509c0.061,0.035,0.123,0.071,0.184,0.106
				c0.139,0.08-0.186-0.091-0.186-0.302c-0.001,0.303-0.002,0.606-0.003,0.91c-0.004,1.436,0.154,2.971-0.594,4.26
				c-0.951,1.639-3.025,0.953-4.297,0.219c-2.93-1.692-5.86-3.383-8.789-5.075c-7.702-4.447-15.404-8.894-23.106-13.341
				c-3.098-1.789-5.219-5.345-5.333-8.92C1.393,32.338,0.549,32.336,0.566,32.881z"/>
			<path class="st0" d="M19.998,44.981c0.383-2.324,2.556-1.042,3.55,0.061c1.004,1.115,1.601,2.813,1.261,4.29
				c-0.447,1.943-2.738,0.107-3.351-0.545c-0.957-1.019-1.512-2.535-1.446-3.918c0.026-0.545-0.818-0.542-0.844,0
				c-0.108,2.249,1.195,4.487,3.071,5.679c1.532,0.974,3.094,0.271,3.482-1.417c0.463-2.012-1.083-4.705-2.742-5.759
				c-1.651-1.049-3.452-0.701-3.796,1.385C19.097,45.289,19.91,45.517,19.998,44.981z"/>
		</g>
	</g>
</g>
</svg>
