<?xml version="1.0" encoding="utf-8"?>
<!-- Generator: Adobe Illustrator 21.1.0, SVG Export Plug-In . SVG Version: 6.00 Build 0)  -->
<svg version="1.1" id="Слой_1" xmlns="http://www.w3.org/2000/svg" xmlns:xlink="http://www.w3.org/1999/xlink" x="0px" y="0px"
	 viewBox="0 0 239.971 57.895" style="enable-background:new 0 0 239.971 57.895;" xml:space="preserve">
<style type="text/css">
	.st0{fill:#FFCD00;}
	.st1{fill:#1D1D1B;}
</style>
<path class="st0" d="M205.971,44.895c0,0,3,6-1,13c7-2,17-8,20-15C221.971,41.895,205.971,44.895,205.971,44.895L205.971,44.895z"/>
<polygon class="st1" points="0,30.368 3.893,30.368 3.893,10.437 14.597,10.437 14.597,30.368 18.523,30.368 18.523,6.88 0,6.88 "/>
<path class="st1" d="M37.871,16.309c-0.615-0.783-1.382-1.404-2.298-1.862c-0.918-0.46-1.969-0.688-3.154-0.688
	c-1.163,0-2.26,0.229-3.288,0.688c-1.029,0.458-1.779,1.246-2.249,2.365c0-0.715-0.123-1.287-0.369-1.711
	c-0.247-0.424-0.576-0.738-0.989-0.94c-0.414-0.201-0.912-0.302-1.494-0.302c-0.582,0-1.208,0.067-1.879,0.202l0.034,2.515
	c0.47,0,0.822,0.055,1.057,0.168c0.235,0.113,0.402,0.286,0.503,0.521c0.1,0.234,0.151,0.526,0.151,0.871c0,0.348,0,0.756,0,1.226
	V38.69h3.657v-9.428c0.671,0.402,1.354,0.704,2.047,0.905c0.693,0.201,1.376,0.324,2.047,0.369c1.074,0.045,2.102-0.118,3.087-0.486
	c0.984-0.369,1.846-0.924,2.585-1.662c0.738-0.737,1.324-1.632,1.761-2.684c0.437-1.052,0.655-2.226,0.655-3.523
	c0-1.095-0.157-2.154-0.469-3.171C38.951,17.993,38.486,17.092,37.871,16.309z M35.69,24.362c-0.235,0.626-0.554,1.157-0.957,1.595
	c-0.402,0.436-0.872,0.771-1.409,1.006c-0.537,0.235-1.108,0.364-1.711,0.386c-0.649,0.044-1.331-0.044-2.047-0.269
	c-0.716-0.223-1.409-0.571-2.08-1.041v-4.53c0-0.602,0.101-1.179,0.301-1.728c0.202-0.548,0.487-1.023,0.856-1.426
	c0.369-0.403,0.811-0.726,1.325-0.974c0.515-0.246,1.085-0.369,1.712-0.369c0.738,0,1.376,0.145,1.912,0.436
	c0.537,0.291,0.99,0.671,1.36,1.141c0.369,0.47,0.643,1.019,0.822,1.645c0.178,0.626,0.268,1.274,0.268,1.946
	C36.042,23.009,35.925,23.736,35.69,24.362z"/>
<path class="st1" d="M56.629,15.855c-0.817-0.704-1.745-1.23-2.785-1.576c-1.04-0.347-2.097-0.509-3.171-0.487
	c-1.052,0.023-2.081,0.213-3.088,0.571c-1.006,0.359-1.901,0.884-2.684,1.577c-0.783,0.692-1.415,1.566-1.896,2.617
	c-0.481,1.053-0.721,2.272-0.721,3.658c0,1.409,0.246,2.646,0.738,3.709c0.491,1.062,1.135,1.946,1.93,2.65
	c0.793,0.705,1.699,1.231,2.717,1.578c1.018,0.346,2.064,0.52,3.138,0.52c1.074,0,2.119-0.174,3.137-0.52
	c1.017-0.347,1.929-0.873,2.735-1.578c0.805-0.704,1.454-1.588,1.947-2.65c0.492-1.063,0.737-2.3,0.737-3.709
	c0-1.41-0.251-2.644-0.754-3.708C58.105,17.444,57.445,16.561,56.629,15.855z M55.286,24.497c-0.28,0.648-0.644,1.19-1.091,1.627
	c-0.448,0.436-0.962,0.766-1.544,0.989c-0.582,0.224-1.174,0.336-1.779,0.336c-0.626,0-1.235-0.106-1.828-0.32
	c-0.593-0.212-1.125-0.536-1.594-0.973c-0.469-0.436-0.845-0.983-1.124-1.644c-0.28-0.66-0.419-1.426-0.419-2.298
	c0-0.85,0.134-1.599,0.402-2.248c0.269-0.648,0.627-1.186,1.074-1.61c0.447-0.425,0.956-0.75,1.526-0.974
	c0.571-0.223,1.158-0.345,1.762-0.369c0.626-0.022,1.241,0.073,1.845,0.284c0.604,0.214,1.141,0.538,1.611,0.974
	c0.47,0.437,0.85,0.985,1.142,1.644c0.289,0.66,0.436,1.427,0.436,2.299C55.706,23.087,55.566,23.847,55.286,24.497z"/>
<polygon class="st1" points="71.327,22.315 64.011,14.195 62.87,14.195 62.87,30.368 66.36,30.368 66.36,21.342 71.159,26.678 
	71.495,26.678 76.326,21.342 76.326,30.368 79.849,30.368 79.849,14.195 78.708,14.195 "/>
<path class="st1" d="M97.831,16.561c-0.604-0.839-1.42-1.493-2.449-1.964c-1.03-0.469-2.249-0.703-3.658-0.703
	c-1.097,0-2.148,0.168-3.154,0.503c-1.006,0.335-1.89,0.838-2.65,1.509c-0.761,0.671-1.376,1.51-1.846,2.517
	c-0.469,1.007-0.716,2.182-0.738,3.523c-0.046,1.365,0.156,2.595,0.604,3.691c0.447,1.097,1.074,2.02,1.879,2.769
	c0.805,0.75,1.773,1.319,2.902,1.711c1.13,0.392,2.366,0.576,3.708,0.554c1.029,0,2.069-0.123,3.121-0.369
	c1.051-0.248,2.047-0.582,2.986-1.007l-0.469-2.718c-0.962,0.426-1.924,0.7-2.886,0.823c-0.962,0.122-1.957,0.184-2.986,0.184
	c-0.739,0-1.427-0.089-2.064-0.268c-0.637-0.18-1.197-0.442-1.677-0.79c-0.481-0.345-0.856-0.793-1.125-1.342
	c-0.268-0.548-0.403-1.191-0.403-1.93h11.946c0.269-1.341,0.314-2.584,0.135-3.724C98.827,18.389,98.436,17.4,97.831,16.561z
	 M86.925,20.739c0.246-1.275,0.8-2.265,1.662-2.97c0.861-0.704,1.896-1.057,3.103-1.057c0.582,0,1.13,0.079,1.644,0.236
	c0.515,0.156,0.968,0.402,1.359,0.738c0.391,0.336,0.699,0.755,0.922,1.259c0.224,0.503,0.324,1.102,0.302,1.796H86.925z"/>
<path class="st1" d="M117.077,14.195h-11.409l-1.174,8.154c-0.113,0.716-0.214,1.387-0.302,2.013
	c-0.09,0.626-0.236,1.174-0.438,1.645c-0.2,0.47-0.476,0.838-0.821,1.107c-0.347,0.269-0.823,0.402-1.426,0.402h-0.336h-0.066
	l0.1,6.577h3.289v-3.725h11.51v3.725h3.153l0.102-6.577h-2.182V14.195z M113.554,27.516h-7.215c0.424-0.335,0.738-0.799,0.939-1.392
	c0.201-0.593,0.392-1.504,0.57-2.735l0.773-6.142h4.933V27.516z"/>
<polygon class="st1" points="126.044,23.926 126.044,14.195 122.487,14.195 122.487,30.403 123.495,30.403 133.796,20.605 
	133.796,30.368 137.32,30.368 137.32,14.161 136.18,14.161 "/>
<path class="st1" d="M155.897,28.154c-0.224-0.089-0.386-0.229-0.486-0.419c-0.102-0.19-0.157-0.43-0.167-0.722
	c-0.013-0.291-0.019-0.626-0.019-1.006v-6.376c0-1.118-0.2-2.047-0.603-2.784c-0.402-0.74-0.945-1.326-1.627-1.763
	c-0.683-0.436-1.472-0.743-2.367-0.923c-0.895-0.179-1.834-0.267-2.817-0.267c-1.075,0-2.132,0.088-3.171,0.267
	c-1.041,0.18-1.976,0.482-2.803,0.907l0.572,2.65c0.335-0.155,0.799-0.318,1.392-0.486c0.592-0.167,1.229-0.296,1.913-0.385
	c0.681-0.09,1.376-0.13,2.08-0.118c0.705,0.011,1.342,0.112,1.913,0.302c0.57,0.189,1.039,0.487,1.409,0.89
	c0.369,0.402,0.553,0.938,0.553,1.611v2.013c-0.715-0.402-1.499-0.676-2.35-0.822c-0.849-0.146-1.666-0.219-2.449-0.219
	c-1.052,0-1.969,0.139-2.751,0.419c-0.783,0.281-1.432,0.661-1.946,1.141c-0.515,0.481-0.905,1.046-1.174,1.695
	c-0.268,0.649-0.402,1.353-0.402,2.114c0,0.626,0.118,1.226,0.353,1.794c0.235,0.571,0.599,1.08,1.09,1.528
	c0.492,0.447,1.095,0.804,1.812,1.073c0.715,0.269,1.565,0.403,2.549,0.403c0.56,0,1.135-0.056,1.729-0.168
	c0.593-0.112,1.158-0.29,1.695-0.537c0.537-0.245,1.024-0.559,1.46-0.94c0.436-0.38,0.789-0.839,1.057-1.375
	c0.022,0.806,0.156,1.427,0.403,1.862c0.246,0.436,0.576,0.744,0.989,0.922c0.414,0.179,0.896,0.252,1.443,0.219
	c0.547-0.034,1.147-0.118,1.796-0.252l-0.067-2.182C156.456,28.266,156.12,28.244,155.897,28.154z M151.081,25.789
	c-0.302,0.503-0.665,0.905-1.091,1.207c-0.423,0.302-0.889,0.52-1.392,0.655c-0.503,0.133-0.989,0.201-1.459,0.201
	c-1.029,0-1.779-0.213-2.248-0.638c-0.471-0.424-0.705-0.95-0.705-1.578c0-0.872,0.312-1.538,0.94-1.996
	c0.625-0.459,1.376-0.688,2.248-0.688c0.804,0,1.622,0.096,2.45,0.286c0.827,0.189,1.444,0.407,1.845,0.654
	C151.579,24.652,151.383,25.285,151.081,25.789z"/>
<g>
	<path class="st1" d="M206.886,7.234c0.732,0.844,1.796,1.534,2.978,1.37c0.317,0.394,0.306,1.702,0.317,1.959
		c0.255-0.27,0.697-1.852,0.915-2.161c0.946-0.322,1.735-1,2.226-1.883c-0.541-0.972-1.5-2.005-2.536-1.973
		c0.046-1.893-2.302-4.416-3.12-4.547c0.321,0.423,0.789,3.28,0.571,4.619c-0.511,0.208-0.702,0.446-1.338,1.173
		c-0.521-0.455-1.109-0.839-1.726-1.133c0.193,0.576,0.535,0.942,0.535,1.848c0,0.985-0.342,1.272-0.535,1.848
		C205.786,8.065,206.37,7.684,206.886,7.234z"/>
	<path class="st1" d="M190.576,19.581c1.232,0.208,3.004-0.038,3.29-2.025c1.236,1.423,2.669,2.303,5.305,2.406
		c-0.026,0.394,0.507,1.166,0.525,1.596c0.741-0.228,0.563-1.338,0.932-1.858c2.493-0.786,2.533-3.668,3.81-5.279
		c-1.505-1.618-4.615-1.538-4.623-1.533c0.366-3.156-3.327,0.114-3.662-0.827c-0.114,1.276,2.293-0.101,1.965,0.814
		c-1.67,0.194-3.155,1.023-4.229,2.25c-0.804-1.249-2.273-0.372-3.314-0.868c0.325,0.973,0.152,0.913,1.303,2.073
		C190.158,17.034,191.754,18.744,190.576,19.581z M202.096,14.437c0.292,0,0.529,0.236,0.529,0.529c0,0.292-0.237,0.528-0.529,0.528
		c-0.292,0-0.529-0.236-0.529-0.528C201.568,14.673,201.805,14.437,202.096,14.437z M200.296,14.175
		c0.475,0,0.858,0.384,0.858,0.859c0,0.474-0.383,0.858-0.858,0.858c-0.474,0-0.858-0.385-0.858-0.858
		C199.438,14.559,199.822,14.175,200.296,14.175z"/>
	<path class="st1" d="M180.52,23.44c-0.659,1.884-2.801,3.631-3.192,4.799c1.263-0.163,3.61-2.422,4.874-4.2
		c0.514,2.395,3.668,4.161,6.055,4.161c0.387,0,0.77-0.029,1.142-0.084c0.301,0.309-0.307,0.912-0.856,1.046
		c1.882,0.571,2.642-0.304,2.233-1.38c1.527-0.52,2.835-1.035,3.813-2.317l0.627-1.027c0,0-0.381-0.2-2.263-0.628
		c0.627-0.297,1.51-0.235,1.51-0.235s-0.465-3.026-4.454-3.57c0.149-1.967-1.962-2.522-3.573-2.522
		c0.269,0.807,0.526,1.616,0.756,2.516c-2.006,0.233-3.337,0.704-4.628,2.177c2.347-8.09-8.018-9.662-10.999-12.006
		C172.71,17.437,182.627,17.41,180.52,23.44z M190.981,22.273c0.497,0,0.899,0.403,0.899,0.899c0,0.497-0.402,0.899-0.899,0.899
		c-0.497,0-0.898-0.402-0.898-0.899C190.083,22.675,190.485,22.273,190.981,22.273z"/>
	<path class="st1" d="M216.786,11.228c-1.354,0.157-2.558,0.829-3.429,1.824c-0.901-1.535-2.215-0.693-2.907-1.733
		c-0.239,0.781,0.227,2.134,1.278,2.71c-0.887,1.313-0.038,1.89-0.53,2.738c0.766,0,2.326-1.262,2.14-1.745
		c1.003,1.154,2.234,1.606,3.845,1.606c0.262,0,0.829,1.609-1.027,2.449c1.993,0.424,3.827-0.561,3.409-2.653
		c1.15-0.077,4.413-0.692,4.413-2.157l-3.164,0.068l1.974-1.169c-0.11-1.312-1.738-2.066-4.146-2.024
		c-0.116-1.041-0.876-1.472-2.472-1.472C216.844,10.114,216.998,10.552,216.786,11.228z M220.573,12.521
		c0.273,0,0.494,0.221,0.494,0.494c0,0.273-0.221,0.494-0.494,0.494c-0.273,0-0.494-0.221-0.494-0.494
		C220.079,12.743,220.3,12.521,220.573,12.521z"/>
	<path class="st1" d="M187.3,31.702c-0.758-1.365-4.43-4.828-5.355-5.268c0.107,0.32,0.181,0.907,0.072,1.447
		c-0.37-0.903-2.221-0.226-2.221-0.226s0.474,0.34,0.761,0.877c-0.636,0.065-1.331,0.446-1.331,0.446s0.253,0.129,0.53,0.372
		c-0.711,0.331-1.343,0.81-1.861,1.4c-0.729-0.639-1.554-1.178-2.419-1.59c0.269,0.809,0.748,1.322,0.748,2.593
		c0,1.381-0.479,1.784-0.748,2.592c0.858-0.409,1.676-0.942,2.401-1.574c0.842,0.969,1.677,1.662,2.86,1.88
		c-0.045,0.299-0.171,0.602-0.439,0.868c-0.272,0.271,0.704,0.137,1.403-0.34c-0.012,0.372-0.092,0.866-0.083,1.078
		C182.316,35.888,186.613,32.94,187.3,31.702z M184.931,31.126c0.255,0,0.461,0.206,0.461,0.462c0,0.255-0.206,0.462-0.461,0.462
		c-0.255,0-0.463-0.207-0.463-0.462C184.468,31.333,184.675,31.126,184.931,31.126z M182.822,30.767
		c0.454,0,0.821,0.367,0.821,0.821c0,0.453-0.366,0.821-0.821,0.821c-0.453,0-0.82-0.367-0.82-0.821
		C182.001,31.135,182.369,30.767,182.822,30.767z"/>
	<path class="st1" d="M239.863,25.399c0,0-0.249,0.002-0.639,0.005l-0.667-1.506l-0.675,1.515c-0.063,0-0.127,0.001-0.191,0.001
		l-0.659-1.017l-0.665,1.022c-0.072,0-0.144,0-0.214,0l-0.647-0.524l-0.646,0.518c-0.166-0.002-0.278-0.006-0.319-0.011
		c-0.118-0.014-0.426-0.249-0.145-0.57c0.344-0.393,4.235-1.631,4.235-1.631c-0.888-2.361-2.878-3.417-5.083-3.343
		c-0.272-1.005-1.793-1.909-3.415-1.532c0.238,0.197,0.472,0.537,0.62,0.932c-0.674-0.126-1.609,0.216-1.609,0.216
		s0.538,0.385,0.815,0.986c-0.517-0.053-1.017,0.019-1.017,0.019s0.305,0.334,0.494,0.813c-1.21,0.696-1.807,1.372-3.195,2.618
		c-0.808-2.228-3.479-2.383-5.476-2.821c2.719,2.048,3.211,4.938,0.58,7.494c2.241,0.225,4.376-0.971,4.991-2.402
		c0.106,0.177,0.3,0.368,0.557,0.565c-0.018,0.48-0.177,1.04-0.737,1.395c-0.445,0.285,1.575,0.322,2.159-0.567
		c1.982,0.939,4.926,1.718,6.727,1.368c0.234,0.279,0.416,0.991,0.263,1.979c0.636-0.513,1.461-1.531,1.743-2.344
		C239.227,28.416,240.336,26.323,239.863,25.399z M234.693,21.903h1.333c0.003,0.027,0.008,0.053,0.008,0.082
		c0,0.373-0.302,0.674-0.674,0.674c-0.373,0-0.674-0.302-0.674-0.674C234.685,21.957,234.689,21.93,234.693,21.903z"/>
	<path class="st1" d="M223.77,16.643c-0.368-0.535-1.924-0.323-3.132,0.45c0.93,0.055,1.286,0.427,1.286,1.451
		c0,0.794-1.375,1.336-2.49,1.779c5.145,1.509,4.219-2.212,4.331-2.905c0.155,0.847,0.321,3.577,2.484,3.193
		c-0.357,0.834,0.1,1.781,0.109,2.011c0.233-0.243,1.533-1.259,0.669-2.184c0.143-0.04,0.292-0.103,0.441-0.184
		c0.036,0.593,0.416,1.1,0.457,1.254c0.136-0.223,0.909-1.169,0.262-1.768c0.787-0.696,1.444-1.729,1.369-2.436l-1.563,0.036
		l0.986-0.819c-0.46-0.479-1.04-0.833-1.693-0.997v-0.013c-0.004,0.003-0.008,0.006-0.013,0.01c-0.49-0.448-0.857-1.033-2.468-1.106
		c0.419,0.288,0.635,0.72,0.737,1.119C224.651,15.637,224.344,15.986,223.77,16.643z M227.761,16.31c0.17,0,0.308,0.138,0.308,0.308
		s-0.138,0.308-0.308,0.308s-0.308-0.138-0.308-0.308S227.59,16.31,227.761,16.31z M226.641,16.424c0.273,0,0.494,0.221,0.494,0.494
		s-0.221,0.494-0.494,0.494c-0.272,0-0.493-0.222-0.493-0.494S226.369,16.424,226.641,16.424z"/>
	<path class="st1" d="M192.828,35.035c0.186-0.194,1.224-1.005,0.535-1.743c0.917-0.257,2.107-1.665,2.019-2.502l-1.248,0.029
		l0.788-0.654c-0.367-0.382-0.831-0.664-1.352-0.796v-0.011c-0.002,0.002-0.006,0.005-0.009,0.008
		c-0.392-0.358-0.684-0.824-1.97-0.884c0.334,0.23,0.506,0.575,0.588,0.894c-0.712,0.083-0.958,0.363-1.416,0.886
		c-0.294-0.427-2.682-0.643-3.646-0.026c0.743,0.044,2.172,0.726,2.172,1.544c0,0.634-1.098,1.066-1.988,1.42
		c4.108,1.205,3.368-1.767,3.458-2.319c0.124,0.676,0.257,2.855,1.984,2.548C192.456,34.096,192.821,34.852,192.828,35.035z
		 M192.661,30.483c0-0.219,0.177-0.395,0.394-0.395c0.218,0,0.394,0.176,0.394,0.395c0,0.217-0.176,0.394-0.394,0.394
		C192.837,30.878,192.661,30.7,192.661,30.483z"/>
	<path class="st1" d="M214.371,19.528c1.259-0.452,1.08-2.505-0.887-3.103c0.492,0.903-2.12,1.297-1.868,3.03
		c-2.633,0.306-4.93,2.348-6.626,4.281c-0.51-2.301-2.894-1.888-4.026-3.396c-0.428,2.39,0.681,4.217,1.851,4.566
		c-1.191,0.636-1.922,2.75-1.553,4.806c1.369-1.706,2.842-0.996,3.651-2.878c1.524,1.756,3.981,3.081,6.301,3.541
		c-0.088,0.269-0.618,0.608-1.061,1.075c2.502,0.338,3.169-0.383,3.463-1.064c0.013-0.002,0.02-0.004,0.034-0.006
		c0.517,0.101,0.213,0.7-0.499,1.553c3.683,1.488,3.66-1.249,3.64-2.03c2.957-0.563,4.148-1.78,5.133-3.646l-2.238-0.931
		l1.812-1.073C221.176,21.158,217.126,19.602,214.371,19.528z M217.662,24.588c-0.606,0-1.095-0.49-1.095-1.096
		c0-0.045,0.008-0.088,0.013-0.131h2.164c0.006,0.044,0.013,0.086,0.013,0.131C218.757,24.098,218.267,24.588,217.662,24.588z"/>
	<path class="st1" d="M233.418,30.578l0.304-0.375c-0.573-0.105-1.644-0.295-1.881-0.295v-0.012
		c-0.004,0.003-0.007,0.006-0.011,0.008c0.042-0.729-1.817-1.4-3.722-1.126c0.423,0.102,2.025,0.739,1.849,1.295
		c-0.294,0.045-0.782,0.256-1.302,0.849c-0.575-1.774-3.074-2.007-4.119-2.048c2.491,0.931,3.657,2.548,2.33,3.957
		c0.751,0.162,1.502-0.01,1.777-0.732c0.598,0.689,1.462,1.123,2.424,1.123c0.156,0-0.947,0.34-0.796,0.319
		c0.004,0.272,0.031,1.336-0.439,1.806c1.119-0.394,2.149-2.012,2.251-2.293c0.772-0.263,2.711-1.108,2.711-3.066l-0.706,0.282
		L233.418,30.578z M232.023,31.544c-0.373,0-0.674-0.302-0.674-0.674c0-0.028,0.004-0.054,0.008-0.082h1.333
		c0.003,0.027,0.008,0.054,0.008,0.082C232.697,31.242,232.395,31.544,232.023,31.544z"/>
	<path class="st1" d="M228.776,35.153c-0.027-0.756-0.237-1.651-2.737-1.733c1.632-3.792-3.431-3.432-3.828-4.094
		c0.027,1.593,2.778,1.833,1.978,3.978c-1.326,0.154-2.957,1.029-3.348,2.283c-0.132-0.614-1.631-1.996-3.108-2.338
		c0.784,0.713,1.477,2.366,2.196,2.738c-1.226,0.484-0.485,2.509-1.939,3.193c0.941,0.603,3.482,0.627,2.994-2.224
		c0.981,1.131,1.501,1.607,2.993,1.927c-1.026,0.391-1.724,0.842-2.462,2.628c2.462-1.621,3.913-0.636,4.941-2.924
		c1.266-0.43,2.684-1.465,3.095-2.902l-1.655-0.064L228.776,35.153z M226.307,37.127c-0.447,0-0.809-0.361-0.809-0.809
		c0-0.447,0.362-0.809,0.809-0.809c0.447,0,0.809,0.362,0.809,0.809C227.116,36.765,226.754,37.127,226.307,37.127z"/>
	<path class="st1" d="M218.517,37.324c0,0-1.95,0.041-2.751-0.657c1.579-0.061,2.463-0.595,2.463-0.595
		c-0.123-2.504-2.258-2.135-3.53-1.951c0,0-0.609,0.046-0.616,0.051c0.123-2.409-4.169-1.132-5.01-2.652
		c-0.335,0.63-0.306,2.13,1.314,2.609c-2.074-0.138-4.964,1.29-9.758-0.687c0.328-2.6-3.887-2.795-4.599-3.907
		c-0.246,2.293,0.634,3.251,3.015,4.427c-2.874-0.492-4.103-0.118-4.711,0.739c3.694,2.354,5.145,1.945,6.157,0.438
		c-1.58,6.132,8.302,7.897,14.181,4.88c0.469-0.241-2.074,1.278-1.599,1.494c1.536,0.698,0.828,2.127-0.472,3.16
		c3.438,0.329,4.234-1.906,3.733-5.134C216.95,39.264,218.232,38.195,218.517,37.324z M215.367,36.101
		c-0.236,0-0.428-0.191-0.428-0.428c0-0.235,0.191-0.428,0.428-0.428c0.236,0,0.427,0.192,0.427,0.428
		C215.794,35.91,215.603,36.101,215.367,36.101z"/>
	<path class="st1" d="M177.596,22.23c0.698,0.53,0.257,2.251,0.671,3.586c0.452-0.347,2.01-3.559,2.004-4.033
		c-0.18-0.66-2.154-2.877-2.575-2.877c-0.128,0.856,0.556,1.811-0.085,2.326c-0.975-0.844-0.665,0.039-0.755,0.412
		C176.798,21.886,175.928,22.437,177.596,22.23z M179.284,21.444c0.178,0,0.323,0.145,0.323,0.324c0,0.178-0.145,0.323-0.323,0.323
		c-0.179,0-0.324-0.144-0.324-0.323C178.96,21.588,179.105,21.444,179.284,21.444z"/>
	<path class="st1" d="M176.323,38.347c0.698,0.53-3.23,1.942-2.762,4.745c0.452-0.346,6.717-5.483,6.711-5.957
		c-0.103-1.246-4.339-2.1-4.761-2.1c-0.128,0.856,1.468,1.798,0.827,2.314c-1.303-1.091-1.303-1.091-1.818,0.463
		C174.174,38.853,174.202,38.862,176.323,38.347z M179.284,36.795c0.178,0,0.323,0.145,0.323,0.324c0,0.178-0.145,0.323-0.323,0.323
		c-0.179,0-0.324-0.144-0.324-0.323C178.96,36.94,179.105,36.795,179.284,36.795z"/>
	<path class="st1" d="M203.532,11.549c0.238,0.846,1.055,1.445,2.327,1.693c0.174,0.033,0.561,0.108,0.732,0.083
		c-0.169,0.329-1.092,0.377-0.915,1.09c0.239-0.249,1.877,0.1,1.677-1.069c2.006,0.171,2.395-0.817,2.1-1.464
		c-0.237-0.061-0.835-0.107-1.181-0.126c0.385-0.2,1.542-0.253,1.542-0.253c-0.157-1.497-1.051-1.608-2.219-1.834
		c0,0-0.671-1.556-2.41-0.929c0.428,0.285,0.465,0.387,0.57,0.798c-0.914,0.106-1.511,0.27-2.099,0.942
		c0.008-0.719-0.401-1.214-0.952-1.313c0.179,0.532,0.551,1.136-0.009,1.763c-0.638,0.714-1.452-0.095-2.122,1.217
		C202.227,12.509,203.055,11.964,203.532,11.549z M207.791,10.563c0.17,0,0.308,0.138,0.308,0.309s-0.138,0.308-0.308,0.308
		s-0.309-0.138-0.309-0.308S207.621,10.563,207.791,10.563z"/>
	<path class="st1" d="M213.322,9.159c-0.478,0.055-0.762,0.27-1.068,0.62c-0.251-0.219-0.534-0.404-0.832-0.546
		c0.093,0.278,0.258,0.454,0.258,0.89c0,0.475-0.164,0.613-0.258,0.892c0.295-0.141,0.576-0.325,0.825-0.541
		c0.317,0.365,0.761,0.607,1.26,0.653l-0.27,0.834c0,0,1.006-0.359,1.039-0.924c0.542-0.205,0.837-0.482,1.072-0.907
		c-0.26-0.469-0.696-0.818-1.215-0.949V9.174c-0.001,0.002-0.004,0.003-0.006,0.005c-0.47-0.604-0.706-0.799-1.126-0.799
		C213.066,8.571,213.267,8.945,213.322,9.159z M214.349,9.862c0.171,0,0.309,0.138,0.309,0.309c0,0.17-0.138,0.308-0.309,0.308
		c-0.17,0-0.308-0.138-0.308-0.308C214.041,10,214.179,9.862,214.349,9.862z"/>
	<path class="st1" d="M202.055,20.432c3.511,2.189,3.572-0.748,3.345-1.269c1.192,0.755,1.951,0.591,2.923,0.298
		c0.131,0.17-0.274,0.382-0.356,0.909c0.466-0.171,1.355-0.759,1.321-1.058c0.653-0.222,1.858-0.796,1.644-1.618
		c-0.961-0.021-0.475-1.614-2.281-1.72c0.246-2.165-2.627-0.414-3.928-1.125c0,1.012,1,1.125,2.365,1.125
		c-1.283,0.216-1.748,1.283-1.972,1.964c-1.305-0.53-0.798,1.513-2.413,1.253c0.568,0.554,1.401,0.858,1.885-0.528
		C204.826,20.452,203.185,19.796,202.055,20.432z M209.556,17.731c0.171,0,0.308,0.137,0.308,0.308c0,0.17-0.138,0.309-0.308,0.309
		c-0.17,0-0.308-0.139-0.308-0.309C209.248,17.868,209.386,17.731,209.556,17.731z"/>
	<path class="st1" d="M199.165,22.047v-0.009c-0.003,0.002-0.006,0.004-0.007,0.006c0.006-0.547-1.323-1.997-2.917-1.512
		c0.813,0.092,1.711,0.95,1.575,1.588c-0.271,0.05-0.675,0.263-0.974,0.674c-0.139-0.467-0.669-1.357-2.245-1.321
		c-0.149,1.843,1.717,1.324,1.719,1.865c0.001,0.587-0.513,0.223-0.497,0.988c0.835,0.016,1.007-0.286,1.019-0.673
		c0.439,0.502,0.539,0.871,1.431,0.967c0.175,0.268-0.14,0.559-0.133,0.711c0.911-0.103,1.142-0.434,1.181-0.705
		c0.528-0.043,1.406-0.479,1.497-1.371C200.489,22.674,199.808,22.206,199.165,22.047z M199.747,23.708
		c-0.17,0-0.309-0.138-0.309-0.308c0-0.171,0.138-0.309,0.309-0.309c0.17,0,0.309,0.138,0.309,0.309
		C200.055,23.57,199.917,23.708,199.747,23.708z"/>
	<path class="st1" d="M199.265,29.055c1.548-0.547,0.735-0.908,1.548-1.47c-0.244-0.841-1.756-1.118-1.759-1.116
		c-0.571-0.735-0.829-0.65-1.342-0.65c0.079,0.233,0.257,0.427,0.324,0.688c-0.58,0.068-0.86,0.59-1.233,1.017
		c-0.706-1.66-2.473-0.255-3.044-0.597c0.286,1.499,1.946,0.535,2.609,0.983c-1.233,0.279-1.56,0.984-1.238,1.671
		c0.383-0.943,1.587-0.238,1.664-1.211c0.386,0.444,0.927,0.739,1.535,0.794L198,30.18C198,30.18,199.223,29.743,199.265,29.055z
		 M199.319,27.198c0.17,0,0.308,0.138,0.308,0.309c0,0.17-0.138,0.308-0.308,0.308c-0.17,0-0.308-0.138-0.308-0.308
		C199.01,27.336,199.148,27.198,199.319,27.198z"/>
	<path class="st1" d="M216.436,46.737c-0.258-0.467-1.745-0.584-1.747-0.582c0.165-1.656-3.254-0.218-3.782-0.446
		c0.233,0.923,2.299,0.102,1.998,0.869c-0.474,0.054-0.701,0.482-1.006,0.83c-0.25-0.218-1.138-0.799-1.58-1.243
		c0.093,0.276,0.437,1.278,0.414,1.711c-0.067,1.234-0.687,2.046-0.899,2.68c0.357-0.156,1.942-1.426,2.058-2.459
		c0.314,0.363,0.672,0.97,1.816,0.626c0.265,0.556-4.886,2.119-5.016,5.341c1.356-1.255,6.126-3.892,6.17-5.589
		C215.589,48.431,216.822,47.875,216.436,46.737z M215.192,46.781c0.228,0,0.414,0.185,0.414,0.414c0,0.229-0.186,0.415-0.414,0.415
		c-0.23,0-0.416-0.186-0.416-0.415C214.776,46.967,214.962,46.781,215.192,46.781z"/>
	<path class="st1" d="M208.767,30.23c-0.126-0.314-0.896-0.413-2.002-0.49c0,0-1.36-1.531-1.798-1.552
		c0.058,0.203,0.343,1.014,0.072,1.56c-0.499,0.034-1.604,0.628-1.94,0.977c-0.242-0.863-2.414-1.011-3.197-0.274
		c1.198-0.046,1.363,0.744,2.335,0.806c-1.509,0.537-0.01,1.535-0.868,1.88c1.094,0.124,1.659-0.378,1.807-1.359
		c0.645,0.882,1.66,0.983,2.161,0.994c1.093,0.131,0.498,1.256,0.498,1.256c0.808-0.135,1.486-0.634,1.11-1.366
		C208.531,32.424,208.907,30.641,208.767,30.23z M207.641,30.911c-0.177,0-0.321-0.145-0.321-0.322c0-0.177,0.144-0.322,0.321-0.322
		c0.178,0,0.322,0.144,0.322,0.322C207.963,30.766,207.819,30.911,207.641,30.911z"/>
	<path class="st1" d="M221.558,30.93c0.006-0.504-0.846-1.253-2.316-0.805c0.749,0.085,1.118,0.535,1.078,0.876
		c-0.249,0.046-0.622,0.243-0.897,0.621c-0.129-0.431-0.618-1.252-2.07-1.217c-0.137,1.699,1.583,1.221,1.584,1.719
		c0.001,0.541-0.473,0.205-0.458,0.91c0.77,0.015,0.928-0.264,0.938-0.621c0.404,0.463,0.497,0.803,1.319,0.891
		c0.161,0.247-0.203,0.726-0.196,0.867c0.84-0.095,1.127-0.612,1.163-0.862c0.486-0.039,1.296-0.441,1.38-1.263
		c-0.299-0.534-0.927-0.965-1.518-1.112v-0.009C221.563,30.927,221.56,30.929,221.558,30.93z M221.924,31.723
		c0.17,0,0.308,0.138,0.308,0.308c0,0.171-0.138,0.309-0.308,0.309c-0.171,0-0.308-0.138-0.308-0.309
		C221.616,31.861,221.753,31.723,221.924,31.723z"/>
	<path class="st1" d="M220.151,40.742v-0.007c-0.001,0.001-0.004,0.002-0.006,0.005c0.041-0.945-2.326-0.874-2.853-1.102
		c0.285,1.311,1.999,0.87,2.053,1.082c-0.474,0.055-0.757,0.268-1.061,0.616c-0.25-0.217-0.785-0.813-1.291-0.875
		c0.092,0.275,0.325,0.986,0.363,1.417c0.114,1.284-0.72,2.198-1.607,3.249c0.993,0,2.648-2.031,2.528-3.1
		c0.315,0.362,1.008,0.71,1.56,0.633c-0.061,0.796-2.123,0.845-2.431,2.767c1.149-0.49,2.844-1.145,2.888-2.841
		c0.537-0.203,0.831-0.479,1.064-0.9C221.099,41.218,220.666,40.872,220.151,40.742z M220.215,42.129
		c-0.17,0-0.308-0.138-0.308-0.309s0.138-0.308,0.308-0.308c0.171,0,0.308,0.138,0.308,0.308S220.386,42.129,220.215,42.129z"/>
	<path class="st1" d="M211.822,43.463c-0.143-0.519-1.582-1.387-1.913-1.387c0.012,0.62-0.392,0.781-0.633,1.057
		c0.017-0.632-1.63-0.945-1.864-1.057c0.073,0.218,1.119,0.902,1.343,1.367c0.179,0.375-0.165,0.523,0.119,1.062
		c0.157-0.343,0.329-0.404,0.397-0.825c0.112,0.676,0.815,0.825,0.755,1.694C210.382,45.1,211.825,43.835,211.822,43.463z
		 M210.844,43.316c0.133,0,0.242,0.109,0.242,0.243c0,0.134-0.109,0.242-0.242,0.242c-0.135,0-0.243-0.109-0.243-0.242
		C210.601,43.425,210.709,43.316,210.844,43.316z"/>
</g>
</svg>
