<?xml version="1.0" encoding="utf-8"?>
<!-- Generator: Adobe Illustrator 21.1.0, SVG Export Plug-In . SVG Version: 6.00 Build 0)  -->
<svg version="1.1" id="Слой_1" xmlns="http://www.w3.org/2000/svg" xmlns:xlink="http://www.w3.org/1999/xlink" x="0px" y="0px"
	 viewBox="0 0 155.971 43.789" style="enable-background:new 0 0 155.971 43.789;" xml:space="preserve">
<style type="text/css">
	.st0{fill:#1D1D1B;}
</style>
<g>
	<g>
		<polygon class="st0" points="0,26.534 2.438,26.534 2.438,14.052 9.142,14.052 9.142,26.534 11.6,26.534 11.6,11.824 0,11.824 		
			"/>
		<path class="st0" d="M23.718,17.729c-0.385-0.491-0.865-0.879-1.439-1.166c-0.575-0.288-1.233-0.431-1.975-0.431
			c-0.729,0-1.416,0.143-2.059,0.431c-0.645,0.287-1.114,0.781-1.408,1.481c0-0.448-0.077-0.806-0.231-1.072
			c-0.154-0.265-0.361-0.462-0.62-0.588c-0.26-0.126-0.571-0.189-0.936-0.189c-0.365,0-0.756,0.042-1.177,0.126l0.021,1.575
			c0.294,0,0.515,0.035,0.662,0.105c0.147,0.071,0.252,0.179,0.315,0.327c0.063,0.147,0.095,0.329,0.095,0.546
			c0,0.218,0,0.473,0,0.768v12.105h2.29v-5.905c0.42,0.252,0.848,0.441,1.282,0.567c0.434,0.126,0.862,0.203,1.282,0.231
			c0.672,0.028,1.317-0.074,1.933-0.304c0.616-0.231,1.156-0.579,1.619-1.041c0.462-0.462,0.829-1.022,1.103-1.681
			c0.274-0.659,0.41-1.394,0.41-2.206c0-0.686-0.098-1.349-0.294-1.986C24.394,18.784,24.103,18.22,23.718,17.729z M22.352,22.773
			c-0.147,0.392-0.347,0.725-0.599,0.999c-0.252,0.273-0.546,0.483-0.882,0.63c-0.337,0.147-0.694,0.228-1.072,0.242
			c-0.407,0.027-0.834-0.028-1.282-0.168c-0.448-0.14-0.882-0.358-1.302-0.652v-2.837c0-0.377,0.063-0.738,0.189-1.082
			c0.127-0.343,0.305-0.641,0.536-0.893c0.231-0.252,0.508-0.455,0.83-0.61c0.322-0.154,0.68-0.231,1.072-0.231
			c0.462,0,0.862,0.091,1.197,0.273c0.337,0.182,0.62,0.42,0.852,0.715c0.231,0.294,0.403,0.638,0.515,1.03
			c0.111,0.392,0.168,0.798,0.168,1.219C22.572,21.926,22.499,22.381,22.352,22.773z"/>
		<path class="st0" d="M35.465,17.445c-0.512-0.441-1.093-0.77-1.744-0.987c-0.651-0.217-1.313-0.319-1.986-0.305
			c-0.659,0.014-1.303,0.134-1.934,0.357c-0.63,0.225-1.19,0.553-1.681,0.988c-0.49,0.433-0.886,0.98-1.187,1.639
			c-0.302,0.66-0.452,1.423-0.452,2.291c0,0.883,0.154,1.657,0.462,2.323c0.308,0.665,0.711,1.219,1.209,1.66
			c0.497,0.441,1.064,0.771,1.702,0.988c0.638,0.217,1.293,0.326,1.965,0.326c0.672,0,1.327-0.109,1.965-0.326
			c0.637-0.217,1.208-0.547,1.713-0.988c0.504-0.441,0.911-0.994,1.22-1.66c0.308-0.666,0.461-1.44,0.461-2.323
			c0-0.883-0.157-1.656-0.472-2.322C36.39,18.44,35.976,17.887,35.465,17.445z M34.624,22.858c-0.175,0.406-0.403,0.745-0.683,1.019
			c-0.281,0.273-0.603,0.48-0.967,0.62c-0.364,0.14-0.735,0.211-1.114,0.211c-0.392,0-0.774-0.067-1.145-0.201
			c-0.372-0.133-0.704-0.336-0.998-0.609c-0.294-0.273-0.529-0.616-0.704-1.03c-0.175-0.413-0.263-0.893-0.263-1.439
			c0-0.532,0.084-1.002,0.252-1.408c0.169-0.406,0.392-0.743,0.673-1.008c0.28-0.266,0.599-0.47,0.956-0.61
			c0.357-0.14,0.725-0.216,1.104-0.231c0.392-0.014,0.777,0.045,1.156,0.178c0.378,0.134,0.715,0.337,1.009,0.61
			c0.295,0.274,0.533,0.617,0.715,1.029c0.181,0.413,0.273,0.894,0.273,1.44C34.887,21.974,34.799,22.45,34.624,22.858z"/>
		<polygon class="st0" points="44.67,21.491 40.089,16.406 39.374,16.406 39.374,26.534 41.56,26.534 41.56,20.882 44.565,24.223 
			44.775,24.223 47.801,20.882 47.801,26.534 50.007,26.534 50.007,16.406 49.293,16.406 		"/>
		<path class="st0" d="M61.269,17.887c-0.378-0.526-0.889-0.935-1.534-1.23c-0.645-0.293-1.409-0.44-2.291-0.44
			c-0.687,0-1.345,0.105-1.976,0.315c-0.63,0.21-1.184,0.525-1.66,0.945c-0.477,0.42-0.862,0.945-1.156,1.576
			c-0.294,0.631-0.448,1.366-0.462,2.207c-0.029,0.855,0.097,1.625,0.378,2.312c0.28,0.687,0.673,1.265,1.177,1.734
			c0.504,0.47,1.11,0.826,1.818,1.071c0.707,0.245,1.482,0.361,2.322,0.347c0.644,0,1.296-0.077,1.954-0.231
			c0.658-0.155,1.282-0.364,1.87-0.631l-0.294-1.702c-0.602,0.267-1.205,0.438-1.807,0.515c-0.602,0.076-1.226,0.115-1.87,0.115
			c-0.463,0-0.894-0.056-1.292-0.168c-0.399-0.112-0.749-0.277-1.05-0.495c-0.302-0.216-0.536-0.497-0.704-0.84
			c-0.168-0.343-0.252-0.746-0.252-1.208h7.482c0.168-0.84,0.196-1.619,0.084-2.332C61.893,19.032,61.648,18.412,61.269,17.887z
			 M54.439,20.503c0.154-0.798,0.501-1.419,1.041-1.86c0.539-0.441,1.187-0.662,1.944-0.662c0.364,0,0.707,0.05,1.03,0.148
			c0.322,0.098,0.606,0.252,0.851,0.462c0.245,0.21,0.438,0.473,0.578,0.788c0.14,0.315,0.203,0.69,0.189,1.125H54.439z"/>
		<path class="st0" d="M73.322,16.406h-7.145l-0.735,5.106c-0.071,0.448-0.134,0.869-0.189,1.261
			c-0.057,0.392-0.148,0.736-0.274,1.03c-0.125,0.294-0.298,0.525-0.514,0.693c-0.217,0.169-0.515,0.252-0.893,0.252H63.36h-0.041
			l0.063,4.119h2.06v-2.333h7.208v2.333h1.974l0.064-4.119h-1.366V16.406z M71.116,24.748h-4.518c0.265-0.21,0.462-0.5,0.588-0.872
			c0.126-0.371,0.245-0.942,0.357-1.713l0.484-3.847h3.09V24.748z"/>
		<polygon class="st0" points="78.938,22.499 78.938,16.406 76.711,16.406 76.711,26.556 77.341,26.556 83.793,20.42 83.793,26.534 
			86,26.534 86,16.384 85.286,16.384 		"/>
		<path class="st0" d="M97.634,25.148c-0.14-0.056-0.242-0.143-0.304-0.263c-0.064-0.119-0.099-0.269-0.105-0.452
			c-0.008-0.182-0.012-0.392-0.012-0.63V19.81c0-0.7-0.125-1.282-0.378-1.744c-0.252-0.463-0.592-0.831-1.019-1.104
			c-0.428-0.273-0.922-0.465-1.483-0.578c-0.561-0.112-1.149-0.167-1.764-0.167c-0.673,0-1.335,0.055-1.986,0.167
			c-0.652,0.112-1.237,0.302-1.755,0.568l0.358,1.66c0.21-0.097,0.5-0.199,0.872-0.304c0.371-0.105,0.77-0.185,1.198-0.241
			c0.427-0.056,0.862-0.081,1.302-0.074c0.442,0.007,0.84,0.07,1.198,0.189c0.357,0.119,0.651,0.305,0.883,0.557
			c0.231,0.252,0.347,0.588,0.347,1.009v1.261c-0.448-0.252-0.939-0.424-1.471-0.515c-0.532-0.091-1.044-0.137-1.534-0.137
			c-0.659,0-1.233,0.087-1.723,0.263c-0.491,0.176-0.897,0.414-1.219,0.715c-0.323,0.301-0.567,0.655-0.736,1.061
			c-0.168,0.406-0.252,0.847-0.252,1.324c0,0.392,0.074,0.768,0.221,1.124c0.147,0.357,0.375,0.676,0.683,0.957
			c0.308,0.28,0.686,0.504,1.135,0.672c0.448,0.168,0.98,0.252,1.596,0.252c0.351,0,0.711-0.035,1.083-0.105
			c0.371-0.07,0.725-0.181,1.061-0.336c0.336-0.153,0.641-0.35,0.914-0.588c0.273-0.238,0.494-0.526,0.662-0.861
			c0.014,0.505,0.097,0.894,0.252,1.166c0.154,0.273,0.36,0.466,0.619,0.577c0.259,0.112,0.561,0.158,0.904,0.137
			c0.343-0.021,0.718-0.074,1.125-0.158l-0.042-1.366C97.984,25.218,97.774,25.204,97.634,25.148z M94.618,23.666
			c-0.189,0.315-0.416,0.567-0.683,0.756c-0.265,0.189-0.557,0.326-0.872,0.41c-0.315,0.084-0.619,0.126-0.913,0.126
			c-0.644,0-1.114-0.134-1.408-0.4c-0.295-0.266-0.442-0.595-0.442-0.988c0-0.546,0.196-0.963,0.588-1.25
			c0.392-0.287,0.862-0.431,1.408-0.431c0.504,0,1.016,0.06,1.534,0.179c0.518,0.119,0.904,0.255,1.156,0.409
			C94.93,22.955,94.807,23.351,94.618,23.666z"/>
	</g>
	<g>
		<path class="st0" d="M129.174,5.859c0.593,0.684,1.454,1.243,2.412,1.11c0.257,0.319,0.248,1.379,0.257,1.587
			c0.207-0.219,0.565-1.5,0.741-1.75c0.766-0.261,1.406-0.81,1.803-1.525c-0.438-0.787-1.215-1.624-2.054-1.598
			c0.037-1.533-1.865-3.576-2.527-3.682c0.26,0.343,0.639,2.657,0.462,3.742c-0.414,0.168-0.568,0.361-1.084,0.95
			c-0.422-0.368-0.898-0.679-1.398-0.918c0.156,0.467,0.433,0.763,0.433,1.497c0,0.798-0.277,1.03-0.433,1.497
			C128.283,6.532,128.755,6.224,129.174,5.859z"/>
		<path class="st0" d="M115.963,15.86c0.998,0.168,2.433-0.031,2.665-1.64c1.001,1.153,2.161,1.866,4.297,1.948
			c-0.021,0.319,0.411,0.944,0.426,1.293c0.6-0.185,0.456-1.084,0.755-1.505c2.019-0.637,2.052-2.971,3.086-4.275
			c-1.219-1.31-3.738-1.246-3.745-1.242c0.297-2.556-2.695,0.093-2.966-0.67c-0.093,1.034,1.857-0.082,1.592,0.66
			c-1.353,0.157-2.556,0.828-3.426,1.822c-0.651-1.011-1.841-0.301-2.684-0.703c0.263,0.788,0.123,0.739,1.056,1.679
			C115.625,13.797,116.918,15.182,115.963,15.86z M125.294,11.693c0.237,0,0.429,0.191,0.429,0.428c0,0.236-0.192,0.428-0.429,0.428
			c-0.236,0-0.428-0.192-0.428-0.428C124.866,11.885,125.058,11.693,125.294,11.693z M123.836,11.481
			c0.385,0,0.695,0.311,0.695,0.696c0,0.384-0.31,0.695-0.695,0.695c-0.384,0-0.695-0.311-0.695-0.695
			C123.141,11.792,123.452,11.481,123.836,11.481z"/>
		<path class="st0" d="M107.818,18.985c-0.533,1.526-2.269,2.941-2.585,3.887c1.023-0.132,2.924-1.962,3.948-3.402
			c0.416,1.94,2.971,3.37,4.904,3.37c0.314,0,0.623-0.024,0.925-0.068c0.244,0.251-0.249,0.739-0.693,0.847
			c1.524,0.462,2.14-0.246,1.809-1.117c1.237-0.421,2.296-0.839,3.088-1.877l0.508-0.832c0,0-0.309-0.162-1.833-0.508
			c0.508-0.24,1.223-0.19,1.223-0.19s-0.377-2.451-3.607-2.892c0.121-1.593-1.589-2.043-2.894-2.043
			c0.218,0.654,0.426,1.309,0.613,2.038c-1.625,0.188-2.703,0.57-3.749,1.763c1.901-6.552-6.494-7.825-8.909-9.724
			C101.493,14.123,109.525,14.101,107.818,18.985z M116.291,18.04c0.402,0,0.728,0.326,0.728,0.728c0,0.403-0.326,0.728-0.728,0.728
			c-0.402,0-0.728-0.326-0.728-0.728C115.564,18.366,115.889,18.04,116.291,18.04z"/>
		<path class="st0" d="M137.192,9.094c-1.097,0.128-2.072,0.671-2.778,1.477c-0.73-1.243-1.794-0.562-2.355-1.404
			c-0.193,0.632,0.184,1.729,1.035,2.195c-0.718,1.063-0.031,1.53-0.43,2.218c0.62,0,1.884-1.022,1.734-1.413
			c0.813,0.935,1.81,1.301,3.114,1.301c0.212,0,0.671,1.303-0.832,1.984c1.614,0.343,3.099-0.454,2.761-2.149
			c0.931-0.062,3.574-0.561,3.574-1.747l-2.562,0.055l1.599-0.947c-0.089-1.063-1.408-1.673-3.358-1.64
			c-0.094-0.843-0.71-1.193-2.002-1.193C137.239,8.192,137.364,8.546,137.192,9.094z M140.259,10.142c0.221,0,0.4,0.179,0.4,0.4
			c0,0.221-0.179,0.4-0.4,0.4c-0.221,0-0.4-0.179-0.4-0.4C139.859,10.321,140.038,10.142,140.259,10.142z"/>
		<path class="st0" d="M113.31,25.678c-0.614-1.106-3.588-3.91-4.337-4.267c0.087,0.26,0.146,0.734,0.058,1.172
			c-0.3-0.731-1.799-0.183-1.799-0.183s0.384,0.275,0.617,0.711c-0.515,0.053-1.078,0.361-1.078,0.361s0.205,0.104,0.43,0.301
			c-0.576,0.268-1.088,0.656-1.508,1.134c-0.591-0.517-1.259-0.954-1.959-1.288c0.218,0.655,0.606,1.071,0.606,2.1
			c0,1.119-0.388,1.445-0.606,2.1c0.695-0.331,1.358-0.763,1.944-1.275c0.682,0.785,1.359,1.346,2.317,1.523
			c-0.036,0.242-0.138,0.487-0.356,0.703c-0.22,0.22,0.57,0.111,1.136-0.275c-0.009,0.301-0.074,0.702-0.067,0.873
			C109.273,29.067,112.753,26.68,113.31,25.678z M111.391,25.211c0.207,0,0.373,0.167,0.373,0.374c0,0.207-0.167,0.374-0.373,0.374
			c-0.207,0-0.375-0.167-0.375-0.374C111.016,25.378,111.184,25.211,111.391,25.211z M109.682,24.92
			c0.368,0,0.665,0.298,0.665,0.665c0,0.367-0.297,0.665-0.665,0.665c-0.367,0-0.664-0.298-0.664-0.665
			C109.018,25.218,109.316,24.92,109.682,24.92z"/>
		<path class="st0" d="M155.884,20.572c0,0-0.202,0.002-0.518,0.004l-0.54-1.22l-0.547,1.227c-0.051,0-0.103,0.001-0.155,0.001
			l-0.533-0.824l-0.538,0.828c-0.058,0-0.116,0-0.173,0l-0.524-0.424l-0.523,0.419c-0.134-0.002-0.225-0.005-0.258-0.009
			c-0.096-0.012-0.345-0.202-0.118-0.462c0.278-0.319,3.43-1.321,3.43-1.321c-0.719-1.912-2.331-2.768-4.117-2.708
			c-0.22-0.814-1.453-1.546-2.766-1.241c0.193,0.16,0.382,0.435,0.502,0.755c-0.546-0.102-1.304,0.175-1.304,0.175
			s0.436,0.312,0.66,0.798c-0.418-0.043-0.824,0.015-0.824,0.015s0.247,0.27,0.4,0.658c-0.98,0.564-1.464,1.111-2.588,2.121
			c-0.654-1.805-2.818-1.93-4.436-2.285c2.202,1.659,2.601,4,0.47,6.07c1.815,0.182,3.544-0.787,4.043-1.945
			c0.086,0.143,0.243,0.298,0.451,0.457c-0.015,0.389-0.144,0.842-0.597,1.13c-0.361,0.231,1.276,0.261,1.749-0.459
			c1.605,0.76,3.989,1.392,5.449,1.108c0.189,0.226,0.337,0.802,0.213,1.603c0.515-0.415,1.183-1.24,1.412-1.899
			C155.369,23.016,156.266,21.32,155.884,20.572z M151.696,17.741h1.079c0.003,0.022,0.007,0.043,0.007,0.066
			c0,0.302-0.245,0.546-0.546,0.546c-0.302,0-0.546-0.245-0.546-0.546C151.689,17.784,151.693,17.763,151.696,17.741z"/>
		<path class="st0" d="M142.849,13.48c-0.298-0.433-1.559-0.261-2.537,0.365c0.754,0.044,1.041,0.346,1.041,1.175
			c0,0.643-1.114,1.082-2.017,1.441c4.167,1.222,3.417-1.792,3.508-2.353c0.126,0.686,0.26,2.897,2.012,2.586
			c-0.289,0.675,0.081,1.442,0.088,1.629c0.188-0.197,1.242-1.02,0.542-1.769c0.116-0.032,0.236-0.083,0.357-0.149
			c0.029,0.48,0.337,0.891,0.37,1.015c0.11-0.181,0.736-0.947,0.213-1.432c0.638-0.564,1.169-1.4,1.109-1.973l-1.266,0.029
			l0.799-0.664c-0.372-0.388-0.843-0.675-1.371-0.808v-0.011c-0.003,0.003-0.007,0.005-0.01,0.008
			c-0.397-0.363-0.695-0.836-1.999-0.896c0.339,0.234,0.514,0.583,0.597,0.907C143.563,12.665,143.314,12.948,142.849,13.48z
			 M146.081,13.21c0.138,0,0.25,0.112,0.25,0.25s-0.112,0.25-0.25,0.25s-0.25-0.112-0.25-0.25S145.943,13.21,146.081,13.21z
			 M145.175,13.303c0.221,0,0.4,0.179,0.4,0.4s-0.179,0.4-0.4,0.4c-0.22,0-0.4-0.179-0.4-0.4S144.954,13.303,145.175,13.303z"/>
		<path class="st0" d="M117.787,28.377c0.151-0.157,0.991-0.814,0.433-1.412c0.743-0.208,1.707-1.349,1.635-2.027l-1.011,0.023
			l0.638-0.53c-0.298-0.309-0.673-0.538-1.095-0.644v-0.009c-0.002,0.002-0.005,0.004-0.008,0.006
			c-0.318-0.29-0.554-0.668-1.596-0.716c0.271,0.187,0.41,0.466,0.476,0.724c-0.577,0.067-0.776,0.294-1.147,0.718
			c-0.238-0.346-2.172-0.521-2.953-0.021c0.602,0.036,1.759,0.588,1.759,1.25c0,0.513-0.889,0.864-1.611,1.15
			c3.327,0.976,2.728-1.431,2.801-1.878c0.1,0.547,0.208,2.313,1.607,2.064C117.486,27.616,117.782,28.229,117.787,28.377z
			 M117.652,24.69c0-0.177,0.143-0.32,0.319-0.32c0.176,0,0.319,0.143,0.319,0.32c0,0.176-0.143,0.319-0.319,0.319
			C117.795,25.009,117.652,24.866,117.652,24.69z"/>
		<path class="st0" d="M135.236,15.817c1.02-0.366,0.875-2.029-0.718-2.514c0.399,0.731-1.717,1.051-1.513,2.454
			c-2.132,0.248-3.993,1.901-5.367,3.468c-0.413-1.863-2.344-1.529-3.261-2.751c-0.347,1.936,0.551,3.415,1.499,3.698
			c-0.965,0.515-1.556,2.228-1.258,3.892c1.109-1.382,2.302-0.807,2.957-2.331c1.234,1.422,3.225,2.496,5.104,2.868
			c-0.071,0.218-0.5,0.493-0.859,0.871c2.027,0.274,2.567-0.31,2.805-0.862c0.01-0.002,0.017-0.003,0.027-0.005
			c0.419,0.082,0.172,0.567-0.404,1.258c2.983,1.205,2.964-1.011,2.948-1.644c2.395-0.456,3.36-1.442,4.157-2.953l-1.813-0.754
			l1.468-0.869C140.748,17.137,137.467,15.877,135.236,15.817z M137.902,19.915c-0.491,0-0.887-0.397-0.887-0.888
			c0-0.036,0.006-0.071,0.011-0.106h1.752c0.005,0.035,0.011,0.07,0.011,0.106C138.789,19.519,138.392,19.915,137.902,19.915z"/>
		<path class="st0" d="M150.664,24.767l0.246-0.304c-0.464-0.085-1.332-0.239-1.523-0.239v-0.009
			c-0.003,0.002-0.006,0.005-0.009,0.007c0.034-0.591-1.471-1.134-3.014-0.912c0.342,0.082,1.64,0.599,1.498,1.049
			c-0.238,0.036-0.633,0.207-1.054,0.688c-0.465-1.437-2.49-1.625-3.336-1.659c2.017,0.754,2.962,2.064,1.888,3.205
			c0.608,0.131,1.216-0.008,1.439-0.593c0.485,0.558,1.184,0.909,1.964,0.909c0.126,0-0.767,0.276-0.645,0.258
			c0.003,0.22,0.025,1.082-0.356,1.463c0.907-0.319,1.74-1.629,1.823-1.857c0.625-0.213,2.196-0.898,2.196-2.483l-0.572,0.229
			L150.664,24.767z M149.533,25.549c-0.303,0-0.546-0.245-0.546-0.546c0-0.023,0.003-0.044,0.006-0.066h1.079
			c0.003,0.022,0.006,0.044,0.006,0.066C150.079,25.305,149.834,25.549,149.533,25.549z"/>
		<path class="st0" d="M146.904,28.472c-0.022-0.612-0.192-1.337-2.217-1.404c1.322-3.071-2.779-2.78-3.1-3.316
			c0.022,1.29,2.25,1.485,1.602,3.222c-1.074,0.125-2.395,0.833-2.711,1.85c-0.107-0.497-1.321-1.617-2.518-1.894
			c0.635,0.577,1.196,1.916,1.778,2.217c-0.993,0.392-0.393,2.032-1.571,2.587c0.762,0.489,2.82,0.508,2.425-1.802
			c0.795,0.916,1.216,1.302,2.424,1.561c-0.831,0.316-1.396,0.682-1.994,2.128c1.994-1.313,3.17-0.515,4.002-2.369
			c1.026-0.348,2.174-1.187,2.506-2.351l-1.34-0.052L146.904,28.472z M144.903,30.071c-0.362,0-0.655-0.293-0.655-0.655
			c0-0.362,0.293-0.655,0.655-0.655c0.362,0,0.655,0.293,0.655,0.655C145.559,29.778,145.266,30.071,144.903,30.071z"/>
		<path class="st0" d="M138.594,30.231c0,0-1.579,0.034-2.228-0.532c1.279-0.05,1.995-0.482,1.995-0.482
			c-0.1-2.028-1.829-1.729-2.859-1.581c0,0-0.493,0.037-0.499,0.041c0.099-1.951-3.377-0.917-4.058-2.148
			c-0.271,0.511-0.248,1.725,1.064,2.113c-1.68-0.111-4.021,1.045-7.903-0.556c0.266-2.106-3.148-2.264-3.725-3.165
			c-0.199,1.857,0.514,2.633,2.442,3.586c-2.328-0.399-3.324-0.096-3.816,0.599c2.992,1.906,4.167,1.575,4.987,0.355
			c-1.28,4.967,6.724,6.397,11.486,3.952c0.38-0.195-1.68,1.035-1.295,1.21c1.244,0.565,0.67,1.723-0.383,2.559
			c2.785,0.267,3.429-1.544,3.024-4.158C137.325,31.802,138.363,30.937,138.594,30.231z M136.042,29.24
			c-0.191,0-0.346-0.155-0.346-0.346c0-0.191,0.155-0.346,0.346-0.346c0.191,0,0.346,0.156,0.346,0.346
			C136.389,29.086,136.234,29.24,136.042,29.24z"/>
		<path class="st0" d="M105.45,18.005c0.565,0.429,0.208,1.823,0.544,2.905c0.366-0.281,1.628-2.883,1.623-3.267
			c-0.146-0.534-1.745-2.33-2.086-2.33c-0.104,0.693,0.45,1.466-0.069,1.884c-0.79-0.683-0.539,0.031-0.611,0.334
			C104.804,17.727,104.098,18.173,105.45,18.005z M106.817,17.368c0.144,0,0.262,0.117,0.262,0.262c0,0.144-0.117,0.261-0.262,0.261
			c-0.145,0-0.262-0.117-0.262-0.261C106.555,17.486,106.672,17.368,106.817,17.368z"/>
		<path class="st0" d="M104.419,31.059c0.565,0.429-2.616,1.573-2.237,3.844c0.366-0.281,5.44-4.441,5.435-4.825
			c-0.084-1.009-3.515-1.701-3.856-1.701c-0.104,0.693,1.189,1.456,0.67,1.874c-1.056-0.883-1.056-0.883-1.473,0.375
			C102.678,31.469,102.701,31.477,104.419,31.059z M106.817,29.803c0.144,0,0.262,0.117,0.262,0.262
			c0,0.144-0.117,0.261-0.262,0.261c-0.145,0-0.262-0.117-0.262-0.261C106.555,29.92,106.672,29.803,106.817,29.803z"/>
		<path class="st0" d="M126.457,9.354c0.193,0.685,0.855,1.17,1.885,1.371c0.141,0.027,0.454,0.088,0.593,0.067
			c-0.137,0.266-0.884,0.306-0.741,0.883c0.194-0.202,1.52,0.081,1.359-0.866c1.625,0.138,1.94-0.662,1.701-1.186
			c-0.192-0.049-0.676-0.087-0.956-0.102c0.312-0.162,1.249-0.205,1.249-0.205c-0.127-1.212-0.851-1.303-1.798-1.486
			c0,0-0.543-1.26-1.952-0.752c0.346,0.231,0.377,0.314,0.462,0.647c-0.74,0.086-1.224,0.219-1.7,0.763
			c0.006-0.582-0.325-0.983-0.771-1.064c0.145,0.431,0.446,0.92-0.008,1.428c-0.517,0.578-1.176-0.077-1.719,0.986
			C125.4,10.132,126.071,9.69,126.457,9.354z M129.907,8.555c0.138,0,0.25,0.112,0.25,0.25c0,0.138-0.112,0.25-0.25,0.25
			c-0.138,0-0.25-0.112-0.25-0.25C129.656,8.667,129.769,8.555,129.907,8.555z"/>
		<path class="st0" d="M134.387,7.419c-0.387,0.045-0.617,0.219-0.865,0.502c-0.204-0.177-0.433-0.327-0.674-0.442
			c0.076,0.225,0.209,0.368,0.209,0.721c0,0.385-0.133,0.497-0.209,0.722c0.239-0.114,0.466-0.263,0.668-0.438
			c0.257,0.295,0.617,0.492,1.021,0.529l-0.219,0.676c0,0,0.815-0.29,0.842-0.748c0.439-0.166,0.678-0.391,0.868-0.734
			c-0.211-0.38-0.564-0.663-0.984-0.769V7.431c-0.001,0.002-0.003,0.002-0.005,0.004c-0.38-0.489-0.571-0.647-0.912-0.647
			C134.179,6.942,134.342,7.245,134.387,7.419z M135.219,7.988c0.138,0,0.25,0.112,0.25,0.25c0,0.138-0.112,0.25-0.25,0.25
			c-0.138,0-0.249-0.112-0.249-0.25C134.969,8.1,135.08,7.988,135.219,7.988z"/>
		<path class="st0" d="M125.261,16.549c2.843,1.773,2.893-0.606,2.709-1.027c0.965,0.612,1.58,0.479,2.367,0.241
			c0.106,0.138-0.222,0.31-0.288,0.736c0.377-0.138,1.097-0.615,1.07-0.857c0.529-0.179,1.505-0.644,1.331-1.311
			c-0.778-0.017-0.384-1.307-1.847-1.393c0.199-1.754-2.128-0.335-3.182-0.911c0,0.82,0.81,0.911,1.915,0.911
			c-1.039,0.175-1.416,1.039-1.597,1.591c-1.057-0.429-0.647,1.226-1.954,1.015c0.46,0.449,1.135,0.695,1.527-0.428
			C127.505,16.565,126.176,16.034,125.261,16.549z M131.336,14.361c0.138,0,0.25,0.111,0.25,0.249s-0.111,0.251-0.25,0.251
			c-0.138,0-0.25-0.112-0.25-0.251S131.198,14.361,131.336,14.361z"/>
		<path class="st0" d="M122.92,17.857V17.85c-0.003,0.002-0.005,0.003-0.006,0.005c0.005-0.443-1.071-1.618-2.362-1.225
			c0.659,0.075,1.386,0.77,1.275,1.286c-0.219,0.041-0.547,0.213-0.789,0.546c-0.112-0.378-0.542-1.099-1.818-1.07
			c-0.121,1.492,1.391,1.073,1.392,1.511c0.001,0.475-0.416,0.18-0.403,0.8c0.676,0.013,0.816-0.232,0.825-0.545
			c0.356,0.407,0.436,0.705,1.159,0.783c0.142,0.217-0.114,0.453-0.108,0.576c0.738-0.084,0.925-0.351,0.957-0.571
			c0.427-0.035,1.138-0.388,1.212-1.11C123.992,18.365,123.441,17.986,122.92,17.857z M123.391,19.203
			c-0.138,0-0.25-0.112-0.25-0.249c0-0.138,0.112-0.25,0.25-0.25c0.138,0,0.25,0.112,0.25,0.25
			C123.641,19.091,123.529,19.203,123.391,19.203z"/>
		<path class="st0" d="M123.001,23.534c1.254-0.443,0.595-0.735,1.254-1.191c-0.198-0.681-1.422-0.906-1.425-0.904
			c-0.462-0.596-0.672-0.527-1.087-0.527c0.064,0.189,0.208,0.346,0.262,0.557c-0.47,0.055-0.696,0.478-0.999,0.824
			c-0.571-1.345-2.003-0.207-2.466-0.484c0.231,1.214,1.576,0.433,2.113,0.796c-0.998,0.226-1.264,0.797-1.003,1.353
			c0.31-0.764,1.286-0.193,1.348-0.981c0.313,0.36,0.751,0.598,1.243,0.643l-0.266,0.823
			C121.976,24.445,122.967,24.09,123.001,23.534z M123.044,22.029c0.138,0,0.25,0.112,0.25,0.25c0,0.138-0.112,0.25-0.25,0.25
			s-0.25-0.112-0.25-0.25C122.795,22.141,122.906,22.029,123.044,22.029z"/>
		<path class="st0" d="M136.909,37.855c-0.209-0.378-1.413-0.473-1.415-0.472c0.134-1.341-2.635-0.176-3.063-0.362
			c0.189,0.748,1.862,0.082,1.619,0.704c-0.384,0.044-0.568,0.39-0.815,0.672c-0.202-0.176-0.921-0.647-1.28-1.007
			c0.075,0.224,0.354,1.035,0.335,1.386c-0.054,0.999-0.556,1.657-0.728,2.171c0.289-0.126,1.573-1.155,1.667-1.991
			c0.255,0.294,0.544,0.786,1.471,0.507c0.214,0.45-3.957,1.716-4.063,4.326c1.099-1.016,4.962-3.153,4.997-4.527
			C136.223,39.227,137.222,38.777,136.909,37.855z M135.901,37.891c0.185,0,0.335,0.15,0.335,0.335c0,0.185-0.15,0.336-0.335,0.336
			c-0.186,0-0.337-0.151-0.337-0.336C135.564,38.041,135.715,37.891,135.901,37.891z"/>
		<path class="st0" d="M130.697,24.485c-0.102-0.255-0.726-0.335-1.622-0.397c0,0-1.102-1.24-1.456-1.257
			c0.047,0.164,0.278,0.821,0.058,1.264c-0.404,0.028-1.299,0.508-1.571,0.792c-0.196-0.699-1.956-0.819-2.589-0.222
			c0.971-0.038,1.104,0.602,1.891,0.653c-1.222,0.435-0.008,1.243-0.703,1.523c0.886,0.1,1.344-0.306,1.464-1.1
			c0.522,0.714,1.345,0.796,1.75,0.805c0.885,0.106,0.404,1.017,0.404,1.017c0.655-0.109,1.204-0.514,0.899-1.106
			C130.506,26.262,130.811,24.818,130.697,24.485z M129.785,25.037c-0.143,0-0.26-0.117-0.26-0.261c0-0.144,0.117-0.261,0.26-0.261
			c0.144,0,0.261,0.117,0.261,0.261C130.046,24.92,129.93,25.037,129.785,25.037z"/>
		<path class="st0" d="M141.057,25.052c0.005-0.408-0.685-1.015-1.875-0.652c0.607,0.069,0.905,0.433,0.873,0.709
			c-0.202,0.037-0.504,0.197-0.726,0.503c-0.104-0.349-0.5-1.014-1.677-0.986c-0.111,1.376,1.282,0.989,1.283,1.392
			c0.001,0.438-0.383,0.166-0.371,0.737c0.623,0.012,0.752-0.214,0.76-0.503c0.327,0.375,0.403,0.65,1.068,0.722
			c0.131,0.2-0.164,0.588-0.159,0.702c0.68-0.077,0.913-0.495,0.942-0.698c0.394-0.031,1.05-0.357,1.118-1.023
			c-0.242-0.432-0.751-0.782-1.23-0.9v-0.007C141.061,25.05,141.059,25.051,141.057,25.052z M141.354,25.694
			c0.138,0,0.25,0.112,0.25,0.25c0,0.138-0.112,0.25-0.25,0.25c-0.138,0-0.249-0.112-0.249-0.25
			C141.104,25.806,141.215,25.694,141.354,25.694z"/>
		<path class="st0" d="M139.917,32.999v-0.006c-0.001,0.001-0.003,0.002-0.005,0.004c0.033-0.766-1.884-0.708-2.311-0.893
			c0.231,1.062,1.619,0.704,1.663,0.877c-0.384,0.045-0.613,0.217-0.859,0.499c-0.202-0.176-0.636-0.659-1.046-0.708
			c0.075,0.223,0.263,0.798,0.294,1.148c0.093,1.04-0.583,1.78-1.302,2.631c0.804,0,2.145-1.645,2.047-2.511
			c0.255,0.293,0.816,0.575,1.263,0.513c-0.05,0.644-1.72,0.684-1.969,2.241c0.93-0.397,2.304-0.927,2.339-2.301
			c0.435-0.165,0.673-0.388,0.862-0.729C140.686,33.385,140.335,33.104,139.917,32.999z M139.969,34.122
			c-0.138,0-0.25-0.112-0.25-0.25c0-0.138,0.112-0.25,0.25-0.25c0.138,0,0.25,0.112,0.25,0.25
			C140.219,34.01,140.108,34.122,139.969,34.122z"/>
		<path class="st0" d="M133.171,35.203c-0.116-0.42-1.281-1.123-1.549-1.123c0.01,0.502-0.318,0.633-0.513,0.856
			c0.014-0.512-1.32-0.765-1.51-0.856c0.059,0.177,0.906,0.73,1.088,1.108c0.145,0.304-0.134,0.424,0.097,0.86
			c0.128-0.278,0.267-0.327,0.321-0.669c0.091,0.547,0.66,0.669,0.611,1.372C132.005,36.529,133.174,35.505,133.171,35.203z
			 M132.38,35.084c0.108,0,0.196,0.088,0.196,0.197c0,0.108-0.088,0.196-0.196,0.196c-0.109,0-0.197-0.088-0.197-0.196
			C132.182,35.172,132.27,35.084,132.38,35.084z"/>
	</g>
</g>
</svg>
