<svg aria-hidden="true" style="position: absolute; width: 0; height: 0; overflow: hidden;" version="1.1" xmlns="http://www.w3.org/2000/svg" xmlns:xlink="http://www.w3.org/1999/xlink">
<defs>
<symbol id="icon-a" viewBox="0 0 32 32">
<title>a</title>
<path d="M23.317 4.825c-1.906-1.167-3.874-2.242-5.81-3.36-1.3-0.75-2.743-1.655-4.316-1.431-1.334 0.19-2.563 1.168-3.699 1.828-1.492 0.867-2.983 1.734-4.475 2.6-0.033 0.019-0.062 0.041-0.087 0.064-2.156 1.472-1.645 4.786-1.651 7.075-0.006 2.331-0.243 4.805 0.133 7.118 0.57 3.506 3.014 6.62 6.039 8.366 2.22 1.281 4.44 2.563 6.66 3.845 0.661 0.382 1.724 1.256 2.548 1.033 0.061-0.007 0.126-0.029 0.193-0.067 1.59-0.924 3.18-1.848 4.77-2.772 0.703-0.409 1.407-0.817 2.11-1.226 0.295-0.171 0.493-0.435 0.56-0.77 0.204-1.019-0.104-2.015-0.806-2.702 1.513-0.799 3.214-1.557 3.407-3.426 0.229-2.221 0.081-4.549 0.050-6.781-0.174-3.739-2.444-7.446-5.627-9.395zM28.019 20.609c-0.016 0.675-0.135 1.356-0.75 1.714-0.946 0.55-1.892 1.099-2.838 1.649-0.214 0.124-0.27 0.391-0.173 0.594l-2.928 1.701c0.418-0.711 0.399-1.713 0.401-2.494 0.007-2.555 0.32-5.341-0.359-7.832-0.011-0.040-0.025-0.081-0.036-0.121 2.122-1.225 4.245-2.451 6.367-3.676 0.186 0.681 0.302 1.378 0.334 2.075 0.028 2.127 0.031 4.263-0.019 6.39zM14.762 29.362c-1.926-1.112-3.905-2.163-5.783-3.356-3.256-2.068-5.068-5.864-5.057-9.638 0.007-2.541 0.014-5.083 0.022-7.624 0.004-1.505 0.182-3.275 1.791-3.893 1.429-0.548 2.929 0.343 4.139 1.042 1.971 1.138 3.941 2.275 5.912 3.413 0.001 0.001 0.003 0.002 0.005 0.003 3.274 1.953 5.511 5.683 5.501 9.51-0.003 1.204-0.007 2.408-0.010 3.613-0.003 1.127 0.176 2.549-0.352 3.574-0.624 1.212-2.189 0.608-3.072 0.126-0.946-0.517-1.714-1.352-2.438-2.136-0.21-0.227-0.973-0.277-1.274-0.354-0.683-0.176-1.332-0.466-1.956-0.788-1.14-0.588-2.057-1.494-2.752-2.562-1.049-1.614-1.78-5.842 1.435-4.84 1.090 0.34 2.142 1.15 3.124 1.716 0.184 0.106 0.368-0.067 0.333-0.256-0.232-1.266-1.752-1.812-2.75-2.388-0.377-0.218-0.754-0.435-1.131-0.653-0.601-0.347-0.96-1.045-0.958-1.727 0.001-0.409 0.268-1.071 0.829-0.748 0.927 0.535 1.854 1.070 2.781 1.606 1.941 1.12 3.533 3.404 3.526 5.695-0.003 1.113-0.006 2.225-0.009 3.337-0.001 0.602-0.012 0.697 0.445 1.138 0.294 0.284 1.238 1.019 1.653 0.538 0.51-0.592 0.276-1.975 0.278-2.69 0.003-1.289 0.007-2.577 0.011-3.866 0.004-1.622-0.62-3.070-1.695-4.274-0.706-0.791-1.689-1.269-2.594-1.791-1.228-0.709-2.456-1.418-3.683-2.127-0.801-0.463-1.62-1.040-2.515-1.302-2.659-0.779-2.286 2.922-2.291 4.513-0.006 2.318-0.184 4.703 0.010 7.015 0.153 1.83 1.393 3.653 2.969 4.564 0.674 0.389 1.348 0.778 2.023 1.168 2.121 1.225 4.242 2.449 6.363 3.674 0.657 0.379 1.088 1.027 1.086 1.803-0.002 0.633-0.515 0.929-1.021 0.637-0.964-0.558-1.929-1.115-2.894-1.671zM21.2 15.375c-0.169-0.51-0.377-1.009-0.619-1.493 2.126-1.228 4.253-2.455 6.379-3.683 0.239 0.484 0.445 0.986 0.61 1.499-0.221 0.127-0.441 0.255-0.661 0.382-0.8 0.462-1.601 0.924-2.401 1.386-1.103 0.636-2.206 1.273-3.308 1.91zM25.441 7.889c0.212 0.248 0.413 0.509 0.605 0.778-2.126 1.227-4.251 2.455-6.377 3.681-0.327-0.469-0.688-0.916-1.077-1.335-0.362-0.398-0.753-0.769-1.166-1.109 1.731-0.999 3.463-1.999 5.194-2.999 0.367-0.212 0.733-0.423 1.1-0.635 0.613 0.47 1.189 0.994 1.722 1.618zM15.447 1.364c0.479 0.225 0.951 0.471 1.418 0.726-1.469 0.848-2.938 1.696-4.407 2.544-0.643 0.371-1.286 0.742-1.929 1.114-0.109-0.063-0.219-0.126-0.328-0.189-0.001-0-0.002-0.001-0.003-0.002-0.178-0.103-0.357-0.206-0.535-0.309-0.25-0.144-0.504-0.284-0.764-0.409 1.216-0.703 2.433-1.405 3.65-2.108 0.814-0.47 1.628-0.94 2.442-1.41 0.050-0.029 0.1-0.058 0.151-0.087 0.104 0.040 0.206 0.083 0.305 0.13zM24.507 24.803c0.488 0.309 0.813 0.776 0.913 1.323-0.228 0.132-0.457 0.264-0.685 0.396-0.799 0.462-1.599 0.923-2.399 1.385-1.093 0.631-2.187 1.263-3.281 1.894-0.135-0.534-0.437-1.007-0.866-1.35 2.106-1.216 4.212-2.432 6.318-3.648zM8.053 8.042c0.921 0.004 2.118 0.946 2.887 1.391 1.224 0.706 2.448 1.413 3.672 2.12 0.78 0.45 1.504 0.877 2.136 1.454-0.571 0.329-1.142 0.659-1.712 0.989-0.311-0.33-0.642-0.634-0.986-0.903-0.948-0.744-2.103-1.281-3.143-1.882-0.378-0.219-0.723-0.452-1.177-0.443-0.612 0.013-0.69 0.773-0.691 1.219-0.004 1.448 0.893 2.109 2.019 2.759 0.71 0.41 1.941 0.898 2.526 1.643-0.746-0.461-1.506-0.95-2.305-1.264-0.51-0.2-1.031-0.284-1.503-0.237-0.053-0.063-0.106-0.126-0.159-0.188-0.205 0.119-0.41 0.238-0.614 0.357-0.054 0.031-0.085 0.073-0.099 0.119-0.447 0.285-0.764 0.778-0.837 1.521-0.111 1.117 0.143 2.196 0.628 3.174-0.514 0.297-1.029 0.594-1.543 0.891-0.323-0.762-0.491-1.593-0.488-2.409 0.007-2.437 0.014-4.875 0.021-7.312 0-0.007 0-0.015 0-0.022 0.001-1.127-0.209-2.985 1.37-2.977zM18.548 18.234c-0.004 1.357-0.008 2.714-0.011 4.070-0.001 0.411 0.034 0.938-0.283 0.991-0.125 0.021-0.302-0.030-0.561-0.193-0.235-0.149-0.392-0.271-0.491-0.423 0.065-0.038 0.131-0.076 0.197-0.114-0.107-0.093-0.214-0.186-0.321-0.28-0.004-0.046-0.007-0.094-0.007-0.147 0-0.145 0.001-0.291 0.001-0.436 0.003-1.171 0.073-2.362-0.015-3.53-0.056-0.728-0.267-1.439-0.586-2.107 0.567-0.327 1.133-0.654 1.7-0.982 0.363 0.999 0.38 2.047 0.376 3.151zM16.264 15.66c-0.217-0.39-0.471-0.761-0.749-1.111-0.015-0.020-0.031-0.039-0.047-0.059-0.041-0.050-0.082-0.1-0.124-0.15 0.579-0.334 1.158-0.669 1.737-1.003 0.192 0.206 0.376 0.43 0.546 0.68 0.144 0.212 0.264 0.426 0.367 0.643-0.577 0.333-1.154 0.666-1.73 0.999zM8.306 22.471c-0.014-0.017-0.043-0.045-0.095-0.098-0.129-0.135-0.25-0.283-0.363-0.431-0.186-0.243-0.35-0.502-0.498-0.769 0.519-0.3 1.038-0.599 1.557-0.899 0.268 0.465 0.588 0.902 0.944 1.306-0.514 0.297-1.029 0.595-1.544 0.892zM17.765 28.171c-0.014-0.008-0.028-0.018-0.042-0.026-2.177-1.257-4.353-2.513-6.53-3.77-0.664-0.383-1.335-0.755-1.988-1.156-0.202-0.124-0.392-0.263-0.571-0.413 0.511-0.295 1.023-0.591 1.535-0.886 0.045 0.046 0.088 0.092 0.134 0.137 0.721 0.707 1.633 1.243 2.565 1.619 0.569 0.229 1.145 0.397 1.737 0.556 0.659 0.177 0.991 0.623 1.457 1.079 0.837 0.818 2.154 1.814 3.431 1.865-0.576 0.332-1.151 0.664-1.727 0.996zM20.369 13.48c-0.14-0.256-0.289-0.507-0.448-0.752 2.127-1.228 4.254-2.456 6.381-3.684 0.159 0.244 0.309 0.495 0.449 0.752-2.127 1.228-4.255 2.456-6.382 3.684zM17.037 9.606c-0.328-0.248-0.667-0.48-1.018-0.689-1.679-0.969-3.358-1.938-5.036-2.908 2.114-1.22 4.228-2.441 6.343-3.662 1.316 0.744 2.602 1.564 3.899 2.312 0.735 0.424 1.436 0.847 2.096 1.318-2.094 1.209-4.189 2.419-6.284 3.628zM12.779 2.075c-1.473 0.851-2.946 1.701-4.42 2.552-0.396-0.153-0.806-0.271-1.241-0.335 1.398-0.812 2.795-1.625 4.193-2.436 0.547-0.318 1.18-0.812 1.826-0.904 0.432-0.062 0.929-0.022 1.418 0.098-0.592 0.342-1.184 0.684-1.776 1.025zM25.41 26.927c-0.008 0.039-0.038 0.096-0.034 0.103-0.087 0.087-0.191 0.137-0.303 0.202-0.308 0.179-0.615 0.357-0.923 0.537-0.477 0.277-0.954 0.554-1.431 0.831-1.194 0.694-2.389 1.388-3.584 2.082 0.007-0.137 0.006-0.271-0.005-0.401 1.571-0.907 3.143-1.815 4.715-2.722 0.534-0.309 1.068-0.617 1.603-0.926-0.007 0.096-0.019 0.193-0.038 0.292z"></path>
<path d="M14.22 19.698c-0.523-0.302-1.046-0.604-1.569-0.906-0.363-0.209-1.174-0.858-1.604-0.604-0.442 0.261-0.29 0.965-0.084 1.331 0.27 0.478 0.867 0.739 1.333 0.966 0.557 0.272 1.146 0.466 1.748 0.609 0.065 0.016 0.122 0.003 0.167-0.024 0.068-0.032 0.12-0.096 0.12-0.195 0.001-0.327 0.002-0.655 0.003-0.982-0.001-0.080-0.044-0.156-0.113-0.196zM11.295 19.185c-0.064-0.114-0.068-0.254-0.069-0.381-0.001-0.307 0.295-0.133 0.47-0.041 0.15 0.079 0.295 0.17 0.443 0.256 0.547 0.316 1.094 0.632 1.641 0.947 0.033 0.019 0.066 0.038 0.099 0.058 0 0.007-0.001 0.014-0.001 0.023-0.001 0.18-0.001 0.36-0.001 0.54-0.913-0.228-2.134-0.609-2.582-1.402z"></path>
</symbol>
<symbol id="icon-calc" viewBox="0 0 32 32">
<title>calc</title>
<path d="M8.882 8.551c3.813 2.202 7.626 4.403 11.439 6.604 0.067 0.038 0.131 0.030 0.18-0.002 0.053-0.026 0.093-0.077 0.093-0.155 0.004-1.328 0.007-2.656 0.011-3.985 0-0.063-0.035-0.125-0.090-0.157-3.813-2.202-7.626-4.403-11.439-6.604-0.119-0.069-0.273 0.019-0.273 0.157-0.004 1.328-0.007 2.657-0.011 3.985 0 0.063 0.035 0.125 0.090 0.157zM20.241 11.392c-0.001 0.444-0.002 0.887-0.004 1.33-0.002 0.654-0.004 1.308-0.005 1.962-2.646-1.528-5.292-3.055-7.938-4.583-1.046-0.604-2.092-1.208-3.138-1.812 0.001-0.092 0.001-0.183 0.001-0.274 0.001-0.443 0.002-0.886 0.003-1.329 0.002-0.654 0.004-1.308 0.005-1.962 2.646 1.528 5.292 3.055 7.938 4.583 1.046 0.604 2.092 1.208 3.138 1.812 0 0.091-0 0.182-0 0.273z"></path>
<path d="M12.204 23.898c0.066 0.038 0.131 0.030 0.18-0.002 0.053-0.027 0.093-0.077 0.093-0.155 0.001-0.367 0.002-0.733 0.003-1.1 0-0.064-0.035-0.125-0.090-0.157-1.119-0.646-2.238-1.292-3.357-1.938-0.119-0.069-0.273 0.019-0.273 0.157-0.001 0.367-0.002 0.733-0.003 1.1 0 0.064 0.035 0.125 0.090 0.157 1.119 0.646 2.238 1.292 3.357 1.938zM10.039 22.228c-0.246-0.142-0.492-0.284-0.738-0.426 0.196-0.114 0.393-0.228 0.589-0.342 0.436 0.252 0.872 0.504 1.309 0.755 0.306 0.177 0.612 0.353 0.919 0.53-0.001 0.128-0.001 0.255-0.001 0.382-0.001 0.1-0.001 0.199-0.001 0.299-0.692-0.399-1.383-0.799-2.076-1.198zM9.121 21.487c0-0.004 0-0.008 0-0.012 0-0.053 0.001-0.106 0.001-0.159 0.001-0.1 0.001-0.199 0.001-0.299 0.135 0.078 0.27 0.156 0.405 0.234-0.136 0.079-0.271 0.158-0.407 0.236z"></path>
<path d="M7.894 14.081c-0.003 1.086 0.002 1.995 0.83 2.836 0.179 0.182 0.393 0.343 0.625 0.49-0.325 0.103-0.633 0.328-0.939 0.518-0.213 0.044-0.385 0.193-0.466 0.518-0.211 0.851-0.068 1.859-0.070 2.727-0.003 1.086 0.002 1.995 0.83 2.836 0.609 0.619 1.627 1 2.367 1.427 0.49 0.283 1.223 0.868 1.791 0.629 0.027-0.002 0.055-0.010 0.085-0.027 0.274-0.159 0.546-0.289 0.776-0.44 0.099-0.023 0.193-0.067 0.283-0.137-0.003 2.074 1.882 2.756 3.423 3.646 0.478 0.276 1.028 0.726 1.603 0.492 0 0 0.001-0 0.001-0.001 0.015-0.004 0.030-0.011 0.045-0.020 0.009-0.005 0.019-0.010 0.028-0.016 0 0 0-0 0.001-0 0.292-0.168 0.581-0.305 0.817-0.47 0.285-0.072 0.487-0.319 0.537-0.837 0.003-0.014 0.005-0.028 0.005-0.044 0-0.035 0-0.070 0-0.105 0.037-0.7 0.014-1.409 0.006-2.113 0.007-2.688 0.015-5.377 0.023-8.065 0-0.034-0.002-0.068-0.003-0.102 0-0.041 0-0.082 0-0.123-0.011-0.799-0.494-1.652-1.186-2.055-1.003-0.579-1.99-1.252-3.038-1.747-0.633-0.298-1.17 0.146-1.704 0.477-0.073 0.015-0.141 0.042-0.202 0.085-0.001-0.1-0.001-0.2-0.001-0.3-0.011-0.799-0.494-1.652-1.186-2.055-1.003-0.579-1.99-1.253-3.038-1.747-0.633-0.298-1.17 0.145-1.705 0.477-0.213 0.044-0.385 0.193-0.466 0.518-0.211 0.851-0.068 1.859-0.070 2.727zM16.164 14.252c0.977 0.506 1.916 1.101 2.868 1.655 0.030 0.017 0.059 0.035 0.089 0.052 0.115 0.067 0.223 0.149 0.322 0.243 0.306 0.288 0.534 0.684 0.632 1.094 0.032 0.135 0.051 0.271 0.053 0.405 0 0.035 0 0.070-0 0.106-0.007 2.413-0.014 4.826-0.021 7.238-0.003 1.013-0.006 2.025-0.008 3.038-0.001 0.455-0.289 0.686-0.64 0.88 0.013-0.077 0.020-0.156 0.025-0.233 0.013-0.183 0.006-0.374 0.006-0.565 0.003-1.174 0.007-2.348 0.010-3.522 0.004-1.605 0.009-3.21 0.014-4.814 0-0.114 0-0.228 0.001-0.342 0-0.001 0-0.002 0-0.003 0.001-0.406 0.002-0.811 0.003-1.216-0.001-0.034-0.004-0.067-0.007-0.101-0.062-0.756-0.474-1.467-1.097-1.898-0.027-0.019-0.054-0.038-0.082-0.056-0.781-0.451-1.562-0.901-2.342-1.352-0.022-0.013-0.045-0.026-0.069-0.040-0.010-0.006-0.020-0.012-0.030-0.017-0.242-0.14-0.485-0.3-0.739-0.383 0.32-0.203 0.655-0.352 1.015-0.166zM15.707 15.114c0.814 0.47 1.628 0.94 2.441 1.409 0.13 0.086 0.242 0.179 0.341 0.276l-0.004-0.007c0.293 0.286 0.507 0.655 0.607 1.052l-0.066-0.115c0.112 0.407 0.128 0.851 0.127 1.311-0.003 0.959-0.005 1.917-0.008 2.876-0.006 2.083-0.012 4.166-0.018 6.249-0 0.175-0.001 0.35-0.001 0.525-0.003 1.025-0.799 0.514-1.218 0.272-0.835-0.482-1.67-0.964-2.506-1.447-0.905-0.522-1.035-1.456-1.032-2.378 0.002-0.918 0.005-1.836 0.008-2.753 0.006-2.175 0.012-4.35 0.019-6.525 0.001-0.179 0.001-0.358 0.001-0.538 0.003-1.064 0.896-0.445 1.311-0.206zM8.237 21.302c0.002-0.791 0.004-1.583 0.007-2.374 0.003-1.296 1.503-0.154 1.981 0.123 0.591 0.341 1.181 0.682 1.772 1.023 0.983 0.65 1.007 1.624 1.004 2.655-0.002 0.791-0.004 1.583-0.007 2.374-0.003 1.296-1.502 0.155-1.981-0.122-0.591-0.341-1.181-0.682-1.772-1.023-1.006-0.581-1.007-1.66-1.004-2.656zM13.335 25.417c0.017-0.11 0.021-0.224 0.022-0.335 0.005-0.15 0.001-0.305 0.001-0.46 0.001-0.448 0.002-0.895 0.004-1.343 0.001-0.39 0.017-0.766 0.003-1.131 0.001-0.111 0.001-0.221 0.001-0.332-0.001-0.034-0.004-0.067-0.007-0.101-0.040-0.484-0.223-0.951-0.513-1.337-0.001-0.001-0.001-0.002-0.002-0.003-0.108-0.156-0.239-0.287-0.382-0.405-0.023-0.020-0.047-0.039-0.071-0.059-0.013-0.010-0.026-0.020-0.039-0.030-0.029-0.022-0.059-0.044-0.089-0.065-0.027-0.019-0.054-0.038-0.082-0.056-0.781-0.451-1.562-0.901-2.342-1.352-0.021-0.012-0.043-0.025-0.066-0.038-0.011-0.006-0.022-0.012-0.033-0.019-0.242-0.14-0.485-0.301-0.74-0.384 0.32-0.203 0.655-0.352 1.015-0.165 0.977 0.506 1.916 1.102 2.868 1.655 0.030 0.017 0.059 0.035 0.089 0.052 0.115 0.067 0.223 0.149 0.322 0.243 0.306 0.288 0.534 0.685 0.632 1.094 0.032 0.135 0.051 0.271 0.053 0.405 0 0.035 0 0.070-0.001 0.106-0.003 1.060-0.006 2.121-0.009 3.182-0.001 0.453-0.283 0.684-0.631 0.878zM12.884 18.971c0.026-0.002 0.054-0.009 0.082-0.026 0.274-0.16 0.546-0.289 0.776-0.44 0.098-0.023 0.193-0.067 0.282-0.137-0.001 0.385-0.002 0.77-0.003 1.154-0.001 0.195-0.001 0.39-0.001 0.585-0.21-0.378-0.51-0.705-0.867-0.913-0.113-0.065-0.225-0.131-0.338-0.199 0.024-0.006 0.046-0.015 0.069-0.024zM10.033 10.712c0.977 0.506 1.916 1.102 2.868 1.655 0.030 0.017 0.059 0.035 0.089 0.052 0.115 0.067 0.223 0.149 0.322 0.243 0.306 0.287 0.534 0.684 0.631 1.093 0.032 0.135 0.051 0.271 0.053 0.406 0 0.035 0 0.070-0.001 0.106-0.003 1.060-0.006 2.121-0.009 3.182-0.001 0.454-0.284 0.685-0.631 0.879 0.013-0.085 0.019-0.173 0.021-0.26 0.009-0.179 0.001-0.362 0.002-0.536 0.001-0.218 0.001-0.437 0.002-0.655 0.001-0.229 0.001-0.458 0.002-0.687 0.001-0.39 0.017-0.767 0.003-1.132 0.001-0.11 0.001-0.221 0.001-0.331-0.001-0.034-0.004-0.067-0.007-0.101-0.040-0.484-0.223-0.951-0.513-1.337-0.001-0.001-0.001-0.002-0.002-0.003-0.108-0.156-0.239-0.287-0.382-0.405-0.023-0.020-0.047-0.039-0.071-0.059-0.013-0.010-0.026-0.021-0.039-0.031-0.029-0.022-0.059-0.044-0.089-0.065-0.027-0.019-0.054-0.038-0.082-0.056-0.783-0.452-1.565-0.903-2.348-1.355-0.019-0.011-0.038-0.022-0.059-0.034-0.012-0.007-0.024-0.013-0.035-0.020-0.242-0.14-0.485-0.301-0.74-0.383 0.321-0.204 0.656-0.352 1.016-0.166zM8.257 14.212c0.002-0.791 0.004-1.583 0.007-2.374 0.003-1.296 1.503-0.154 1.982 0.123 0.591 0.341 1.181 0.682 1.772 1.023 0.13 0.086 0.242 0.178 0.341 0.275l-0.004-0.006c0.293 0.286 0.507 0.655 0.607 1.052l-0.068-0.119c0.124 0.449 0.13 0.945 0.129 1.454-0.002 0.791-0.004 1.583-0.007 2.374-0.003 1.296-1.502 0.155-1.981-0.122-0.591-0.341-1.181-0.682-1.772-1.023-1.006-0.581-1.008-1.66-1.005-2.656z"></path>
<path d="M9.976 15.303c0.001 0.012 0.001 0.023 0.001 0.039-0.001 0.159-0.001 0.318-0.001 0.478-0.001 0.253-0.001 0.506-0.002 0.759 0 0.064 0.035 0.125 0.090 0.157 0.319 0.184 0.638 0.368 0.957 0.552 0.119 0.069 0.273-0.019 0.273-0.157 0.001-0.355 0.002-0.71 0.003-1.065 0.309 0.179 0.619 0.357 0.928 0.536 0.066 0.038 0.131 0.030 0.18-0.002 0.053-0.026 0.093-0.077 0.093-0.155 0.001-0.366 0.002-0.733 0.003-1.099 0-0.063-0.035-0.125-0.090-0.157-0.37-0.214-0.739-0.427-1.109-0.64-0.001-0.012-0.001-0.023-0.001-0.039 0.001-0.159 0.001-0.318 0.001-0.478 0.001-0.253 0.001-0.506 0.002-0.759 0-0.063-0.035-0.125-0.090-0.157-0.319-0.184-0.638-0.368-0.957-0.552-0.119-0.069-0.273 0.019-0.273 0.157-0.001 0.355-0.002 0.71-0.003 1.065-0.309-0.178-0.618-0.357-0.927-0.535-0.119-0.069-0.273 0.019-0.273 0.157-0.001 0.366-0.002 0.733-0.003 1.099 0 0.063 0.035 0.125 0.090 0.157 0.369 0.214 0.738 0.427 1.108 0.64zM11.478 15.751c0.196-0.114 0.392-0.228 0.588-0.342 0.024 0.014 0.048 0.028 0.071 0.041-0.001 0.103-0.001 0.206-0.001 0.309-0.001 0.124-0.001 0.248-0.001 0.372-0.219-0.127-0.438-0.254-0.658-0.38zM9.321 14.506c0.196-0.114 0.392-0.228 0.588-0.342 0.054 0.031 0.107 0.062 0.161 0.093 0.027 0.015 0.055 0.022 0.082 0.023 0.001 0 0.003 0.001 0.004 0.001 0.204 0.118 0.409 0.236 0.613 0.354-0.204 0.118-0.407 0.237-0.611 0.355-0.28-0.161-0.558-0.322-0.837-0.483zM10.949 14.949c-0.001 0.247-0.001 0.493-0.002 0.739-0.007 0.019-0.013 0.040-0.013 0.063 0 0.055-0.001 0.109-0.001 0.164-0.199 0.116-0.398 0.231-0.597 0.347 0.001-0.319 0.002-0.639 0.003-0.959 0.203-0.118 0.406-0.236 0.609-0.354zM10.931 16.817c-0.069-0.040-0.137-0.079-0.206-0.119s-0.139-0.080-0.208-0.12c0.116-0.067 0.231-0.134 0.347-0.202 0.019-0.011 0.043-0.023 0.068-0.035 0 0.159-0.001 0.318-0.001 0.477zM11.311 15.428c0.001-0.152 0.001-0.303 0.001-0.454 0.13 0.075 0.261 0.151 0.391 0.226-0.131 0.076-0.262 0.153-0.393 0.228zM10.547 14.086c0.131-0.076 0.262-0.152 0.393-0.228-0.001 0.152-0.001 0.303-0.001 0.454-0.13-0.075-0.261-0.151-0.391-0.226zM10.553 13.154c0.11 0.063 0.22 0.127 0.329 0.19 0.024 0.014 0.043 0.024 0.060 0.031 0 0.021 0 0.042 0 0.063-0.199 0.116-0.398 0.231-0.597 0.347 0.001-0.25 0.001-0.5 0.002-0.749 0.068 0.039 0.137 0.079 0.206 0.119zM9.142 14.19c0-0.033 0-0.065 0.001-0.097 0.001-0.124 0.001-0.248 0.001-0.372 0.135 0.078 0.269 0.156 0.404 0.233-0.135 0.079-0.271 0.158-0.406 0.236z"></path>
<path d="M14.902 20.657c0 0.064 0.035 0.125 0.090 0.157 1.119 0.646 2.238 1.292 3.357 1.938 0.066 0.038 0.131 0.030 0.18-0.002 0.053-0.026 0.093-0.077 0.093-0.155 0.001-0.367 0.002-0.733 0.003-1.1 0-0.064-0.035-0.125-0.090-0.157-1.119-0.646-2.238-1.292-3.357-1.938-0.119-0.069-0.273 0.019-0.273 0.157-0.001 0.367-0.002 0.734-0.003 1.1zM15.445 20.656c0.072-0.042 0.144-0.084 0.216-0.126 0.115-0.067 0.264-0.129 0.389-0.208 0.431 0.249 0.862 0.498 1.293 0.746 0.306 0.177 0.612 0.353 0.919 0.53-0 0.128-0 0.255-0.001 0.382-0 0.1-0 0.199-0.001 0.299-0.692-0.399-1.384-0.799-2.076-1.198-0.246-0.142-0.492-0.284-0.738-0.426zM15.672 20.105c-0.135 0.079-0.271 0.158-0.406 0.236 0-0.057 0.001-0.114 0.001-0.171 0.001-0.1 0.001-0.199 0.001-0.299 0.135 0.078 0.27 0.156 0.405 0.234z"></path>
<path d="M14.986 22.683c1.119 0.646 2.238 1.292 3.357 1.938 0.066 0.038 0.131 0.030 0.18-0.002 0.053-0.026 0.093-0.077 0.093-0.155 0.001-0.367 0.002-0.733 0.003-1.1 0-0.064-0.035-0.125-0.090-0.157-1.119-0.646-2.238-1.292-3.357-1.938-0.119-0.069-0.273 0.019-0.273 0.157-0.001 0.367-0.002 0.733-0.003 1.1 0 0.064 0.035 0.125 0.090 0.157zM16.178 22.952c-0.246-0.142-0.492-0.284-0.738-0.426 0.072-0.042 0.144-0.084 0.216-0.126 0.115-0.067 0.264-0.129 0.389-0.208 0.431 0.249 0.862 0.498 1.293 0.746 0.306 0.177 0.612 0.353 0.919 0.53-0 0.128-0 0.255-0.001 0.382-0 0.1-0 0.199-0.001 0.299-0.692-0.399-1.384-0.799-2.076-1.198zM15.26 22.21c0-0.057 0.001-0.114 0.001-0.171 0.001-0.1 0.001-0.199 0.001-0.299 0.135 0.078 0.27 0.156 0.405 0.234-0.136 0.079-0.271 0.158-0.407 0.236z"></path>
<path d="M25.475 10.074c-0.092-1.963-1.656-2.81-3.156-3.676-3.45-1.992-6.9-3.984-10.35-5.976-0.459-0.265-0.878-0.485-1.427-0.405-0.455 0.066-0.959 0.497-1.339 0.718-0.63 0.366-1.261 0.733-1.891 1.099-0.053 0.031-0.093 0.067-0.121 0.106-0.75 0.719-0.495 2.267-0.498 3.207-0.006 2.088-0.012 4.176-0.018 6.264-0.010 3.48-0.020 6.959-0.030 10.438-0.004 1.582 1.095 2.589 2.343 3.309 1.509 0.871 3.017 1.742 4.526 2.613 1.73 0.999 3.46 1.998 5.191 2.997 0.801 0.463 2.041 1.485 3.029 1.173 0.050-0.005 0.102-0.021 0.157-0.053 0.78-0.453 1.56-0.906 2.34-1.36 0.465-0.27 0.926-0.482 1.107-1.027 0.224-0.676 0.088-1.569 0.090-2.26 0.012-4.328 0.025-8.655 0.037-12.983 0.004-1.395 0.030-2.791 0.010-4.186zM24.723 19.75c-0.006 2.178-0.012 4.355-0.019 6.533-0.002 0.922 0.080 1.887-0.015 2.806-0.023 0.22-0.085 0.308-0.121 0.358-0.132 0.184-0.418 0.288-0.605 0.397-0.524 0.305-1.049 0.609-1.573 0.914 0.005-0.051 0.009-0.103 0.009-0.158 0.003-1.096 0.006-2.193 0.009-3.289 0.010-3.667 0.021-7.334 0.031-11.001 0.003-1.276 0.007-2.551 0.011-3.826 0-0.252-0.011-0.502-0.039-0.745-0.117-1.026-0.518-1.951-1.449-2.584-0.028-0.019-0.053-0.038-0.081-0.056-3.1-1.79-6.2-3.58-9.3-5.37-0.726-0.419-1.452-0.838-2.178-1.258-0.293-0.17-0.584-0.362-0.898-0.492 0.505-0.293 1.009-0.586 1.514-0.88 0.341-0.198 0.614-0.459 1.009-0.35 0.234 0.065 0.459 0.231 0.667 0.351 0.644 0.372 1.288 0.744 1.932 1.116 3.223 1.861 6.446 3.721 9.668 5.582 0.037 0.022 0.075 0.043 0.112 0.065 0.754 0.435 1.302 1.338 1.342 2.209 0.001 0.102 0.002 0.203 0.003 0.305 0.036 3.122-0.021 6.249-0.030 9.371zM8.619 2.438c0.472 0.272 0.944 0.545 1.415 0.817 3.555 2.052 7.11 4.105 10.664 6.157 1.604 1.026 1.39 2.749 1.386 4.362-0.006 2.071-0.012 4.143-0.018 6.214-0.010 3.522-0.020 7.044-0.030 10.566-0 0.175-0.031 0.329-0.085 0.46-0.114 0.066-0.228 0.132-0.342 0.199-0.012 0.005-0.024 0.009-0.036 0.015-0.453 0.244-1.164-0.315-1.55-0.538-0.756-0.437-1.512-0.873-2.269-1.31-2.001-1.155-4.002-2.31-6.003-3.466-0.757-0.436-1.513-0.873-2.269-1.31-0.411-0.237-0.851-0.451-1.206-0.769-1.163-1.040-0.903-2.703-0.899-4.093 0.010-3.436 0.020-6.872 0.029-10.307 0.004-1.521 0.009-3.043 0.013-4.564 0.001-0.492-0.229-2.054 0.261-2.413 0-0.001 0-0.001 0.001-0.001 0.116-0.067 0.232-0.135 0.348-0.202 0.185 0.005 0.388 0.067 0.589 0.183z"></path>
</symbol>
<symbol id="icon-card" viewBox="0 0 32 32">
<title>card</title>
<path d="M28.028 12.693c-0.795-0.931-1.881-1.468-2.923-2.069-1.673-0.965-3.345-1.931-5.017-2.897-4.055-2.341-8.11-4.682-12.165-7.023-0.859-0.496-1.86-1.022-2.82-0.463-1.182 0.687-2.253 1.139-2.378 2.682-0.055 0.68-0.031 1.369-0.034 2.051-0.007 2.607-0.015 5.215-0.022 7.823-0.007 2.385-0.093 4.653 1.667 6.55 0.956 1.030 2.501 1.694 3.7 2.386 2.219 1.281 4.437 2.562 6.655 3.843 2.286 1.32 4.573 2.641 6.86 3.961 1.156 0.668 2.3 1.437 3.519 1.989 0.313 0.141 0.636 0.212 0.972 0.236 0.067 0.026 0.142 0.029 0.222 0.004 0.066-0.010 0.123-0.031 0.17-0.065 0.207-0.084 0.383-0.157 0.538-0.243 0.713-0.3 1.54-0.628 1.948-1.201 0.401-0.563 0.497-1.288 0.499-1.964 0.005-1.934 0.011-3.868 0.017-5.801s0.011-3.868 0.017-5.801c0.004-1.45-0.479-2.891-1.424-3.997zM28.589 17.959c-0.006 2.126-0.012 4.253-0.018 6.38-0.004 1.318-0.007 2.637-0.011 3.956-0.002 0.554-0.056 1.162-0.448 1.584-0.113 0.121-0.288 0.214-0.47 0.294-0.015-0.014-0.031-0.027-0.050-0.038 0.275-1.136 0.091-2.649 0.093-3.499 0.007-2.552 0.014-5.105 0.022-7.657 0.002-0.71 0.031-1.426-0.039-2.133-0.179-1.808-1.24-3.375-2.775-4.309-3.382-1.953-6.764-3.906-10.147-5.858-2.188-1.263-4.375-2.526-6.563-3.789-0.86-0.497-2.039-1.395-3.137-1.68 0.372-0.227 0.767-0.406 1.16-0.341 0.983 0.163 2.039 1.014 2.874 1.496 4.441 2.564 8.882 5.128 13.322 7.692 2.206 1.274 5.107 2.352 5.947 4.975 0.305 0.949 0.242 1.945 0.239 2.927zM3.371 2.773c0.235-1.665 1.652-1.212 2.683-0.617 0.604 0.349 1.209 0.698 1.813 1.047 4.492 2.594 8.984 5.187 13.476 7.78 1.111 0.642 2.222 1.283 3.332 1.924 1.695 1.031 2.61 2.793 2.605 4.765-0.002 0.78-0.004 1.561-0.006 2.341-0.007 2.6-0.015 5.2-0.022 7.8-0.002 0.756 0.051 1.552-0.094 2.298-0.298 1.532-1.7 0.988-2.649 0.44-1.586-0.916-3.173-1.832-4.759-2.748-4.302-2.484-8.603-4.967-12.905-7.451-0.319-0.184-0.638-0.368-0.956-0.552-1.694-0.978-2.612-2.81-2.606-4.737 0.006-2.088 0.012-4.176 0.018-6.264 0.005-1.966-0.206-4.071 0.070-6.027z"></path>
<path d="M15.782 17.432c0.533 0.357 1.103 0.257 1.381-0.205 0.124 0.609 0.403 1.187 0.921 1.533 0.51 0.342 1.104 0.266 1.383-0.189 0.125 0.603 0.404 1.173 0.917 1.517 0.533 0.357 1.103 0.257 1.381-0.205 0.124 0.609 0.403 1.186 0.921 1.533 0.645 0.433 1.425 0.198 1.532-0.627 0.126-0.973-0.19-2.011-0.94-2.661-0.513-0.444-1.119-0.299-1.414 0.171-0.14-0.578-0.444-1.116-0.886-1.499-0.516-0.446-1.126-0.298-1.419 0.178-0.134-0.578-0.428-1.114-0.882-1.507-0.513-0.444-1.119-0.299-1.414 0.171-0.14-0.578-0.444-1.116-0.886-1.499-0.653-0.565-1.46-0.178-1.579 0.621-0.001 0.004 0 0.008-0.001 0.012-0.004 0.014-0.006 0.029-0.007 0.045-0.052 0.917 0.169 2.057 0.994 2.61zM21.273 17.89c0.225 0.418 0.291 1.045 0.222 1.515-0.171 1.165-1.211-0.001-1.442-0.426-0.245-0.452-0.26-0.979-0.233-1.479 0.195-1.14 1.174-0.127 1.452 0.39zM15.218 14.843c0.195-1.14 1.174-0.127 1.452 0.39 0.225 0.418 0.291 1.045 0.222 1.515-0.171 1.165-1.211-0.001-1.442-0.426-0.244-0.452-0.26-0.979-0.233-1.479zM17.519 16.171c0.195-1.14 1.174-0.126 1.453 0.391 0.244 0.453 0.228 0.989 0.226 1.487-0.002 0.438-0.391 0.606-0.762 0.431-0.323-0.153-0.522-0.53-0.683-0.829-0.245-0.452-0.261-0.979-0.234-1.479zM23.573 19.219c0.244 0.453 0.228 0.989 0.226 1.487-0.002 0.438-0.391 0.606-0.762 0.431-0.323-0.153-0.522-0.53-0.683-0.829-0.245-0.452-0.26-0.98-0.234-1.48 0.195-1.14 1.174-0.126 1.452 0.391z"></path>
<path d="M4.83 14.27c0.301 0.574 1.18 0.908 1.706 1.212 2.146 1.239 4.292 2.478 6.437 3.716 0.527 0.305 1.055 0.609 1.582 0.914 1.015 0.586 1.164-0.552 0.827-1.261-0.006-0.021-0.017-0.044-0.033-0.066-0.015-0.028-0.033-0.049-0.053-0.065-0.612-0.753-1.743-1.175-2.559-1.645-0.568-0.328-1.136-0.655-1.703-0.983-1.823-1.053-3.647-2.106-5.47-3.158-0.977-0.564-1.042 0.747-0.733 1.337zM14.643 18.671c0.111 0.11 0.223 0.22 0.334 0.331 0.724 1.339-0.473 0.583-0.957 0.304-0.187-0.108-0.373-0.215-0.559-0.323-0.908-0.524-1.815-1.048-2.723-1.572-1.175-0.678-2.351-1.357-3.526-2.036-0.629-0.363-1.571-0.707-2.012-1.323-0.468-0.654-0.123-0.903 0.359-0.625 0.424 0.245 0.847 0.49 1.271 0.734 1.154 0.666 2.307 1.332 3.46 1.998 1.451 0.837 2.901 1.675 4.352 2.512z"></path>
<path d="M6.713 9.571c-0.133-0.581-0.428-1.12-0.884-1.515-0.653-0.565-1.46-0.178-1.579 0.621-0.001 0.004 0 0.007-0.001 0.011-0.004 0.014-0.006 0.030-0.007 0.046-0.051 0.916 0.17 2.055 0.995 2.609 0.508 0.341 1.099 0.266 1.379-0.183 0.151 0.64 0.501 1.229 1.056 1.602 0.508 0.341 0.992 0.107 1.242-0.316 0.122 0.616 0.401 1.203 0.925 1.554 0.511 0.342 1.105 0.266 1.383-0.19 0.125 0.603 0.404 1.174 0.917 1.519 0.645 0.433 1.426 0.198 1.533-0.626 0.126-0.973-0.19-2.011-0.94-2.66-0.516-0.446-1.126-0.298-1.419 0.178-0.134-0.578-0.428-1.114-0.882-1.507-0.511-0.443-1.117-0.3-1.412 0.167-0.148-0.62-0.488-1.196-0.992-1.565-0.018-0.021-0.042-0.040-0.074-0.054-0.030-0.020-0.060-0.031-0.089-0.035-0.527-0.204-0.933-0.039-1.151 0.345zM7.735 9.632c0.73 0.49 1.196 1.772 0.834 2.616-0.282 0.657-0.81 0.105-1.158-0.412 0.134 0.161 0.309 0.283 0.527 0.336 0.673 0.163 0.596-0.851 0.581-1.216-0.001-0.021-0.005-0.041-0.010-0.059-0.074-0.471-0.35-0.923-0.833-1.058-0.638-0.179-0.578 0.741-0.577 1.090 0.001 0.211 0.046 0.429 0.136 0.624-0.081-0.141-0.138-0.257-0.157-0.309-0.075-0.211-0.099-0.436-0.115-0.657-0.026-0.361-0.051-1.327 0.771-0.954zM7.918 11.713c-0.231-0.108-0.357-0.412-0.385-0.646-0.027-0.23-0.027-0.517 0.006-0.747 0.022-0.154 0.296 0.101 0.314 0.118 0.138 0.134 0.214 0.331 0.236 0.518 0.005 0.121 0.084 0.877-0.171 0.757zM10.19 13.719c-0.323-0.153-0.522-0.53-0.683-0.829-0.245-0.452-0.26-0.98-0.234-1.48 0.195-1.14 1.174-0.126 1.453 0.391 0.244 0.453 0.228 0.989 0.226 1.487-0.002 0.439-0.391 0.607-0.762 0.431zM13.027 13.13c0.244 0.453 0.228 0.989 0.226 1.487-0.002 0.438-0.393 0.606-0.762 0.431-0.323-0.153-0.521-0.53-0.683-0.829-0.245-0.452-0.26-0.98-0.234-1.479 0.195-1.14 1.174-0.126 1.453 0.391zM4.671 8.753c0.195-1.14 1.174-0.126 1.453 0.391 0.244 0.453 0.228 0.989 0.226 1.487-0.002 0.438-0.391 0.606-0.762 0.431-0.323-0.153-0.522-0.53-0.683-0.829-0.245-0.453-0.261-0.98-0.234-1.48z"></path>
<path d="M5.686 17.66c2.104 1.215 4.208 2.429 6.312 3.644 0.878 0.507 1.755 1.013 2.633 1.52 0.017 0.010 0.035 0.017 0.051 0.022v0c1.319 0.518 0.915-1.451 0.142-1.897-0.652-0.377-1.303-0.753-1.956-1.129-2.199-1.27-4.398-2.539-6.598-3.809-0.34-0.196-1.206-0.868-1.534-0.333-0.505 0.826 0.275 1.593 0.949 1.982zM5.366 15.985c0.027 0.015 0.054 0.031 0.081 0.047 0.102 0.059 0.205 0.118 0.307 0.177 0.364 0.21 0.729 0.421 1.093 0.631 1.096 0.633 2.192 1.266 3.289 1.899 1.070 0.618 2.141 1.236 3.211 1.854 0.332 0.191 0.664 0.383 0.996 0.575 0.082 0.047 0.163 0.094 0.244 0.141 0.015 0.009 0.030 0.018 0.046 0.027 0.001 0.001 0.002 0.001 0.003 0.002 0.473 0.268 0.527 0.631 0.165 1.090-1.534-0.885-3.068-1.771-4.602-2.657-1.084-0.626-2.167-1.251-3.251-1.877-0.577-0.333-1.386-0.637-1.777-1.212-0.853-1.251-0.004-0.811 0.195-0.695z"></path>
<path d="M20.048 20.807c-1.085-0.099-1.652 0.658-1.782 1.659-0.183 1.41 0.689 2.914 1.613 3.895 0.641 0.604 1.4 0.995 2.158 1.432 0.649 0.374 1.452 1.005 2.221 1.076 1.085 0.099 1.651-0.658 1.781-1.659 0.177-1.367-0.644-2.824-1.517-3.801-0.605-0.677-1.478-1.080-2.252-1.527-0.649-0.374-1.453-1.005-2.222-1.075zM20.875 21.574c1.050 0.606 2.265 1.14 3.166 1.961 0.935 0.852 1.538 2.17 1.578 3.429 0.045 1.417-1.11 1.761-2.188 1.138-1.086-0.627-2.329-1.179-3.248-2.045-0.862-0.915-1.455-2.073-1.498-3.345-0.046-1.417 1.112-1.761 2.189-1.139z"></path>
<path d="M10.203 11.256c-0.415-0.271-0.765 0.031-0.795 0.46-0.044 0.629 0.001 1.261 0.537 1.653 0.015 0.016 0.034 0.030 0.058 0.042 0.023 0.015 0.045 0.023 0.068 0.029 0.461 0.186 0.746-0.123 0.751-0.612 0.007-0.636-0.042-1.196-0.619-1.573zM10.219 13.041c-0.225-0.147-0.353-0.38-0.383-0.645-0.015-0.134-0.006-0.275-0.003-0.41 0.002-0.122-0.051-0.461 0.153-0.358 0.235 0.118 0.377 0.41 0.406 0.658 0.016 0.134 0.005 0.276 0.003 0.41-0.002 0.154 0.063 0.462-0.175 0.346z"></path>
<path d="M12.245 14.699c0.015 0.015 0.034 0.030 0.058 0.042 0.023 0.015 0.045 0.023 0.068 0.029 0.462 0.186 0.744-0.124 0.75-0.613 0.009-0.636-0.042-1.196-0.619-1.573-0.415-0.271-0.765 0.031-0.795 0.46-0.044 0.63 0.002 1.262 0.538 1.654zM12.286 12.955c0.235 0.118 0.377 0.41 0.406 0.658 0.016 0.134 0.006 0.276 0.003 0.41-0.003 0.154 0.062 0.463-0.174 0.347-0.225-0.147-0.354-0.381-0.385-0.646-0.015-0.134-0.005-0.275-0.003-0.409 0.002-0.122-0.052-0.461 0.153-0.359z"></path>
<path d="M15.876 16.798c0.387 0.253 0.881 0.123 0.887-0.403 0.008-0.658 0.006-1.26-0.563-1.668-0.015-0.014-0.032-0.028-0.054-0.039-0.021-0.013-0.041-0.021-0.061-0.027-0.399-0.167-0.702 0.037-0.734 0.488-0.041 0.583-0.023 1.29 0.525 1.65zM15.93 15.059c0.229 0.15 0.373 0.385 0.406 0.658 0.016 0.134 0.005 0.276 0.003 0.41-0.003 0.154 0.062 0.463-0.175 0.347-0.23-0.113-0.356-0.408-0.384-0.646-0.015-0.134-0.005-0.275-0.003-0.409 0.002-0.122-0.052-0.461 0.153-0.359z"></path>
<path d="M18.178 18.127c0.387 0.254 0.879 0.123 0.886-0.404 0.009-0.657 0.007-1.26-0.562-1.668-0.015-0.014-0.032-0.028-0.054-0.039-0.021-0.013-0.041-0.021-0.061-0.027-0.399-0.167-0.702 0.038-0.733 0.488-0.041 0.584-0.025 1.291 0.524 1.65zM18.231 16.388c0.229 0.149 0.373 0.385 0.405 0.657 0.016 0.134 0.006 0.275 0.003 0.41-0.003 0.153 0.062 0.463-0.174 0.347-0.23-0.113-0.356-0.407-0.383-0.645-0.015-0.134-0.006-0.275-0.003-0.41 0.002-0.122-0.052-0.461 0.153-0.359z"></path>
<path d="M20.49 19.459c0.015 0.015 0.034 0.030 0.058 0.042 0.023 0.015 0.045 0.023 0.068 0.029 0.461 0.186 0.745-0.124 0.751-0.612 0.008-0.636-0.042-1.196-0.619-1.573-0.415-0.271-0.765 0.031-0.795 0.46-0.043 0.629 0.002 1.261 0.537 1.653zM20.532 17.716c0.235 0.118 0.377 0.41 0.406 0.658 0.016 0.134 0.005 0.276 0.003 0.41-0.003 0.154 0.063 0.463-0.175 0.347-0.225-0.147-0.353-0.381-0.384-0.646-0.015-0.134-0.005-0.275-0.003-0.409 0.002-0.122-0.052-0.462 0.153-0.359z"></path>
<path d="M22.255 19.134c-0.044 0.629 0.001 1.261 0.536 1.653 0.015 0.016 0.034 0.030 0.058 0.042 0.023 0.015 0.045 0.023 0.068 0.029 0.461 0.186 0.744-0.124 0.75-0.613 0.009-0.635-0.042-1.196-0.618-1.573-0.415-0.272-0.764 0.032-0.794 0.461zM22.833 19.045c0.235 0.117 0.376 0.41 0.405 0.657 0.016 0.134 0.006 0.275 0.003 0.41-0.003 0.153 0.062 0.463-0.174 0.347-0.225-0.147-0.353-0.38-0.383-0.645-0.015-0.134-0.006-0.275-0.003-0.41 0.003-0.122-0.051-0.461 0.153-0.359z"></path>
<path d="M22.029 26.422c0.371 0.613 0.901 1.132 1.476 1.349 1.014 0.382 1.684-0.232 1.74-1.253 0.063-1.166-0.767-2.391-1.708-3.012-0.014-0.012-0.029-0.023-0.049-0.033-0.020-0.012-0.039-0.020-0.058-0.026-0.444-0.206-0.848-0.241-1.17-0.118-0.307-0.494-0.677-0.91-1.167-1.234-0.013-0.012-0.028-0.023-0.046-0.032-0.017-0.011-0.033-0.018-0.050-0.023-1.397-0.678-2.117 0.486-1.855 1.823 0.226 1.157 1.532 2.997 2.889 2.559zM23.271 23.844c0.64 0.407 1.074 1.011 1.354 1.709 0.244 0.605 0.413 1.861-0.527 1.925-0.77 0.052-1.432-0.875-1.763-1.443-0.493-0.846-0.707-3.005 0.937-2.191zM21.502 24.658c-0.015 0.436 0.106 0.922 0.322 1.382-0.973 0.25-1.854-1.159-2.144-1.879-0.376-0.933-0.152-2.392 1.149-1.727 0.449 0.286 0.778 0.66 1.054 1.101-0.294 0.312-0.395 0.708-0.381 1.123z"></path>
<path d="M5.341 10.713c0.015 0.015 0.034 0.030 0.058 0.042 0.023 0.015 0.045 0.023 0.068 0.029 0.461 0.186 0.746-0.123 0.751-0.612 0.008-0.636-0.042-1.196-0.619-1.573-0.415-0.271-0.765 0.031-0.795 0.46-0.044 0.629 0.001 1.261 0.537 1.653zM5.383 8.97c0.235 0.118 0.377 0.41 0.406 0.658 0.016 0.134 0.005 0.276 0.003 0.41-0.003 0.154 0.062 0.463-0.175 0.346-0.225-0.147-0.353-0.38-0.383-0.645-0.015-0.134-0.006-0.275-0.003-0.41 0.003-0.122-0.051-0.461 0.154-0.358z"></path>
</symbol>
<symbol id="icon-chart" viewBox="0 0 32 32">
<title>chart</title>
<path d="M30.975 21.695c0.042-0.064 0.070-0.143 0.069-0.241-0.030-5.401-2.441-10.67-5.756-14.839-0.121-0.152-0.376-0.159-0.532-0.068-1.053 0.612-2.106 1.224-3.159 1.836 0.279-0.392 0.558-0.784 0.836-1.177 0.121-0.171 0.049-0.387-0.068-0.532-2.303-2.842-5.427-5.634-9.098-6.452-1.75-0.39-3.586-0.316-5.166 0.602-1.258 0.731-2.516 1.462-3.774 2.193-0.042 0.025-0.076 0.055-0.105 0.086-3.231 1.998-3.697 6.387-3.249 9.889 0.621 4.854 3.002 9.481 6.148 13.177 2.365 2.778 5.747 5.523 9.508 5.955 1.245 0.143 2.484 0.023 3.638-0.486 0.935-0.413 1.818-1.026 2.7-1.538 0.776-0.451 1.586-0.868 2.302-1.411 0.989-0.75 1.652-1.815 2.121-2.947 0.236-0.57 0.385-1.172 0.506-1.776 0.023-0.102 0.040-0.205 0.053-0.308 0.011-0.073 0.018-0.126 0.021-0.165 0.119-0.070 0.239-0.138 0.358-0.208 0.834-0.484 1.667-0.969 2.5-1.453 0.042-0.024 0.075-0.054 0.104-0.084 0.013-0.013 0.026-0.026 0.036-0.041 0.003-0.004 0.005-0.009 0.008-0.014zM30.162 21.205c-0.862 0.501-1.724 1.002-2.586 1.503-0.257 0.15-0.359 0.3-0.419 0.498-0.061 0.035-0.121 0.071-0.182 0.106-0.141-5.060-2.341-9.927-5.378-13.912 1.091-0.634 2.183-1.268 3.274-1.903 3.023 3.891 5.194 8.727 5.292 13.709zM16.389 15.498c-0.363 0.51-0.726 1.020-1.089 1.53-0.069 0.097-0.018 0.244 0.079 0.3 3.186 1.839 6.371 3.678 9.557 5.518-0.354 0.209-0.708 0.417-1.062 0.625-3.547-2.048-7.095-4.096-10.642-6.144-0.073-0.042-0.147-0.094-0.223-0.143 1.047-0.608 2.093-1.217 3.139-1.825 0.080 0.046 0.16 0.092 0.241 0.138zM5.295 3.518c0.070-0.033 0.119-0.081 0.154-0.136 0.175-0.102 0.349-0.203 0.524-0.305 2.261-0.572 4.698 0.259 6.685 1.444 1.172 0.7 2.238 1.552 3.231 2.486 0.483 0.455 0.938 0.938 1.38 1.432 0.134 0.15 0.392 0.582 0.642 0.825-1.779 2.5-3.559 5.001-5.338 7.502-2.521-4.366-5.042-8.732-7.563-13.098 0.094-0.051 0.186-0.104 0.285-0.151zM15.807 17.069c0.328-0.461 0.657-0.923 0.985-1.384 0.163 0.014 0.319-0.071 0.42-0.214 1.362-1.914 2.724-3.829 4.087-5.743 2.947 3.877 5.082 8.623 5.235 13.535-3.575-2.065-7.151-4.13-10.727-6.194zM15.926 14.982c-0.005 0.003-0.008 0.005-0.013 0.008-0.874 0.508-1.749 1.016-2.623 1.524 1.689-2.374 3.378-4.747 5.068-7.121 0.825-0.48 1.65-0.959 2.474-1.439-1.611 2.27-3.229 4.536-4.844 6.804-0.047 0.067-0.065 0.145-0.062 0.224zM21.447 7.087c-0.009 0.006-0.018 0.011-0.025 0.015-0.443 0.258-0.886 0.515-1.329 0.773-0.626 0.364-1.253 0.729-1.879 1.093-0.057-0.136-0.495-0.68-0.529-0.718-0.231-0.268-0.473-0.526-0.716-0.783-0.527-0.559-1.092-1.081-1.675-1.582-1.009-0.867-2.12-1.62-3.302-2.231-1.536-0.796-3.284-1.298-4.985-1.178 0.449-0.261 0.898-0.521 1.346-0.782 1.465-0.851 3.037-0.989 4.679-0.624 3.408 0.759 6.286 3.305 8.472 5.935-0.019 0.028-0.038 0.055-0.058 0.083zM4.633 3.895c2.545 4.407 5.089 8.813 7.634 13.22-0.802 0.457-1.603 0.914-2.404 1.37-1.683 0.959-3.367 1.919-5.050 2.878-0.43-0.766-0.823-1.544-1.177-2.325-1.255-2.762-2.040-5.846-1.933-8.89 0.086-2.411 0.883-4.913 2.931-6.254zM5.028 21.745c1.588-0.905 3.176-1.81 4.764-2.715 0.885-0.504 1.769-1.009 2.654-1.513 0.040-0.023 0.079-0.045 0.119-0.068 0.198 0.114 0.396 0.228 0.593 0.343 3.501 2.021 7.001 4.042 10.502 6.063-0.040 2.109-0.486 4.284-1.916 5.908-0.038 0.042-0.077 0.082-0.116 0.122-0.311 0.169-0.619 0.339-0.918 0.512-2.458 1.428-5.091 0.941-7.528-0.335-3.458-1.812-6.179-4.916-8.154-8.317zM24.099 23.847c0.424-0.25 0.849-0.499 1.273-0.749 0.399 0.23 0.797 0.46 1.196 0.691 0.020 0.038 0.050 0.066 0.085 0.084 0.058 0.040 0.135 0.051 0.215 0.007 0.033-0.010 0.063-0.027 0.088-0.050 0.027-0.016 0.055-0.031 0.082-0.047-0.145 0.707-0.34 1.391-0.636 2.051-0.737 1.644-2.216 2.631-3.756 3.494 1.072-1.58 1.418-3.604 1.453-5.481z"></path>
</symbol>
<symbol id="icon-hamburger" viewBox="0 0 32 32">
<title>hamburger</title>
<path d="M32 32h-32v-32h32v32zM0.602 31.398h30.796v-30.796h-30.796v30.796z"></path>
<path d="M8.15 14.822h15.699v2.355h-15.699v-2.355z"></path>
<path d="M8.15 19.532h15.699v2.355h-15.699v-2.355z"></path>
<path d="M8.15 10.113h15.699v2.355h-15.699v-2.355z"></path>
</symbol>
<symbol id="icon-heart" viewBox="0 0 32 32">
<title>heart</title>
<path d="M18.814 5.819c-1.177-1.922-2.724-3.619-4.654-4.801-1.573-0.964-3.677-1.468-5.361-0.488-1.016 0.591-2.033 1.181-3.049 1.772-0.825 0.479-1.82 0.907-2.545 1.543-2.487 2.182-1.803 6.174-0.774 8.903 0.51 1.352 1.263 2.584 1.982 3.83 1.095 1.896 2.189 3.791 3.284 5.688 1.784 3.090 3.567 6.179 5.351 9.268 0.127 0.219 0.413 0.289 0.63 0.166 3.189-1.817 6.407-3.593 9.571-5.454v0c1.688-0.981 3.375-1.962 5.063-2.942 1.657-0.963 2.299-2.929 2.274-4.762-0.044-3.514-1.654-6.861-3.907-9.494-1.823-2.132-4.981-4.352-7.866-3.228zM20.794 27.546c-0.259 0.148-0.491-0.251-0.233-0.398 0.907-0.517 2.037-0.96 2.821-1.66 0.257-0.229 0.47-0.488 0.651-0.764-0.416 0.242-0.832 0.483-1.248 0.726v0c-3.031 1.783-6.11 3.488-9.168 5.226-2.18-3.776-4.359-7.552-6.54-11.327-0.904-1.567-1.809-3.133-2.713-4.7-1.498-2.594-2.824-6.402-1.269-9.259 0.264-0.484 0.704-0.891 1.215-1.247-0.333 0.161-0.651 0.386-0.948 0.69-0.208 0.213-0.533-0.113-0.326-0.326 0.742-0.761 1.647-1.099 2.588-1.139 0.491-0.257 0.972-0.494 1.37-0.724 1.3-0.755 2.602-1.772 4.087-1.722 3.067 0.103 5.678 3.21 7.104 5.638-1.517 0.881-3.034 1.764-4.552 2.645-0.066 0.038-0.13 0.076-0.196 0.114-0.172 0.1-0.124 0.31 0.003 0.395 0.063 0.041 0.145 0.053 0.229 0.003 0.489-0.284 0.977-0.568 1.465-0.851 1.152-0.669 2.304-1.339 3.456-2.008 0.090 0.005 0.183-0.013 0.268-0.056 2.608-1.333 5.625 1.091 7.28 3.027 2.045 2.392 3.486 5.533 3.526 8.713 0.023 1.701-0.407 3.146-1.974 4.056-0.951 0.552-1.901 1.105-2.851 1.657-0.177 0.413-0.41 0.799-0.715 1.142-0.861 0.97-2.221 1.518-3.329 2.15z"></path>
<path d="M9.319 5.101c1.693 1.133 3.010 2.797 4.035 4.534 0.021 0.037 0.052 0.061 0.085 0.079-0.127-0.084-0.175-0.295-0.003-0.395 0.066-0.038 0.13-0.076 0.196-0.114-1.192-1.966-2.737-3.726-4.727-4.911-1.002-0.597-2.167-0.972-3.281-0.926-0.941 0.038-1.846 0.377-2.588 1.138-0.208 0.213 0.118 0.539 0.326 0.326 0.296-0.304 0.615-0.529 0.948-0.69 1.596-0.772 3.532-0.030 5.009 0.958z"></path>
<path d="M24.84 24.254c0.711-1.664 0.471-3.776 0.069-5.432-0.695-2.863-2.359-5.548-4.497-7.555-1.383-1.299-3.343-2.495-5.277-2.401-0.489 0.284-0.977 0.568-1.465 0.851 2.521-1.304 5.32 0.726 7.034 2.481 1.944 1.989 3.302 4.616 3.895 7.323 0.364 1.666 0.402 3.726-0.564 5.203-0.181 0.277-0.394 0.535-0.651 0.764-0.784 0.7-1.914 1.142-2.821 1.66-0.258 0.147-0.026 0.545 0.233 0.398 1.108-0.632 2.47-1.18 3.331-2.149 0.305-0.343 0.539-0.729 0.715-1.142z"></path>
</symbol>
<symbol id="icon-mac" viewBox="0 0 32 32">
<title>mac</title>
<path d="M13.662 22.003c0.336-0.166 0.684-0.301 1.042-0.36-0.467-0.163-0.854-0.020-1.042 0.36z"></path>
<path d="M15.976 29.235c0.243-0.119 0.458 0.244 0.213 0.364 0.93-0.537 1.859-1.073 2.788-1.61l-0.422-0.244c-0.86 0.497-1.72 0.993-2.579 1.489z"></path>
<path d="M15.976 29.235c-1.306 0.642-2.398-0.235-3.478-0.859-1.091-0.63-2.183-1.261-3.274-1.89-0.243-0.14-1.369-0.663-0.466-1.183 0.289-0.167 0.579-0.334 0.867-0.501 0.639-0.369 1.277-0.738 1.915-1.106l-0.422-0.244c-0.45 0.259-0.9 0.52-1.35 0.779-0.536 0.309-1.79 0.771-1.79 1.528 0 0.608 0.678 0.886 1.124 1.143 0.829 0.479 1.659 0.958 2.489 1.436 1.402 0.809 2.915 2.087 4.599 1.26-0.236 0.137-0.449-0.227-0.213-0.363z"></path>
<path d="M15.976 29.235c-0.236 0.136-0.023 0.501 0.213 0.364 0.244-0.12 0.030-0.485-0.213-0.364z"></path>
<path d="M24.945 30.328c-0.034 0-0.078 0.010-0.107 0.029-0.224 0.15-0.026 0.501 0.213 0.364v0c0.236-0.135 0.023-0.5-0.213-0.364v0c0.071 0.122 0.142 0.243 0.213 0.364v0c-0.035 0.009-0.071 0.019-0.107 0.029v0c0.273 0 0.273-0.422 0-0.422z"></path>
<path d="M27.581 12.303c-0.449-0.87-0.997-1.592-1.867-2.211-0.471-0.335-0.637-0.414-1.123-0.133-0.632 0.365-1.265 0.73-1.896 1.095-0.137 0.079-0.137 0.286 0 0.364 0.991 0.572 1.794 1.362 2.288 2.411 0.049 0.104 0.196 0.13 0.289 0.075 0.748-0.432 1.496-0.864 2.244-1.296 0.104-0.059 0.128-0.187 0.076-0.289-0.003-0.005-0.006-0.011-0.009-0.017-0.125-0.242-0.489-0.028-0.364 0.213 0.003 0.005 0.006 0.011 0.009 0.017 0.026-0.097 0.050-0.193 0.076-0.289-0.748 0.432-1.496 0.864-2.244 1.296 0.096 0.025 0.192 0.050 0.289 0.075-0.523-1.11-1.39-1.957-2.439-2.562 0 0.121 0 0.243 0 0.364 0.512-0.296 1.024-0.591 1.537-0.887 0.223-0.129 0.445-0.257 0.667-0.385-0.061 0.035-0.161-0.021 0.092 0.125 0.102 0.059 0.201 0.121 0.299 0.186 0.752 0.496 1.309 1.272 1.716 2.059 0.125 0.242 0.49 0.029 0.365-0.213z"></path>
<path d="M28.204 14.681c-0.006-0.491-0.089-0.976-0.239-1.444-0.041-0.13-0.188-0.197-0.31-0.126-0.748 0.432-1.496 0.864-2.244 1.296-0.078 0.046-0.127 0.149-0.097 0.239 0.191 0.57 0.229 1.138 0.227 1.734-0 0.161 0.18 0.262 0.317 0.183 0.511-0.294 1.021-0.589 1.532-0.884 0.228-0.132 0.456-0.263 0.684-0.395 0.2-0.116 0.13-0.406 0.131-0.601 0.001-0.273-0.421-0.272-0.422 0-0 0.12-0 0.242-0.001 0.362 0-0.131 0.169-0.178-0.043-0.056-0.255 0.147-0.509 0.294-0.764 0.441-0.443 0.256-0.886 0.511-1.329 0.768 0.106 0.061 0.212 0.122 0.317 0.183 0.002-0.633-0.039-1.242-0.241-1.846-0.032 0.079-0.064 0.159-0.097 0.239 0.748-0.432 1.496-0.864 2.244-1.296-0.104-0.042-0.206-0.084-0.31-0.126 0.139 0.434 0.218 0.877 0.224 1.332 0.003 0.271 0.425 0.271 0.421-0.001z"></path>
<path d="M9.271 0.586c-0.376-0.211-0.487-0.191-0.861 0.025-0.641 0.37-1.283 0.74-1.924 1.111-0.173 0.099-0.111 0.321 0.050 0.386 0.573 0.229 1.107 0.621 1.639 0.928 0.066 0.038 0.148 0.038 0.213 0 0.749-0.433 1.498-0.865 2.248-1.298 0.137-0.079 0.137-0.285 0-0.365-0.455-0.262-0.91-0.525-1.365-0.787-0.236-0.137-0.448 0.229-0.213 0.364 0.455 0.262 0.91 0.526 1.365 0.788 0-0.121 0-0.243 0-0.365-0.72 0.415-1.439 0.831-2.159 1.246-0.17 0.099 0.236 0.116-0.018-0.030-0.246-0.142-0.492-0.284-0.739-0.426-0.281-0.163-0.559-0.342-0.861-0.463 0.017 0.129 0.034 0.257 0.051 0.386 0.529-0.305 1.057-0.611 1.586-0.915 0.218-0.126 0.437-0.252 0.655-0.378-0.12 0.069-0.263-0.035-0.073 0.054 0.066 0.031 0.13 0.068 0.193 0.103 0.238 0.133 0.45-0.232 0.213-0.364z"></path>
<path d="M27.862 23.081c-0.738 0.426-1.476 0.852-2.213 1.278-0.22 0.127-0.133 0.527-0.133 0.735-0.002 0.463-0.003 0.927-0.004 1.391-0 0.161 0.18 0.262 0.317 0.183 0.738-0.426 1.476-0.852 2.213-1.278 0.22-0.127 0.133-0.527 0.133-0.735 0.002-0.463 0.003-0.927 0.004-1.391 0.001-0.273-0.422-0.272-0.422 0-0.001 0.384-0.002 0.768-0.003 1.152-0 0.207-0.001 0.415-0.002 0.622-0.001 0.291 0.204-0.085 0.002 0.032-0.712 0.412-1.425 0.823-2.138 1.235 0.106 0.061 0.212 0.122 0.317 0.183 0.001-0.384 0.002-0.768 0.003-1.152 0-0.207 0.001-0.415 0.002-0.622 0.001-0.291-0.204 0.085-0.002-0.032 0.712-0.412 1.425-0.823 2.138-1.235 0.235-0.137 0.023-0.502-0.213-0.365z"></path>
<path d="M11.014 1.715c-0.749 0.432-1.498 0.865-2.248 1.298-0.137 0.079-0.137 0.285 0 0.365 0.278 0.16 0.556 0.321 0.834 0.482 0.066 0.038 0.148 0.038 0.213 0 0.749-0.433 1.498-0.865 2.248-1.298 0.137-0.079 0.137-0.285 0-0.365-0.278-0.16-0.556-0.321-0.834-0.482-0.236-0.137-0.449 0.228-0.213 0.365 0.278 0.16 0.556 0.321 0.834 0.482 0-0.122 0-0.243 0-0.365-0.544 0.315-1.089 0.629-1.633 0.943-0.136 0.079-0.271 0.156-0.407 0.235-0.259 0.15-0.164 0.022-0.011 0.111-0.273-0.158-0.545-0.315-0.817-0.472 0 0.122 0 0.243 0 0.365 0.749-0.433 1.498-0.865 2.248-1.298 0.236-0.136 0.023-0.5-0.213-0.365z"></path>
<path d="M28.383 26.089c0-0.253 0.002-0.505 0.002-0.757 0.001-0.361-0.247 0.395-0.057 0.073 0.043-0.072 0.058-0.148 0.058-0.23 0.002-0.556 0.003-1.112 0.005-1.668 0.002-0.628 0.003-1.256 0.006-1.884 0.006-2.173 0.012-4.346 0.018-6.52 0.006-2.324-1.162-4.38-3.178-5.544-4.356-2.515-8.712-5.030-13.068-7.545-0.071 0.263-0.142 0.524-0.213 0.787v0c0.419 0 0.578-0.576 0.213-0.787-0.838-0.484-1.677-0.968-2.515-1.452-0.189-0.109-0.376-0.219-0.574-0.312-0.079-0.037-0.146-0.067-0.236-0.067 0.275 0 0.021-0.023-0.078-0.060-0.081-0.030-0.166-0.054-0.252-0.073-1.347-0.3-2.598 0.842-3.682 1.472-0.473 0.275-0.055 0.98 0.426 0.729 0.155-0.080 0.070-0.045 0.138-0.063-0.075-0.271-0.149-0.542-0.224-0.813-1.411 0.586-1.312 2.051-1.316 3.336-0.007 2.508-0.014 5.015-0.021 7.524-0.005 1.744-0.267 3.742 0.16 5.457 0.346 1.389 1.25 2.674 2.401 3.508 0.816 0.591 1.77 1.038 2.641 1.54 0.694 0.401 1.387 0.8 2.080 1.201 0-0.243 0-0.486 0-0.729-0.589 0.34-1.178 0.68-1.767 1.020-0.595 0.343-1.442 0.66-1.567 1.418 0.136-0.104 0.272-0.206 0.407-0.31v0c-0.23 0-0.422 0.192-0.422 0.422 0 0.663 0 1.326 0 1.989 0 0.23 0.192 0.422 0.422 0.422 0.002 0 0.005 0 0.007 0-0.136-0.104-0.271-0.206-0.407-0.31 0.295 0.824 1.303 1.187 2.021 1.602 0.277 0.16 0.636-0.044 0.636-0.364v0c-0.212 0.122-0.424 0.243-0.636 0.364 1.008 0.582 2.016 1.164 3.024 1.746 0.844 0.487 1.586 0.907 2.608 0.764 0.813-0.114 1.55-0.684 2.243-1.084 0.983-0.567 1.965-1.134 2.947-1.701-0.142 0-0.284 0-0.426 0 1.047 0.605 2.082 1.322 3.2 1.788 1.25 0.52 2.36-0.423 3.384-1.018 0.853-0.495 1.315-0.928 1.505-1.659 0.063-0.241 0.083-0.506 0.084-0.755 0.001-0.253 0.055-0.563-0.013-0.81-0.14-0.511 0.015 0.326 0.015-0.038 0-0.201 0.001-0.403 0.002-0.605 0-0.23-0.192-0.422-0.422-0.422v0c-0.544 0-0.544 0.845 0 0.845v0c-0.14-0.14-0.282-0.282-0.422-0.422-0 0.238-0.002 0.476-0.002 0.713-0 0.091 0.011 0.175 0.058 0.255 0.189 0.323-0.057-0.431-0.058-0.075-0.001 0.307 0.009 0.616-0.023 0.921-0.033 0.321-0.123 0.69-0.541 0.969-0.708 0.473-1.491 0.835-2.212 1.287-0.784 0.491-1.872-0.401-2.52-0.774-0.558-0.322-1.526-1.223-2.183-0.843-1.021 0.59-2.042 1.179-3.063 1.768-0.561 0.324-1.152 0.791-1.819 0.847-0.919 0.076-1.683-0.545-2.439-0.982-0.833-0.481-1.666-0.962-2.499-1.443-0.277-0.16-0.636 0.044-0.636 0.364v0c0.212-0.122 0.424-0.243 0.636-0.364-0.414-0.239-1.464-0.625-1.633-1.096-0.064-0.179-0.209-0.31-0.407-0.31-0.002 0-0.005 0-0.007 0 0.14 0.141 0.281 0.282 0.422 0.422 0-0.663 0-1.326 0-1.989-0.142 0.14-0.282 0.281-0.423 0.422v0c0.173 0 0.377-0.128 0.407-0.31 0.084-0.503 1.101-0.868 1.46-1.076 0.495-0.286 0.991-0.572 1.486-0.858 0.274-0.158 0.274-0.571 0-0.729-0.838-0.484-1.677-0.968-2.514-1.452-0.918-0.529-1.983-1.006-2.748-1.753-1.059-1.036-1.618-2.239-1.614-3.634 0.002-0.7 0.004-1.399 0.006-2.098 0.008-2.614 0.015-5.229 0.022-7.843 0.003-0.858 0.005-1.716 0.008-2.574 0.002-0.475-0.013-1.056 0.342-1.423 0.098-0.102 0.066-0.127 0.351-0.245 0.487-0.202 0.316-0.963-0.224-0.814-0.118 0.032-0.232 0.092-0.34 0.148 0.142 0.243 0.284 0.486 0.426 0.729 0.744-0.431 1.487-0.863 2.229-1.295 0.356-0.207 0.541-0.15 0.84-0.083 0.178 0.039 0.709 0.287 0.342 0.115 0.229 0.108 0.446 0.24 0.665 0.366 0.803 0.464 1.606 0.927 2.409 1.391 0.071-0.263 0.142-0.524 0.213-0.787v0c-0.419 0-0.578 0.576-0.213 0.787 3.637 2.1 7.276 4.2 10.913 6.301 1.034 0.597 2.288 1.125 3.175 1.949 0.891 0.829 1.497 1.961 1.703 3.159 0.096 0.555 0.035 1.159 0.034 1.72-0.004 1.461-0.009 2.922-0.012 4.383-0.003 1.002-0.006 2.003-0.009 3.004-0.002 0.563-0.003 1.127-0.005 1.689 0 0.076-0 0.151-0 0.226 0.16-0.302 0.178-0.367 0.058-0.196-0.038 0.066-0.058 0.137-0.058 0.213-0.001 0.299-0.002 0.598-0.003 0.898-0.002 0.544 0.843 0.544 0.845 0z"></path>
<path d="M23.231 11.235c-3.488-2.014-6.976-4.027-10.464-6.042-1.753-1.012-3.505-2.024-5.258-3.036-0.611-0.353-1.213-0.698-1.952-0.651-1.111 0.071-1.484 1.254-1.487 2.187-0.011 3.765-0.021 7.529-0.032 11.294 0 0.074 0.040 0.145 0.104 0.182 6.978 4.029 13.957 8.057 20.934 12.086 0.181 0.105 0.363 0.21 0.545 0.314 0.139 0.080 0.317-0.022 0.317-0.183 0.007-2.456 0.014-4.912 0.021-7.368 0.003-1.301 0.008-2.602 0.011-3.902 0.006-1.928-1.103-3.873-2.739-4.884-0.233-0.143-0.444 0.222-0.213 0.364 1.669 1.030 2.535 2.912 2.53 4.826-0.004 1.421-0.008 2.843-0.012 4.264-0.006 2.233-0.012 4.467-0.019 6.701 0.106-0.061 0.212-0.122 0.317-0.183-6.979-4.029-13.957-8.058-20.934-12.086-0.147-0.085-0.294-0.169-0.441-0.255-0.226-0.131 0 0.206 0.001 0.043 0.002-0.767 0.005-1.534 0.006-2.3 0.007-2.555 0.014-5.11 0.021-7.665 0.002-0.715-0.072-1.503 0.136-2.195 0.405-1.351 1.829-0.713 2.671-0.227 1.752 1.012 3.505 2.024 5.258 3.036 3.488 2.014 6.976 4.027 10.465 6.042 0.235 0.136 0.448-0.229 0.212-0.364z"></path>
<path d="M25.167 26.109c-6.7-3.868-13.4-7.736-20.1-11.604-0.206-0.119 0.018 0.243 0.018 0.044 0-0.314 0-0.627 0-0.941 0-1.207 0-2.415 0-3.622 0-1.966-0.051-3.938 0.007-5.902 0.016-0.548 0.204-1.198 0.843-1.237 0.332-0.021 0.699 0.173 0.974 0.331 0.126 0.072 0.253 0.145 0.378 0.217 0.684 0.393 1.368 0.787 2.053 1.181 2.273 1.308 4.546 2.614 6.819 3.922 1.748 1.005 3.497 2.011 5.245 3.016 0.358 0.206 0.715 0.412 1.073 0.617 1.375 0.79 2.405 2.535 2.401 4.128-0.009 3.345-0.019 6.689-0.029 10.034-0.001 0.273 0.422 0.272 0.422 0 0.005-1.824 0.011-3.648 0.015-5.473 0.003-1.236 0.007-2.471 0.011-3.706 0.003-0.987-0.025-1.911-0.459-2.835-0.88-1.874-2.358-2.632-4.034-3.595-2.206-1.269-4.413-2.538-6.619-3.807-1.963-1.129-3.925-2.258-5.889-3.386-1.079-0.621-2.902-1.915-3.522-0.087-0.207 0.614-0.112 1.421-0.112 2.063 0 1.171 0 2.342 0 3.514 0 1.886 0 3.772 0 5.658 0 0.074 0.040 0.145 0.104 0.182 6.7 3.868 13.4 7.737 20.1 11.604 0.029 0.017 0.058 0.034 0.087 0.050 0.235 0.137 0.448-0.229 0.212-0.364z"></path>
<path d="M4.033 16.441c0.059 1.878 1.137 3.759 2.74 4.746 0.321 0.198 0.654 0.378 0.98 0.566 1.962 1.133 3.922 2.265 5.884 3.397 2.257 1.303 4.514 2.606 6.771 3.909 1.111 0.642 2.784 2.003 4.144 1.84 1.623-0.195 1.385-2.355 1.388-3.509 0-0.074-0.041-0.145-0.105-0.183-6.979-4.029-13.957-8.057-20.934-12.086-0.181-0.105-0.364-0.21-0.545-0.315-0.139-0.080-0.317 0.022-0.317 0.182-0.002 0.483-0.003 0.968-0.005 1.452-0.001 0.273 0.421 0.272 0.422 0 0.002-0.484 0.003-0.969 0.004-1.453-0.106 0.061-0.212 0.121-0.317 0.182 6.978 4.029 13.957 8.057 20.934 12.086 0.147 0.085 0.294 0.17 0.441 0.255 0.030 0.017 0.061 0.035 0.092 0.053 0.070 0.040-0.093-0.046-0.093-0.151-0 0.151-0.001 0.303-0.002 0.455-0.002 0.718 0.077 1.485-0.297 2.13-0.476 0.82-1.512 0.477-2.148 0.11-1.465-0.846-2.93-1.692-4.395-2.538-3.851-2.224-7.702-4.447-11.553-6.671-1.549-0.895-2.61-2.672-2.667-4.46-0.008-0.271-0.431-0.272-0.422 0z"></path>
<path d="M13.749 22.491c0.191-1.162 1.278-0.521 1.775 0.030 0.502 0.558 0.8 1.407 0.631 2.145-0.223 0.971-1.369 0.053-1.675-0.273-0.479-0.509-0.756-1.268-0.723-1.959 0.013-0.273-0.409-0.271-0.422 0-0.054 1.125 0.598 2.244 1.536 2.84 0.766 0.487 1.547 0.136 1.741-0.709 0.232-1.006-0.541-2.352-1.371-2.88-0.825-0.524-1.726-0.351-1.898 0.692-0.043 0.266 0.364 0.38 0.408 0.112z"></path>
</symbol>
<symbol id="icon-message" viewBox="0 0 32 32">
<title>message</title>
<path d="M5.604 17.026c4.283 2.473 8.568 4.947 12.851 7.419 0.063 0.036 0.125 0.072 0.187 0.108-0.16-0.091 0.003 0.015 0.134 0.24 0.485 0.837 0.969 1.674 1.454 2.511 0.862 1.489 1.724 2.978 2.587 4.467 0 0 0 0 0 0 0.049 0.096 0.134 0.162 0.231 0.197 0.003 0.001 0.006 0.002 0.009 0.003 0.131 0.044 0.282 0.036 0.4-0.032 1.747-1.015 3.494-2.031 5.242-3.047 0.567-0.329 0.442-0.884 0.443-1.473 0.003-1.218 0.007-2.435 0.011-3.652 0.010-3.593 0.078-7.191 0.029-10.784-0.128-2.749-2.917-3.777-4.951-4.95-3.43-1.982-6.86-3.962-10.29-5.942 0 0 0 0 0 0-1.010-0.583-2.020-1.167-3.030-1.75-0.399-0.231-0.898-0.431-1.367-0.302-0.887 0.245-1.742 0.945-2.526 1.4-1.095 0.636-2.189 1.272-3.283 1.908-0.067 0.038-0.118 0.084-0.155 0.134-0.486 0.46-0.557 1.026-0.559 1.712v0c-0.006 2.319-0.013 4.637-0.020 6.956-0.003 1.234 0.021 2.264 0.733 3.363 0.466 0.717 1.16 1.103 1.871 1.514zM28.204 28.098c-1.582 0.919-3.165 1.84-4.747 2.759 0.001-0.279 0.002-0.558 0.003-0.837 1.524-0.88 3.048-1.759 4.572-2.64 0.055-0.032 0.114-0.061 0.177-0.092-0.002 0.27-0.003 0.54-0.003 0.81zM27.73 11.048c-1.686 0.973-3.372 1.947-5.058 2.92-0.889-1.121-2.424-1.768-3.683-2.448 0.765-0.442 1.531-0.884 2.297-1.326 0.643-0.371 1.287-0.743 1.93-1.114 0.201-0.116 0.402-0.232 0.604-0.348 0.083-0.048 0.139-0.073 0.173-0.088 0.974 0.562 1.947 1.124 2.92 1.686 0.314 0.181 0.596 0.43 0.817 0.719zM3.943 10.014c0.005-1.607 0.009-3.213 0.014-4.819v0 0 0c0.001-0.329-0.045-0.811 0.252-1.038 0.001-0 0.001-0 0.002-0.001 0.144-0.084 0.288-0.171 0.433-0.257 0.341 0.090 0.715 0.301 1.007 0.469 0.012 0.007 0.024 0.014 0.036 0.021s0.024 0.014 0.036 0.021c4.225 2.439 8.45 4.878 12.675 7.318v0c0.799 0.461 1.598 0.922 2.396 1.383 0.605 0.349 1.163 0.661 1.58 1.233 0.834 1.178 0.661 2.766 0.651 4.229 0 0.006-0 0.014-0 0.020 0 0 0 0.002 0 0.002 0 0.020-0 0.041-0 0.061-0.005 1.753-0.010 3.506-0.015 5.259-0.006 2.096-0.012 4.191-0.018 6.288-0.958-1.654-1.916-3.309-2.874-4.963-0.245-0.424-0.512-1.212-0.963-1.472-0.613-0.355-1.227-0.709-1.841-1.063-2.495-1.441-4.991-2.881-7.486-4.322-1.074-0.62-2.148-1.24-3.222-1.86-0.554-0.32-1.163-0.607-1.656-1.023-1.463-1.234-1.009-3.799-1.005-5.486zM23.498 16.179c0-0.107-0.007-0.197-0.018-0.294 0.25-0.145 0.501-0.289 0.752-0.434 1.416-0.818 2.832-1.636 4.248-2.453-0.002 0.767-0.005 1.533-0.006 2.299 0 0.005 0 0.008 0 0.014-0.055 0.031-0.11 0.063-0.165 0.095-0.331 0.191-0.662 0.382-0.993 0.573-1.274 0.736-2.55 1.472-3.824 2.208 0.002-0.669 0.004-1.338 0.006-2.008zM28.442 26.39c0 0.070-0 0.14-0 0.209-0.011 0.006-0.018 0.012-0.032 0.019-0.287 0.166-0.573 0.331-0.86 0.497-1.363 0.787-2.727 1.575-4.090 2.361 0.002-0.771 0.005-1.542 0.006-2.313 1.66-0.959 3.321-1.918 4.982-2.876-0.002 0.701-0.003 1.401-0.006 2.102zM28.23 23.873c-1.587 0.916-3.175 1.833-4.762 2.75 0.003-0.995 0.006-1.991 0.009-2.987 0.005-1.636 0.009-3.271 0.014-4.907 1.443-0.833 2.886-1.666 4.328-2.499 0.086-0.049 0.262-0.124 0.448-0.215 0.006 2.619-0.017 5.239-0.038 7.859zM18.515 11.254c-2.898-1.673-5.795-3.346-8.693-5.019-0.373-0.215-0.746-0.431-1.119-0.646 1.57-0.907 3.14-1.813 4.71-2.72 0.018 0.010 0.036 0.021 0.053 0.031 0 0 0 0 0 0 3.253 1.878 6.506 3.756 9.758 5.634-1.57 0.906-3.14 1.813-4.71 2.719zM11.235 1.278c0.666 0.385 1.333 0.77 1.999 1.155-1.326 0.765-2.652 1.531-3.978 2.296-0.31 0.179-0.621 0.359-0.931 0.538-0.042 0.024-0.072 0.045-0.092 0.063-0.017-0.016-0.041-0.035-0.079-0.056-0.639-0.37-1.28-0.74-1.92-1.109 1.667-0.962 3.333-1.925 5-2.886zM23.326 15.433c-0.084-0.377-0.208-0.736-0.395-1.073 1.613-0.931 3.226-1.863 4.838-2.793 0.21 0.313 0.362 0.661 0.433 1.051-1.625 0.938-3.25 1.877-4.876 2.816zM5.766 3.893c-0.163-0.094-0.326-0.188-0.489-0.282-0.029-0.017-0.058-0.030-0.087-0.045 1.505-0.92 3.010-1.905 4.593-2.636 0.134-0.062 0.492 0.129 0.693 0.244-1.571 0.906-3.14 1.813-4.71 2.719z"></path>
<path d="M17.878 19.090c0.015 0.012 0.030 0.024 0.050 0.034 0.020 0.012 0.040 0.021 0.059 0.027 0.817 0.384 1.774 0.146 1.832-0.911 0.067-1.216-0.628-2.425-1.645-3.070-0.811-0.515-1.837-0.129-1.892 0.885-0.066 1.197 0.607 2.382 1.596 3.035zM18.165 18.72c-0.648-0.412-1.072-1.045-1.314-1.766-0.286-0.852 0.027-1.921 1.087-1.38 0.657 0.335 1.087 1.096 1.312 1.767 0.285 0.852-0.026 1.921-1.085 1.38z"></path>
<path d="M6.912 10.643c-0.066 1.195 0.606 2.381 1.594 3.035 0.014 0.012 0.030 0.024 0.050 0.034 0.020 0.012 0.040 0.021 0.059 0.027 0.817 0.384 1.775 0.148 1.833-0.911 0.066-1.216-0.629-2.425-1.646-3.072-0.811-0.515-1.835-0.127-1.891 0.886zM9.879 11.93c0.286 0.852-0.027 1.921-1.087 1.379-0.648-0.412-1.071-1.045-1.312-1.765-0.285-0.851 0.026-1.922 1.086-1.38 0.656 0.335 1.088 1.097 1.313 1.767z"></path>
<path d="M13.191 16.384c0.014 0.012 0.030 0.024 0.050 0.034 0.020 0.012 0.040 0.021 0.059 0.027 0.818 0.384 1.775 0.148 1.833-0.911 0.066-1.217-0.629-2.425-1.646-3.072-0.811-0.515-1.835-0.127-1.89 0.886-0.066 1.196 0.605 2.382 1.594 3.036zM13.478 16.014c-0.648-0.412-1.071-1.045-1.312-1.765-0.286-0.851 0.026-1.922 1.086-1.38 0.657 0.336 1.089 1.097 1.313 1.767 0.286 0.853-0.027 1.92-1.088 1.379z"></path>
</symbol>
<symbol id="icon-play" viewBox="0 0 32 32">
<title>play</title>
<path stroke-width="0.4923" stroke-miterlimit="10" stroke-linecap="butt" stroke-linejoin="miter" d="M31.754 16c0 8.7-7.053 15.754-15.754 15.754s-15.754-7.053-15.754-15.754c0-8.7 7.053-15.754 15.754-15.754s15.754 7.053 15.754 15.754z"></path>
<path stroke-width="0.4923" stroke-miterlimit="10" stroke-linecap="butt" stroke-linejoin="miter" d="M27.815 16l-17.723-10.233v20.465z"></path>
</symbol>
<symbol id="icon-target" viewBox="0 0 32 32">
<title>target</title>
<path d="M19.469 19.449c0.068-0.075 0.126-0.165 0.177-0.262l-0.177 0.262z"></path>
<path d="M19.762 17.37c-0.022-0.095-0.047-0.19-0.076-0.285l0.076 0.285z"></path>
<path d="M16.702 13.966c-0.205-0.019-0.395 0.005-0.564 0.067l0.564-0.067z"></path>
<path d="M19.027 19.752c0.17-0.063 0.318-0.165 0.442-0.303l-0.442 0.303z"></path>
<path d="M18.724 15.275c0.048 0.059 0.094 0.119 0.139 0.181l-0.139-0.181z"></path>
<path d="M17.414 14.178c-0.174-0.085-0.342-0.145-0.503-0.18l0.503 0.18z"></path>
<path d="M19.121 15.838c-0.081-0.131-0.167-0.259-0.257-0.382l0.257 0.382z"></path>
<path d="M19.446 16.449c-0.032-0.070-0.065-0.139-0.099-0.208l0.099 0.208z"></path>
<path d="M19.686 17.086c-0.021-0.071-0.045-0.142-0.070-0.213l0.070 0.213z"></path>
<path d="M18.828 19.805c0.069-0.012 0.136-0.029 0.199-0.053l-0.199 0.053z"></path>
<path d="M28.156 20.526c-0.918-6.251-4.96-12.696-10.443-15.913-1.695-0.96-3.71-1.65-5.629-1.417-0.307 0.19-0.608 0.382-0.904 0.569 2.137-0.704 4.477 0.118 6.342 1.175 3.272 1.92 5.794 4.932 7.63 8.213 1.849 3.303 3.062 7.167 2.776 10.982-0.124 1.656-0.664 3.357-1.79 4.588 0.287-0.167 0.574-0.333 0.861-0.5 0.025-0.014 0.051-0.029 0.075-0.043 1.433-2.168 1.443-5.199 1.082-7.655z"></path>
<path d="M14.783 25.537c2.339 2.199 6.112 4.378 9.295 2.649 3.313-2.016 3.079-6.639 2.24-9.912-1.045-4.080-3.499-7.958-6.743-10.638-2.444-2.020-6.3-3.749-9.139-1.499-2.751 2.18-2.34 6.621-1.556 9.595 0.362 1.371 0.883 2.711 1.537 3.988-0.145 0.084-0.289 0.168-0.434 0.252 0.021 0.042 0.043 0.085 0.065 0.126 0.096 0.183 0.049 0.412-0.136 0.52-0.052 0.030-0.105 0.050-0.157 0.065 0.082 0.011 0.165 0.022 0.247 0.034-1.514 0.867-3.027 1.734-4.54 2.601-0.115 0.065-0.229 0.131-0.343 0.197-0.017 0.010-0.029 0.018-0.039 0.025-0.421-0.057-0.842-0.115-1.262-0.172-0.219-0.030-0.438-0.060-0.658-0.090-0.001 0.137-0.063 0.277-0.18 0.345-0.005 0.003-0.010 0.006-0.015 0.009 0.297 0.041 0.593 0.081 0.89 0.122 0.043 0.006 0.085 0.012 0.127 0.019-0.023 0.209 0.016 0.444 0.083 0.641 0.138 0.004 0.276 0.008 0.414 0.012-0.050-0.098-0.088-0.203-0.117-0.306-0.022-0.078-0.035-0.187-0.021-0.284 0.216 0.038 0.423 0.067 0.628 0.054 0.13 0.148 0.225 0.323 0.288 0.511 0.028 0.084 0.050 0.193 0.046 0.283-0.002 0.049-0.003 0.069-0.006 0.086 0.1 0.114 0.131 0.27 0.045 0.429-0.026 0.048-0.053 0.097-0.078 0.145 0.060-0.018 0.119-0.046 0.174-0.092 1.486-0.864 2.973-1.728 4.459-2.592 0.115-0.213 0.23-0.427 0.345-0.64-1.517 0.882-3.034 1.763-4.552 2.645 0.004-0.229-0.068-0.477-0.19-0.701-0.031-0.062-0.066-0.121-0.104-0.179 0.040-0.018 0.080-0.037 0.12-0.060 1.72-0.985 3.439-1.97 5.159-2.955 0.073-0.042 0.097-0.107 0.091-0.171 0.010-0.082-0.029-0.161-0.136-0.176-0.004-0-0.007-0.001-0.011-0.001-0.012-0.003-0.024-0.005-0.037-0.005-0.163-0.022-0.326-0.044-0.49-0.067 0.98-0.57 1.961-1.14 2.941-1.709 0.798-0.464 1.597-0.928 2.395-1.392 0.432-0.251 0.864-0.502 1.296-0.753 0.125-0.073 0.28-0.211 0.433-0.206 0.405 0.013 0.69 0.614 0.747 0.951 0.005 0.027 0.005 0.055 0.006 0.083 0.003 0.22-0.060 0.273-0.252 0.385-0.747 0.434-1.494 0.868-2.241 1.302-0.803 0.467-1.607 0.934-2.41 1.401-0.709 0.412-1.418 0.824-2.127 1.236 0.057 0.031 0.108 0.076 0.144 0.134 0.034 0.053 0.070 0.107 0.104 0.16 0.145-0.084 0.289-0.168 0.435-0.253 0.925 1.409 2.012 2.709 3.221 3.846zM18.285 17.376c0.003-0.016 0.006-0.033 0.005-0.053-0.024-0.509-0.322-1.039-0.766-1.297-0.215-0.125-0.443-0.152-0.67-0.047-0.405 0.187-0.798 0.417-1.187 0.656-0.046-0.149-0.087-0.3-0.12-0.455-0.126-0.587-0.083-1.28 0.32-1.751 0.485-0.568 1.335-0.176 1.826 0.132 1.11 0.696 1.815 2.109 1.967 3.372 0.070 0.58-0.060 1.231-0.568 1.579-0.664 0.455-1.593-0.233-2.062-0.643-0.067-0.066-0.13-0.135-0.193-0.203 0.656-0.319 1.412-0.707 1.449-1.29zM19.027 19.752c0.17-0.063 0.318-0.165 0.442-0.303 0.068-0.075 0.126-0.165 0.177-0.262-0.052 0.097-0.109 0.186-0.177 0.262-0.124 0.139-0.273 0.24-0.442 0.303-0.063 0.023-0.13 0.040-0.199 0.053 0.068-0.012 0.135-0.029 0.199-0.053zM19.616 16.872c-0.050-0.142-0.107-0.283-0.17-0.423-0.032-0.070-0.065-0.139-0.099-0.208-0.069-0.137-0.145-0.272-0.225-0.404s-0.167-0.259-0.257-0.382c-0.045-0.062-0.092-0.122-0.139-0.181-0.333-0.414-0.721-0.764-1.134-1.002-0.059-0.034-0.117-0.065-0.175-0.094-0.174-0.085-0.342-0.145-0.503-0.18 0.161 0.035 0.329 0.095 0.503 0.18 0.058 0.028 0.117 0.060 0.175 0.094 0.414 0.239 0.8 0.589 1.134 1.002 0.048 0.059 0.094 0.119 0.139 0.181 0.091 0.123 0.177 0.251 0.257 0.382s0.156 0.266 0.225 0.404c0.035 0.069 0.068 0.138 0.099 0.208 0.063 0.139 0.12 0.28 0.17 0.423 0.025 0.071 0.048 0.142 0.070 0.213 0.029 0.095 0.054 0.19 0.076 0.285s0.041 0.19 0.055 0.283c0.030 0.188 0.045 0.374 0.045 0.555-0.001 0.326-0.056 0.606-0.151 0.84 0.096-0.234 0.15-0.513 0.151-0.84 0-0.181-0.015-0.366-0.045-0.555-0.015-0.094-0.033-0.189-0.055-0.283s-0.047-0.19-0.076-0.285c-0.021-0.071-0.044-0.142-0.070-0.213zM16.138 14.033c0.17-0.063 0.359-0.086 0.564-0.067-0.205-0.019-0.395 0.005-0.564 0.067zM13.538 20.543c1.548 2.338 3.8 4.364 6.484 4.647 2.695 0.284 3.996-2.256 4.031-4.623 0.068-2.679-1.163-5.396-2.676-7.54-1.382-1.958-3.62-4.113-6.143-4.332-1.343-0.117-2.584 0.379-3.335 1.526-1.367 2.091-0.779 5.044 0.040 7.213 0.139 0.369 0.3 0.745 0.479 1.123-0.245 0.142-0.489 0.284-0.734 0.427-0.816-1.674-1.366-3.459-1.591-5.194-0.241-1.855-0.062-3.997 1.206-5.469 1.193-1.384 3.076-1.4 4.692-0.884 2.149 0.687 3.942 2.376 5.34 4.085 1.433 1.751 2.505 3.81 3.19 5.962 0.22 0.692 0.379 1.403 0.494 2.119 0.298 2.077 0.246 4.909-1.62 6.302-1.841 1.375-4.158 0.682-5.963-0.388-1.826-1.083-3.398-2.692-4.621-4.552 0.219-0.127 0.438-0.255 0.657-0.382 0.022-0.013 0.045-0.026 0.068-0.040zM16.763 19.138c0.848 0.741 2.6 1.488 3.131-0.040 0.584-1.68-0.501-3.636-1.774-4.693-1.002-0.832-2.44-0.916-2.915 0.463-0.217 0.631-0.144 1.33 0.091 1.998-0.179 0.111-0.358 0.222-0.536 0.329-0.173-0.438-0.31-0.888-0.405-1.343-0.197-0.949-0.16-2.103 0.534-2.848 0.7-0.751 1.842-0.405 2.609 0.014 1.75 0.956 2.92 3.016 3.314 4.912 0.197 0.95 0.16 2.103-0.534 2.848-0.7 0.751-1.843 0.405-2.611-0.014-0.684-0.414-1.279-0.961-1.774-1.591 0.12-0.070 0.24-0.139 0.359-0.209 0.070-0.041 0.148-0.082 0.23-0.124 0.094 0.106 0.188 0.204 0.282 0.296zM17.475 21.094c0.748 0.409 1.728 0.74 2.549 0.319 0.873-0.448 1.185-1.345 1.256-2.273 0.189-2.471-1.533-5.201-3.591-6.447-0.719-0.435-1.751-0.727-2.548-0.319-0.873 0.448-1.185 1.344-1.256 2.272-0.070 0.917 0.123 1.87 0.499 2.77-0.225 0.131-0.45 0.262-0.675 0.393-0.359-0.816-0.623-1.661-0.778-2.483-0.277-1.46-0.172-3.345 1.162-4.263 1.302-0.896 3.043-0.014 4.147 0.789 2.039 1.587 3.462 3.965 3.973 6.491 0.235 1.159 0.213 2.434-0.334 3.502-0.862 1.681-2.854 1.326-4.217 0.579-1.116-0.612-2.072-1.543-2.837-2.629 0.242-0.141 0.485-0.282 0.727-0.422 0.561 0.7 1.222 1.297 1.923 1.721zM17.061 22.496c0.601 0.418 1.287 0.74 1.994 0.874 0.685 0.129 1.391 0.082 2.058-0.233 1.24-0.583 1.589-2.152 1.615-3.383 0.065-3.089-1.853-6.34-4.241-8.189-0.006-0.004-0.011-0.007-0.018-0.011-0.007-0.006-0.013-0.013-0.021-0.019-1.189-0.869-2.713-1.56-4.178-0.992-1.289 0.5-1.737 1.945-1.827 3.198-0.103 1.429 0.251 2.91 0.896 4.28-0.183 0.107-0.366 0.213-0.549 0.32-0.017 0.010-0.033 0.019-0.050 0.029-0.023-0.048-0.046-0.096-0.069-0.144-0.966-2.034-1.491-4.358-0.992-6.523 0.346-1.502 1.442-2.555 2.993-2.656 2.575-0.168 5.011 2.261 6.377 4.17 1.486 2.078 2.69 4.744 2.624 7.348-0.026 1.759-0.7 3.682-2.477 4.156-0.14 0.037-0.286 0.066-0.439 0.085-2.812 0.338-5.391-2.331-6.864-4.471 0.206-0.12 0.412-0.24 0.619-0.36 0.736 1 1.615 1.87 2.549 2.519zM11.898 21.496c0.204-0.119 0.409-0.238 0.613-0.356 1.719 2.641 4.186 4.971 7.166 5.753 1.426 0.374 2.913 0.132 4.037-0.775 0.147-0.119 0.289-0.248 0.422-0.39 1.519-1.612 1.539-4.18 1.245-6.227-0.647-4.018-2.874-7.871-5.977-10.493-2.24-1.893-5.995-3.499-8.373-0.956-1.023 1.094-1.341 2.675-1.396 4.121-0.042 1.099 0.103 2.197 0.368 3.269 0.259 1.045 0.632 2.065 1.062 3.034 0.101 0.227 0.207 0.455 0.319 0.682-0.214 0.125-0.429 0.249-0.643 0.374-0.885-1.698-1.565-3.552-1.878-5.432-0.255-1.532-0.266-3.081 0.058-4.575 0.339-1.564 1.225-2.977 2.692-3.684 1.909-0.92 4.184-0.14 5.902 0.823 4.019 2.255 6.868 6.668 8.227 10.975 0.867 2.746 1.348 6.776-0.634 9.163-0.334 0.403-0.737 0.761-1.222 1.056-2.106 1.143-4.524 0.361-6.45-0.776-1.955-1.154-3.573-2.857-4.905-4.674-0.216-0.295-0.427-0.6-0.633-0.913z"></path>
<path d="M26.168 6.943c-2.751-3.401-8.43-7.842-13.032-5.168-1.048 0.609-2.097 1.219-3.146 1.828-0.007 0.004-0.012 0.009-0.018 0.013-2.586 1.592-3.329 4.733-3.247 7.591 0.086 3.030 1.033 5.991 2.373 8.694-0.092-0.012-0.183-0.025-0.275-0.038-0.564-0.077-1.129-0.154-1.693-0.231-0.679-0.093-0.905 0.025-1.494 0.363-1.591 0.911-3.182 1.823-4.772 2.734-0.259 0.149-0.249 0.648 0.091 0.694 0.229 0.032 0.459 0.063 0.688 0.094-0.486 0.28-0.971 0.561-1.457 0.841-0.335 0.193-0.18 0.697 0.192 0.708 0.849 0.024 1.699 0.049 2.548 0.073 0.495 0.014 0.991 0.029 1.486 0.043 0.025 0 0.050 0.001 0.074 0.002-0.651 1.205-1.301 2.41-1.952 3.616-0.179 0.331 0.182 0.715 0.52 0.52 1.772-1.023 3.544-2.047 5.317-3.070 0.645-0.373 0.801-0.65 1.164-1.323 0.398-0.737 0.795-1.474 1.193-2.21 1.788 2.681 4.080 5.103 6.898 6.698 2.313 1.309 5.27 2.025 7.715 0.649 0.008-0.004 0.015-0.006 0.022-0.011 1.447-0.841 3.169-1.581 4.359-2.784 1.696-1.713 2.112-4.334 2.062-6.641-0.236-5.056-2.466-9.791-5.616-13.685zM29.051 26.867c-0.552 0.558-1.3 0.925-1.978 1.314-0.025 0.014-0.051 0.029-0.075 0.043-0.287 0.167-0.574 0.333-0.861 0.5-0.376 0.219-0.752 0.437-1.128 0.656-0.003 0.001-0.006 0.002-0.009 0.004-2.308 1.326-5.011 0.476-7.167-0.725-2.764-1.539-5.010-4.080-6.704-6.716-0.034-0.053-0.070-0.107-0.104-0.16-0.037-0.058-0.087-0.103-0.144-0.134-0.172-0.094-0.406-0.061-0.512 0.134-0.043 0.079-0.085 0.158-0.128 0.237-0.115 0.213-0.23 0.427-0.345 0.64-0.318 0.589-0.636 1.178-0.954 1.767-0.159 0.294-0.318 0.588-0.477 0.883-0.021 0.017-0.049 0.037-0.090 0.060-0.157 0.091-0.314 0.181-0.471 0.272-1.357 0.784-2.715 1.568-4.072 2.351 0.477-0.883 0.953-1.766 1.43-2.649 0.026-0.048 0.052-0.097 0.078-0.145 0.086-0.159 0.055-0.316-0.045-0.429-0.047-0.054-0.108-0.099-0.182-0.128-0.239-0.096-0.342-0.207-0.625-0.215-0.003 0-0.007 0-0.010-0-0.138-0.004-0.276-0.008-0.414-0.012-0.33-0.010-0.661-0.019-0.992-0.029-0.449-0.013-0.897-0.026-1.346-0.039 0.413-0.238 0.826-0.477 1.238-0.715 0.005-0.003 0.010-0.006 0.015-0.009 0.118-0.068 0.179-0.208 0.18-0.345 0.001-0.164-0.085-0.324-0.271-0.349-0.227-0.031-0.454-0.062-0.682-0.093 1.27-0.728 2.541-1.456 3.812-2.184 0.193-0.11 0.385-0.221 0.578-0.331 0.011 0.001 0.021 0.002 0.034 0.004 0.226 0.031 0.452 0.062 0.678 0.093 0.564 0.077 1.129 0.154 1.693 0.231 0.263 0.036 0.512 0.105 0.754 0.035 0.053-0.015 0.105-0.034 0.157-0.065 0.185-0.107 0.232-0.337 0.136-0.52-0.021-0.042-0.043-0.084-0.065-0.126-1.298-2.504-2.482-5.514-2.482-8.372 0-2.744 0.29-5.777 2.888-7.352 0.002-0.001 0.003-0.002 0.005-0.004 0.257-0.15 0.519-0.312 0.784-0.48 0.296-0.187 0.598-0.38 0.904-0.569 1.052-0.65 2.161-1.253 3.32-1.39 2.453-0.29 4.801 0.932 6.73 2.316 4.338 3.114 7.307 8.315 8.502 13.443 0.235 1.005 0.341 2.033 0.389 3.062 0.049 2.228-0.348 4.597-1.974 6.24zM8.484 25.293c0.023-0.029 0.027-0.024 0 0v0zM6.541 20.314c-0.085 0.010-0.123-0.011 0 0v0z"></path>
</symbol>
<symbol id="icon-world" viewBox="0 0 32 32">
<title>world</title>
<path d="M5.786 22.54c1.921 3.204 4.574 6.108 7.851 7.95 2.384 1.34 5.419 2.020 7.922 0.645 0.024-0.010 0.049-0.020 0.074-0.034 1.746-1.015 3.701-1.9 5.312-3.121 2.376-1.8 3.046-4.782 2.984-7.631-0.298-6.37-3.634-12.665-8.41-16.833-2.208-1.927-4.904-3.414-7.883-3.512-2.471-0.082-4.774 1.782-6.798 2.958-0.389 0.226-0.778 0.452-1.167 0.678-0.011 0.007-0.020 0.015-0.031 0.022-2.78 1.734-3.501 5.12-3.377 8.188 0.152 3.777 1.597 7.479 3.523 10.69zM4.383 5.072c1.141-1.287 2.564-1.843 4.057-1.915 0.164-0.095 0.328-0.191 0.492-0.285 0.929-0.54 1.864-1.199 2.874-1.584 0.363-0.138 0.733-0.23 1.107-0.282 0.975-0.137 1.979-0.006 2.952 0.292 0.205 0.063 0.409 0.133 0.611 0.21 1.265 0.479 2.454 1.209 3.433 1.955 0.759 0.579 1.484 1.216 2.172 1.902 0.119 0.118 0.235 0.238 0.352 0.359 0.809 0.843 1.561 1.753 2.244 2.717 0.094 0.133 0.188 0.266 0.28 0.401 0.176 0.259 0.346 0.523 0.512 0.79 0.086 0.137 0.171 0.276 0.254 0.415 0.294 0.492 0.573 0.995 0.831 1.507 0.073 0.146 0.145 0.291 0.215 0.438 1.27 2.645 2.051 5.508 2.184 8.358 0.008 0.367 0.002 0.742-0.018 1.118-0.011 0.196-0.026 0.392-0.045 0.588-0.076 0.773-0.225 1.541-0.477 2.262-0.088 0.252-0.189 0.498-0.302 0.737-0.418 0.873-1.020 1.645-1.868 2.226-0.022 0.015-0.041 0.032-0.064 0.047-0.802 0.532-1.639 1.020-2.483 1.495-0.588 1-1.441 1.82-2.634 2.334-3.569 1.539-7.54-0.578-10.221-2.92-3.498-3.056-6.168-7.244-7.48-11.702-1.042-3.539-1.655-8.443 1.021-11.462z"></path>
<path d="M11.188 27.891c2.868 2.436 8.148 5.187 11.3 1.631 0.013-0.015 0.025-0.030 0.038-0.046-0.405 0.226-0.808 0.453-1.208 0.683-0.023 0.009-0.045 0.018-0.068 0.032-2.438 1.452-5.348 0.508-7.612-0.826-2.932-1.727-5.246-4.449-7.010-7.318-1.79-2.913-3.050-6.25-3.356-9.668-0.175-1.963 0.013-4.201 1.011-5.935 0.453-0.787 1.072-1.47 1.9-1.975 0.003 0 0.004-0.002 0.006-0.003 0.409-0.237 0.817-0.475 1.226-0.713-0.943 0.214-1.822 0.687-2.554 1.513-2.356 2.658-2.142 6.824-1.327 10.046 1.204 4.761 3.891 9.384 7.654 12.579z"></path>
<path d="M13.96 8.975c-0.010 0.069 0.006 0.141 0.060 0.2 0.002 0.002 0.003 0.004 0.005 0.005 0.156 0.169 0.309 0.341 0.46 0.516 0.057 0.066 0.114 0.135 0.17 0.203 0.091 0.108 0.182 0.217 0.271 0.328 0.072 0.090 0.143 0.181 0.215 0.273 0.068 0.086 0.134 0.173 0.2 0.261 0.083 0.11 0.165 0.221 0.246 0.333 0.046 0.063 0.091 0.127 0.136 0.191 0.095 0.135 0.19 0.271 0.281 0.408 0.017 0.024 0.032 0.050 0.049 0.074 0.944 1.422 1.706 2.963 2.225 4.586 0.365 1.155 0.604 2.349 0.683 3.566 0 0 0 0 0 0.001 0.009 0.134 0.116 0.25 0.25 0.244 0.019-0.001 0.039-0.004 0.058-0.010 0.322-0.096 0.622-0.212 0.911-0.355 0.072-0.035 0.143-0.073 0.214-0.111 0.142-0.078 0.28-0.162 0.418-0.253 0.069-0.046 0.137-0.093 0.205-0.143 0.017-0.012 0.031-0.026 0.044-0.040 0.010-0.010 0.019-0.020 0.027-0.032 0.010-0.013 0.019-0.026 0.026-0.041 0.002-0.003 0.003-0.006 0.005-0.008 0.009-0.020 0.014-0.041 0.016-0.064 0-0.005 0.001-0.011 0.001-0.016 0.001-0.023 0-0.047-0.006-0.073-0.183-0.75-0.416-1.496-0.695-2.229-0.187-0.488-0.395-0.972-0.623-1.445-0.178-0.37-0.373-0.733-0.576-1.092-0.517-0.914-1.113-1.782-1.782-2.585-0.23-0.275-0.465-0.546-0.712-0.804-0.015-0.017-0.030-0.034-0.046-0.050-0.724-0.755-1.52-1.434-2.38-2.016-0.146-0.099-0.293-0.005-0.341 0.127-0.003 0.008-0.005 0.017-0.008 0.025-0.003 0.010-0.005 0.020-0.007 0.030zM19.424 19.601c-0.043-0.503-0.107-1-0.192-1.499-0.518-2.66-1.698-5.16-3.292-7.349 0.979 0.963 1.821 2.064 2.554 3.235 0.61 0.974 1.11 2.016 1.529 3.085 0.189 0.484 0.343 0.98 0.486 1.48 0.184 0.641-0.515 0.884-1.085 1.049z"></path>
<path d="M13.533 19.178c-0.216-0.216-0.571-0.378-0.824-0.555-0.512-0.357-0.991-0.758-1.46-1.168-0.768-0.672-1.463-1.424-2.12-2.205 0.11 0.115 0.22 0.227 0.319 0.342 0.905 1.050 1.937 1.992 3.072 2.788 0.025 0.017 0.050 0.035 0.075 0.053 0.211 0.147 0.425 0.29 0.644 0.427 0.101 0.063 0.198 0.042 0.267-0.017 0.058-0.038 0.1-0.102 0.1-0.193 0.009-3.148 0.018-6.296 0.027-9.444 0-0.035-0.007-0.068-0.020-0.096-0.037-0.086-0.125-0.14-0.224-0.148-0.001 0-0.001 0-0.002 0-0.133-0.011-0.264-0.014-0.392-0.014-0.020 0-0.039 0-0.059 0.001-0.838 0.009-1.554 0.235-2.153 0.617-0.015 0.009-0.030 0.020-0.045 0.030-0.055 0.036-0.108 0.073-0.161 0.111-0.844 0.601-1.469 1.52-1.813 2.633-0.168 0.544-0.232 1.118-0.274 1.684-0.003 0.038-0.003 0.075-0.002 0.111-0.004 0.062-0.008 0.123-0.011 0.184-0.004 0.086 0.031 0.148 0.083 0.187 0.010 0.013 0.021 0.025 0.031 0.039 0.064 0.137 0.152 0.265 0.252 0.388-0.068-0.040-0.141-0.033-0.203 0.005-0.088 0.027-0.157 0.101-0.149 0.223 0.016 0.233 0.038 0.467 0.066 0.701 0.005 0.043 0.012 0.085 0.018 0.127 0.112 0.876 0.303 1.757 0.569 2.626-0.030-0.087-0.060-0.172-0.089-0.259-0.423-1.295-0.666-2.648-0.707-4.008-0.005-0.171-0.146-0.396-0.314-0.615 0.014 0.004 0.030 0.007 0.046 0.008 0.068 0.012 0.136-0.004 0.191-0.046 0.075-0.049 0.123-0.132 0.102-0.223 0.030-0.333 0.078-0.659 0.148-0.973 0.505-2.287 2.067-4 4.681-3.822 0.088 0.006 0.159-0.042 0.2-0.11 0.069-0.113 0.059-0.28-0.078-0.345-0.428-0.201-0.857-0.375-1.308-0.518-0.467-0.125-0.936-0.202-1.398-0.223-0.045-0.003-0.090-0.005-0.135-0.006-0.006 0-0.011 0-0.018 0-0.924-0.025-1.835 0.193-2.659 0.775-0.198 0.139-0.375 0.3-0.535 0.475-0.393 0.406-0.675 0.909-0.888 1.433-0.031 0.073-0.063 0.146-0.091 0.22-0.014 0.037-0.022 0.071-0.032 0.105-0.019 0.053-0.038 0.104-0.056 0.157-0.051 0.154 0.053 0.382 0.186 0.603-0.13-0.076-0.336-0.033-0.364 0.137-0.576 3.551 0.739 7.199 2.659 10.145 1.153 1.693 2.533 3.193 4.217 4.369 0.181 0.126 0.351-0.041 0.354-0.215 0.001-0.058-0.017-0.117-0.059-0.167-0.166-0.195-0.328-0.392-0.488-0.588 0.149 0.162 0.301 0.32 0.457 0.474 0 0 0.001 0 0.001 0 0.003 0.003 0.007 0.006 0.010 0.009 0.079 0.073 0.171 0.078 0.248 0.043 0.009-0.003 0.018-0.009 0.027-0.014 0.014-0.006 0.026-0.014 0.037-0.022 0.001-0 0.002-0.001 0.002-0.002 0.036-0.026 0.064-0.064 0.079-0.111 0-0 0.001-0.001 0.001-0.002 0.007-0.023 0.011-0.047 0.011-0.074 0.003-1.095 0.006-2.189 0.009-3.284 0-0.006 0-0.012 0-0.018 0.002-0.612 0.004-1.224 0.005-1.835 0.001-0.116 0.031-0.294 0.037-0.468 0.008-0.173-0.009-0.342-0.105-0.438zM6.415 12.203c0-0.001 0-0.002 0-0.003 0.168 0.29 0.339 0.578 0.517 0.862 0.101 0.162 0.263 0.36 0.424 0.569 0.275 0.489 0.487 0.994 0.548 1.53 0.016 0.188 0.036 0.376 0.061 0.564 0.002 0.014 0.003 0.027 0.005 0.040 0.011 0.079 0.022 0.157 0.034 0.235 0.086 0.584 0.211 1.162 0.366 1.732 0.009 0.035 0.018 0.070 0.027 0.105 0.581 2.201 1.627 4.258 2.934 6.114-0.826-0.809-1.563-1.709-2.22-2.674-1.716-2.633-2.981-5.88-2.696-9.075zM12.029 8.232c-2.303 0.351-3.672 2.261-4.059 4.601-0.409-0.627-0.79-1.268-1.146-1.929-0.349-0.648 0.679-1.742 1.103-2.128 1.127-1.030 2.713-0.976 4.103-0.543zM6.755 11.79c0.012 0.021 0.025 0.043 0.037 0.064 0.056 0.097 0.112 0.194 0.169 0.29 0.068 0.116 0.138 0.229 0.208 0.344 0.026 0.042 0.051 0.084 0.078 0.126 0.092 0.146 0.186 0.291 0.28 0.436 0.016 0.025 0.032 0.050 0.049 0.075 0.049 0.074 0.099 0.148 0.149 0.222-0.074-0.091-0.141-0.173-0.186-0.241-0.323-0.486-0.619-0.99-0.904-1.499 0.048 0.072 0.090 0.136 0.118 0.184zM9.055 15.91c1.021 1.166 2.148 2.22 3.408 3.134 0.46 0.334 0.654 0.427 0.652 1.041-0.002 0.612-0.004 1.224-0.005 1.835-0.002 0.901-0.005 1.801-0.008 2.701-2.159-2.328-3.655-5.564-4.048-8.711zM13.146 9.438c-0.008 2.92-0.017 5.84-0.025 8.76-1.605-1.072-2.959-2.438-4.151-3.954 0.129-2.505 1.447-4.878 4.175-4.806z"></path>
<path d="M13.958 25.824c0 0 0 0 0 0 0.188 0.014 0.371 0.018 0.549 0.012s0.35-0.022 0.517-0.047c0.918-0.139 1.673-0.558 2.266-1.16 0.054-0.055 0.107-0.111 0.157-0.169 0.29-0.328 0.535-0.702 0.738-1.109 0.023-0.047 0.046-0.093 0.068-0.141 0.047-0.102 0.093-0.206 0.134-0.313 0.017-0.042 0.033-0.084 0.049-0.127 0.049-0.133 0.096-0.268 0.137-0.407 0.096-0.318 0.169-0.648 0.22-0.985 0.026-0.169 0.046-0.338 0.060-0.51v0 0c0.008-0.090-0.027-0.152-0.081-0.19-0.038-0.035-0.093-0.058-0.163-0.053-0.201 0.012-0.401 0.015-0.599 0.011-0.099-0.003-0.197-0.007-0.295-0.014-0.196-0.013-0.39-0.035-0.582-0.063-0.096-0.015-0.192-0.030-0.287-0.049-0.381-0.072-0.756-0.173-1.124-0.299-0.092-0.032-0.184-0.064-0.275-0.099-0.183-0.069-0.364-0.142-0.544-0.222-0.090-0.040-0.18-0.081-0.27-0.123-0.179-0.084-0.357-0.174-0.533-0.267-0.023-0.012-0.046-0.020-0.069-0.024-0.146-0.030-0.297 0.070-0.297 0.235-0.005 1.951-0.011 3.902-0.017 5.853 0 0.006 0 0.011 0 0.017v0 0 0c-0.001 0.111 0.062 0.183 0.14 0.215 0.008 0.004 0.018 0.007 0.027 0.010 0.022 0.009 0.046 0.017 0.075 0.018zM18.338 21.122c-0.017 0.147-0.040 0.293-0.066 0.437-0.041 0.227-0.095 0.448-0.159 0.664-0.085 0.288-0.19 0.564-0.314 0.826s-0.268 0.509-0.433 0.737c-0.614 0.855-1.505 1.442-2.675 1.547-0.078 0.007-0.157 0.012-0.238 0.015-0.083 0.003-0.168 0.003-0.253 0.001 0.005-1.747 0.010-3.494 0.015-5.242 1.296 0.639 2.667 1.049 4.121 1.015z"></path>
<path d="M10.843 28.235c2.68 2.341 6.652 4.458 10.221 2.92 1.194-0.514 2.046-1.334 2.634-2.334 0.294-0.5 0.522-1.044 0.694-1.619 0.305-0.175 0.608-0.352 0.913-0.527 0.564-0.326 1.128-0.651 1.692-0.977 0.372-0.215 0.744-0.43 1.116-0.644 0.114-0.239 0.215-0.485 0.302-0.737-0.108 0.062-0.215 0.124-0.322 0.186-0.558 0.322-1.116 0.644-1.674 0.966-0.619 0.358-1.239 0.715-1.859 1.073 0.151-0.686 0.234-1.403 0.261-2.131 0-0.003 0.001-0.006 0.001-0.008 0.398-0.23 0.797-0.46 1.195-0.689 0.959-0.553 1.916-1.107 2.875-1.66 0.020-0.196 0.035-0.392 0.045-0.588-1.104 0.637-2.209 1.275-3.313 1.913-0.23 0.133-0.528 0.259-0.794 0.409-0.009-1.979-0.387-3.977-0.846-5.534-0.378-1.285-0.873-2.564-1.471-3.806 1.419-0.819 2.838-1.639 4.257-2.457-0.070-0.146-0.142-0.293-0.215-0.438-1.419 0.819-2.838 1.639-4.257 2.458-0.258-0.511-0.534-1.014-0.827-1.51 1.418-0.819 2.835-1.637 4.253-2.456-0.084-0.139-0.168-0.278-0.254-0.415-1.417 0.818-2.834 1.636-4.251 2.454-0.165-0.267-0.334-0.531-0.509-0.791 1.416-0.818 2.832-1.635 4.247-2.453-0.091-0.135-0.186-0.268-0.28-0.401-1.415 0.816-2.829 1.633-4.244 2.45-0.675-0.965-1.419-1.88-2.223-2.729 1.235-0.713 2.469-1.425 3.703-2.138 0.173-0.1 0.346-0.2 0.519-0.3-0.116-0.121-0.233-0.241-0.352-0.359-1.407 0.812-2.814 1.624-4.22 2.436-1.216-1.228-2.566-2.303-4.029-3.165-0.464-0.262-0.95-0.5-1.451-0.707 0.212-0.138 0.415-0.297 0.558-0.379 1.179-0.681 2.358-1.361 3.538-2.042-0.202-0.077-0.405-0.147-0.611-0.21-0.961 0.555-1.922 1.109-2.883 1.665-0.297 0.172-0.595 0.344-0.893 0.515-0.275 0.159-0.29 0.203-0.488 0.129-0.719-0.268-1.529-0.446-2.324-0.493 1.027-0.593 2.053-1.185 3.080-1.778 0.214-0.123 0.392-0.237 0.556-0.33-0.374 0.052-0.745 0.144-1.107 0.282-1.011 0.385-1.944 1.043-2.874 1.584-0.164 0.095-0.328 0.191-0.492 0.285-1.493 0.071-2.917 0.628-4.058 1.914-2.676 3.019-2.063 7.923-1.021 11.463 1.311 4.457 3.981 8.645 7.48 11.701zM4.861 5.266c0.732-0.826 1.612-1.299 2.554-1.513 0.99-0.225 2.050-0.163 3.088 0.076 0.383 0.13 0.783 0.297 1.142 0.336 0.685 0.244 1.342 0.551 1.942 0.889 1.471 0.867 2.802 1.947 3.995 3.174 0.011 0.022 0.024 0.043 0.042 0.062 0.917 0.946 1.742 1.982 2.487 3.068 0.018 0.027 0.040 0.049 0.064 0.067 0.241 0.357 0.473 0.721 0.696 1.089 0.005 0.014 0.007 0.030 0.015 0.043 0.285 0.47 0.563 0.947 0.819 1.434 0.425 0.814 0.808 1.646 1.146 2.486 0.883 2.19 1.63 4.98 1.554 7.616-0.155 0.163-0.093 0.575-0.108 0.769-0.027 0.347-0.075 0.698-0.14 1.044-0.071 0.378-0.165 0.752-0.284 1.111-0.015 0.044-0.012 0.084-0.003 0.122-0.3 0.847-0.738 1.637-1.346 2.334-0.013 0.015-0.024 0.030-0.038 0.046-3.152 3.556-8.431 0.805-11.3-1.631-3.762-3.195-6.45-7.818-7.654-12.579-0.814-3.221-1.028-7.388 1.327-10.046z"></path>
<path d="M5.316 11.586c-0.037 0.402-0.053 0.806-0.051 1.21 0 0.033 0 0.066 0 0.099 0.001 0.102 0.004 0.206 0.008 0.308 0 0.011 0 0.024 0.001 0.035s0.002 0.021 0.002 0.031c0.126 3.076 1.332 6.152 3.122 8.743 2.184 3.273 5.993 6.819 9.982 6.018 2.047-0.411 3.047-1.945 3.438-3.78 0.084-0.394 0.14-0.802 0.172-1.216 0.086-0.691 0.096-1.401 0.034-2.095-0.418-4.617-3.087-9.308-6.779-12.165-2.421-1.931-5.419-3.139-7.948-1.207-0.494 0.377-0.875 0.845-1.17 1.365-0.17 0.302-0.312 0.62-0.426 0.951-0.201 0.546-0.33 1.122-0.384 1.703zM16.556 27.601c-0.18-0.034-0.358-0.074-0.534-0.118-2.313-0.666-4.709-2.667-5.977-4.121-0.517-0.592-0.986-1.221-1.413-1.88-0.678-1.072-1.246-2.197-1.696-3.302-0.003-0.009-0.007-0.017-0.011-0.026-0.026-0.064-0.050-0.128-0.075-0.191-0.163-0.422-0.313-0.849-0.449-1.279-0.183-0.582-0.34-1.191-0.457-1.812-0.005-0.026-0.010-0.053-0.014-0.079-0.017-0.093-0.032-0.187-0.046-0.28-0.014-0.092-0.029-0.185-0.042-0.278-0.003-0.022-0.005-0.044-0.008-0.066-0.146-1.146-0.128-2.308 0.13-3.421 0.131-0.536 0.32-1.057 0.586-1.552 0.055-0.102 0.115-0.197 0.175-0.29 0.702-1.016 1.765-1.595 2.974-1.712 0.761-0.057 1.563 0.063 2.333 0.317 0.595 0.197 1.164 0.465 1.709 0.784 1.37 0.82 2.576 1.978 3.58 3.147 0.323 0.387 0.627 0.783 0.91 1.179 0.596 0.866 1.192 1.858 1.716 2.922 0.462 0.987 0.843 2.011 1.136 3.045 0.576 2.029 0.755 4.239 0.041 6.253-0.115 0.292-0.249 0.579-0.407 0.859-0.024 0.043-0.049 0.084-0.074 0.125-0.878 1.348-2.406 2.011-4.090 1.779z"></path>
<path d="M21.313 19.948c0-0.001-0-0.003-0-0.004v0c-0.017-0.11-0.087-0.164-0.169-0.174-0.056-0.019-0.122-0.014-0.189 0.029-0.494 0.314-1.003 0.537-1.558 0.689-0.079 0.021-0.16 0.042-0.241 0.061-0.108 0.025-0.175 0.13-0.179 0.235-0.003 0.082-0.007 0.165-0.012 0.247-0.018 0.328-0.051 0.652-0.101 0.971-0.075 0.479-0.189 0.947-0.358 1.398-0.056 0.151-0.119 0.299-0.188 0.446-0.104 0.22-0.221 0.436-0.357 0.646-0.248 0.387-0.558 0.695-0.91 0.937-0.77 0.529-1.74 0.741-2.695 0.771-0.004 0-0.008 0-0.012 0-0.195 0.006-0.322 0.268-0.194 0.404 0.005 0.006 0.015 0.009 0.021 0.015 0.015 0.012 0.029 0.026 0.050 0.035 0.001 0 0.001 0 0.001 0 0.893 0.404 1.787 0.676 2.772 0.703 0.557-0.018 1.050-0.119 1.489-0.285 0.491-0.176 0.961-0.45 1.395-0.846 1.68-1.535 1.738-4.209 1.433-6.277zM18.137 25.043c0.136-0.16 0.264-0.334 0.383-0.52 0.346-0.54 0.558-1.161 0.703-1.789 0.049-0.209 0.089-0.419 0.125-0.627 0.023-0.131 0.016-0.405 0.041-0.655 0.003-0.032 0.007-0.062 0.011-0.093 0.029-0.212 0.090-0.389 0.22-0.419 0.425-0.099 0.828-0.28 1.209-0.496 0.020-0.012 0.040-0.023 0.060-0.035 0.216 1.779 0.084 3.712-1.066 5.163-1.108 1.399-2.866 1.477-4.436 1.005 0.678-0.125 1.302-0.358 1.851-0.727 0.328-0.22 0.629-0.487 0.9-0.808z"></path>
<path d="M13.733 18.999c0 0.082 0.046 0.172 0.12 0.21 0.652 0.333 1.324 0.616 2.014 0.814 0.296 0.084 0.595 0.153 0.898 0.203 0.404 0.067 0.814 0.1 1.23 0.093 0.104-0.002 0.209-0.006 0.313-0.012s0.21-0.016 0.316-0.028c0.128-0.015 0.248-0.099 0.244-0.244 0 0 0-0 0-0-0.002-0.067-0.004-0.134-0.006-0.2-0.005-0.077-0.014-0.153-0.019-0.23-0.226-3.547-1.895-6.979-4.185-9.668-0.122-0.143-0.248-0.284-0.374-0.423-0.026-0.029-0.051-0.059-0.077-0.088-0.008-0.012-0.018-0.023-0.028-0.033-0.001-0.001-0.001-0.001-0.001-0.001s-0.001 0-0.001-0.001c-0.002-0.002-0.005-0.005-0.008-0.007-0.088-0.089-0.195-0.084-0.277-0.031-0.074 0.034-0.13 0.104-0.13 0.21v0c-0.009 3.145-0.018 6.29-0.027 9.435zM18.372 19.813c-0.919 0.067-1.799-0.069-2.688-0.341-0.329-0.101-1.463-0.352-1.462-0.849 0.002-0.629 0.004-1.258 0.005-1.887 0.006-2.177 0.012-4.354 0.018-6.53 2.294 2.674 3.917 6.070 4.127 9.608z"></path>
</symbol>
</defs>
</svg>
